<svg width="16" height="16" viewBox="0 0 16 16" fill="none" xmlns="http://www.w3.org/2000/svg">
<path fill-rule="evenodd" clip-rule="evenodd" d="M4.51221 6.50794C4.51221 5.72042 4.83683 4.96515 5.41467 4.40828C5.9925 3.85142 6.77621 3.53857 7.59339 3.53857C8.41057 3.53857 9.19428 3.85142 9.77212 4.40828C10.35 4.96515 10.6746 5.72042 10.6746 6.50794C10.6746 7.29547 10.35 8.05073 9.77212 8.6076C9.19428 9.16446 8.41057 9.47731 7.59339 9.47731C6.77621 9.47731 5.9925 9.16446 5.41467 8.6076C4.83683 8.05073 4.51221 7.29547 4.51221 6.50794ZM7.59339 4.47627C7.03427 4.47627 6.49804 4.69032 6.10268 5.07133C5.70732 5.45234 5.48521 5.96911 5.48521 6.50794C5.48521 7.04677 5.70732 7.56354 6.10268 7.94455C6.49804 8.32556 7.03427 8.53961 7.59339 8.53961C8.15252 8.53961 8.68874 8.32556 9.0841 7.94455C9.47946 7.56354 9.70157 7.04677 9.70157 6.50794C9.70157 5.96911 9.47946 5.45234 9.0841 5.07133C8.68874 4.69032 8.15252 4.47627 7.59339 4.47627Z" fill="#6B6B6B"/>
<path fill-rule="evenodd" clip-rule="evenodd" d="M2.09535 5.79345C2.20652 4.49754 2.81915 3.28926 3.81167 2.40837C4.80419 1.52748 6.10407 1.03837 7.45337 1.03809H7.7336C9.08289 1.03837 10.3828 1.52748 11.3753 2.40837C12.3678 3.28926 12.9804 4.49754 13.0916 5.79345C13.2153 7.23708 12.7525 8.67058 11.8008 9.79178L8.69168 13.4557C8.55863 13.6125 8.39108 13.7388 8.20115 13.8256C8.01123 13.9123 7.80367 13.9574 7.59348 13.9574C7.3833 13.9574 7.17574 13.9123 6.98581 13.8256C6.79589 13.7388 6.62834 13.6125 6.49529 13.4557L3.38621 9.79178C2.4345 8.67058 1.9717 7.23708 2.09535 5.79345ZM7.45337 1.97578C6.34844 1.97623 5.28404 2.37689 4.47131 3.09829C3.65858 3.81969 3.15689 4.80913 3.06577 5.87034C2.96281 7.07177 3.34794 8.2648 4.13996 9.1979L7.24904 12.8624C7.29084 12.9117 7.34348 12.9514 7.40316 12.9787C7.46285 13.006 7.52808 13.0201 7.59413 13.0201C7.66019 13.0201 7.72542 13.006 7.7851 12.9787C7.84479 12.9514 7.89743 12.9117 7.93923 12.8624L11.0483 9.1979C11.8399 8.26461 12.2245 7.0716 12.1212 5.87034C12.0301 4.80902 11.5283 3.8195 10.7154 3.09808C9.90255 2.37667 8.838 1.97607 7.73295 1.97578H7.45337Z" fill="#6B6B6B"/>
</svg>
