<svg width="15" height="15" viewBox="0 0 15 15" fill="none" xmlns="http://www.w3.org/2000/svg">
<path d="M1.86616 5.59838V12.1298H13.0628V5.59838H1.86616ZM1.39963 4.66532H13.5293C13.6531 4.66532 13.7717 4.71447 13.8592 4.80196C13.9467 4.88945 13.9959 5.00812 13.9959 5.13185V12.5963C13.9959 12.72 13.9467 12.8387 13.8592 12.9262C13.7717 13.0137 13.6531 13.0628 13.5293 13.0628H1.39963C1.2759 13.0628 1.15724 13.0137 1.06975 12.9262C0.982257 12.8387 0.933105 12.72 0.933105 12.5963V5.13185C0.933105 5.00812 0.982257 4.88945 1.06975 4.80196C1.15724 4.71447 1.2759 4.66532 1.39963 4.66532ZM2.33269 2.79921H12.5963V3.73227H2.33269V2.79921ZM3.73227 0.933105H11.1967V1.86616H3.73227V0.933105Z" fill="white"/>
</svg>
