<svg width="40" height="40" viewBox="0 0 40 40" fill="none" xmlns="http://www.w3.org/2000/svg">
<g clip-path="url(#clip0_150_549)">
<path d="M20 0C21.8359 0 23.6068 0.234375 25.3125 0.703125C27.0182 1.17188 28.6068 1.84896 30.0781 2.73438C31.5495 3.61979 32.8971 4.66146 34.1211 5.85938C35.3451 7.05729 36.3932 8.40495 37.2656 9.90234C38.138 11.3997 38.8086 12.9948 39.2773 14.6875C39.7461 16.3802 39.987 18.151 40 20C40 21.8359 39.7656 23.6068 39.2969 25.3125C38.8281 27.0182 38.151 28.6068 37.2656 30.0781C36.3802 31.5495 35.3385 32.8971 34.1406 34.1211C32.9427 35.3451 31.5951 36.3932 30.0977 37.2656C28.6003 38.138 27.0052 38.8086 25.3125 39.2773C23.6198 39.7461 21.849 39.987 20 40C18.1641 40 16.3932 39.7656 14.6875 39.2969C12.9818 38.8281 11.3932 38.151 9.92188 37.2656C8.45052 36.3802 7.10286 35.3385 5.87891 34.1406C4.65495 32.9427 3.60677 31.5951 2.73438 30.0977C1.86198 28.6003 1.19141 27.0052 0.722656 25.3125C0.253906 23.6198 0.0130208 21.849 0 20C0 18.1641 0.234375 16.3932 0.703125 14.6875C1.17188 12.9818 1.84896 11.3932 2.73438 9.92188C3.61979 8.45052 4.66146 7.10286 5.85938 5.87891C7.05729 4.65495 8.40495 3.60677 9.90234 2.73438C11.3997 1.86198 12.9948 1.19141 14.6875 0.722656C16.3802 0.253906 18.151 0.0130208 20 0ZM31.7773 13.3789L29.1211 10.7227L16.25 23.5938L10.8789 18.2227L8.22266 20.8789L16.25 28.9062L31.7773 13.3789Z" fill="#F8961E"/>
</g>
<defs>
<clipPath id="clip0_150_549">
<rect width="40" height="40" fill="white"/>
</clipPath>
</defs>
</svg>
