<svg width="14" height="11" viewBox="0 0 14 11" fill="none" xmlns="http://www.w3.org/2000/svg">
<path d="M6.8225 7.12938C7.32671 7.12938 7.81027 6.92909 8.1668 6.57256C8.52332 6.21603 8.72362 5.73247 8.72362 5.22826C8.72362 4.72406 8.52332 4.2405 8.1668 3.88397C7.81027 3.52744 7.32671 3.32715 6.8225 3.32715C6.3183 3.32715 5.83474 3.52744 5.47821 3.88397C5.12168 4.2405 4.92139 4.72406 4.92139 5.22826C4.92139 5.73247 5.12168 6.21603 5.47821 6.57256C5.83474 6.92909 6.3183 7.12938 6.8225 7.12938Z" fill="white"/>
<path fill-rule="evenodd" clip-rule="evenodd" d="M0.056588 4.87763C0.999542 2.04433 3.67188 0 6.8233 0C9.97281 0 12.6439 2.04243 13.5881 4.8732C13.6641 5.1026 13.6641 5.34974 13.5881 5.57851C12.6458 8.41181 9.97281 10.4561 6.82203 10.4561C3.67251 10.4561 1.00081 8.41371 0.0572218 5.58295C-0.0190739 5.35403 -0.0190739 5.10655 0.0572218 4.87763M10.1496 5.22807C10.1496 6.11043 9.7991 6.95666 9.17517 7.58058C8.55125 8.20451 7.70502 8.55502 6.82266 8.55502C5.9403 8.55502 5.09407 8.20451 4.47015 7.58058C3.84623 6.95666 3.49571 6.11043 3.49571 5.22807C3.49571 4.34571 3.84623 3.49948 4.47015 2.87556C5.09407 2.25163 5.9403 1.90112 6.82266 1.90112C7.70502 1.90112 8.55125 2.25163 9.17517 2.87556C9.7991 3.49948 10.1496 4.34571 10.1496 5.22807Z" fill="white"/>
</svg>
