<svg width="14" height="14" viewBox="0 0 14 14" fill="none" xmlns="http://www.w3.org/2000/svg">
<g clip-path="url(#clip0_150_650)">
<path d="M3.50335 13.8672H0.371274C0.166216 13.8672 0 13.701 0 13.496V6.24432C0 6.03929 0.166216 5.87305 0.371274 5.87305H3.50338L3.50335 13.8672Z" fill="url(#paint0_linear_150_650)"/>
<path d="M10.4966 13.8672H13.6287C13.8337 13.8672 14 13.701 14 13.496V6.24432C14 6.03929 13.8337 5.87305 13.6287 5.87305H10.4966V13.8672Z" fill="url(#paint1_linear_150_650)"/>
<path d="M14 8.79131V13.4959C14 13.7011 13.8339 13.8672 13.6287 13.8672H10.4966V5.87305H11.0821L14 8.79131Z" fill="url(#paint2_linear_150_650)"/>
<path d="M2.9165 3.00586H11.0828V13.8672H2.9165V3.00586Z" fill="url(#paint3_linear_150_650)"/>
<path d="M10.3744 13.8677H3.62521C3.43391 13.8677 3.27881 13.7126 3.27881 13.5213V3.76779C3.27881 3.57648 3.43391 3.42139 3.62521 3.42139H10.3744C10.5658 3.42139 10.7209 3.57648 10.7209 3.76779V13.5213C10.7208 13.7126 10.5658 13.8677 10.3744 13.8677Z" fill="url(#paint4_linear_150_650)"/>
<path d="M9.93342 3.9873C10.1524 3.9873 10.3305 4.16546 10.3305 4.38444V5.6771C10.3305 5.89605 10.1524 6.07421 9.93342 6.07421H8.64076C8.42178 6.07421 8.24365 5.89605 8.24365 5.6771V4.38444C8.24365 4.16546 8.42181 3.9873 8.64076 3.9873H9.93342Z" fill="url(#paint5_linear_150_650)"/>
<path d="M9.93342 6.2583C10.1524 6.2583 10.3305 6.43646 10.3305 6.65541V7.9481C10.3305 8.16705 10.1524 8.34521 9.93342 8.34521H8.64076C8.42178 8.34521 8.24365 8.16705 8.24365 7.9481V6.65541C8.24365 6.43646 8.42181 6.2583 8.64076 6.2583H9.93342Z" fill="url(#paint6_linear_150_650)"/>
<path d="M9.93342 8.52881C10.1524 8.52881 10.3305 8.70697 10.3305 8.92591V10.2186C10.3305 10.4375 10.1524 10.6157 9.93342 10.6157H8.64076C8.42178 10.6157 8.24365 10.4375 8.24365 10.2186V8.92591C8.24365 8.70697 8.42181 8.52881 8.64076 8.52881H9.93342Z" fill="url(#paint7_linear_150_650)"/>
<path d="M5.35872 3.9873C5.57769 3.9873 5.75582 4.16546 5.75582 4.38444V5.6771C5.75582 5.89605 5.57767 6.07421 5.35872 6.07421H4.06605C3.84707 6.07421 3.66895 5.89605 3.66895 5.6771V4.38444C3.66895 4.16546 3.8471 3.9873 4.06605 3.9873H5.35872Z" fill="url(#paint8_linear_150_650)"/>
<path d="M5.35872 6.2583C5.57769 6.2583 5.75582 6.43646 5.75582 6.65541V7.9481C5.75582 8.16705 5.57767 8.34521 5.35872 8.34521H4.06605C3.84707 8.34521 3.66895 8.16705 3.66895 7.9481V6.65541C3.66895 6.43646 3.8471 6.2583 4.06605 6.2583H5.35872Z" fill="url(#paint9_linear_150_650)"/>
<path d="M5.35921 8.52881C5.57818 8.52881 5.75631 8.70697 5.75631 8.92591V10.2186C5.75631 10.4375 5.57816 10.6157 5.35921 10.6157H4.06654C3.84756 10.6157 3.66943 10.4375 3.66943 10.2186V8.92591C3.66943 8.70697 3.84759 8.52881 4.06654 8.52881H5.35921Z" fill="url(#paint10_linear_150_650)"/>
<path d="M7.64583 3.9873C7.8648 3.9873 8.04293 4.16546 8.04293 4.38444V5.6771C8.04293 5.89605 7.86478 6.07421 7.64583 6.07421H6.35316C6.13418 6.07421 5.95605 5.89605 5.95605 5.6771V4.38444C5.95605 4.16546 6.13421 3.9873 6.35316 3.9873H7.64583Z" fill="url(#paint11_linear_150_650)"/>
<path d="M7.64583 6.2583C7.8648 6.2583 8.04293 6.43646 8.04293 6.65541V7.9481C8.04293 8.16705 7.86478 8.34521 7.64583 8.34521H6.35316C6.13418 8.34521 5.95605 8.16705 5.95605 7.9481V6.65541C5.95605 6.43646 6.13421 6.2583 6.35316 6.2583H7.64583Z" fill="url(#paint12_linear_150_650)"/>
<path d="M7.64632 8.52881C7.86529 8.52881 8.04342 8.70697 8.04342 8.92591V10.2186C8.04342 10.4375 7.86526 10.6157 7.64632 10.6157H6.35365C6.13467 10.6157 5.95654 10.4375 5.95654 10.2186V8.92591C5.95654 8.70697 6.1347 8.52881 6.35365 8.52881H7.64632Z" fill="url(#paint13_linear_150_650)"/>
<path d="M11.0828 3.00586H2.9165V3.13076L11.0828 11.2971V3.00586Z" fill="url(#paint14_linear_150_650)"/>
<path d="M7 13.8672H10.6912C10.9076 13.8672 11.0832 13.713 11.0832 13.5227V3.00586H7V13.8672Z" fill="url(#paint15_linear_150_650)"/>
<path d="M8.75927 11.201C8.73888 11.1585 8.69578 11.1289 8.64543 11.1289H5.35414C5.28423 11.1289 5.22754 11.1856 5.22754 11.2555V11.4244C5.22754 11.4747 5.25713 11.5178 5.29968 11.5382L7.62846 13.867H10.3744H10.3744H10.7155C10.9103 13.867 11.0693 13.7153 11.0817 13.5236L8.75927 11.201Z" fill="url(#paint16_linear_150_650)"/>
<path d="M5.47314 11.499H8.52698V13.8677H5.47314V11.499Z" fill="url(#paint17_linear_150_650)"/>
<path d="M7.62876 13.8677H8.52698V11.499H5.47314V11.712L7.62876 13.8677Z" fill="url(#paint18_linear_150_650)"/>
<path d="M8.38718 13.8675H5.61279V11.8375C5.61279 11.7506 5.68323 11.6802 5.77011 11.6802H8.22983C8.31671 11.6802 8.38715 11.7506 8.38715 11.8375L8.38718 13.8675Z" fill="url(#paint19_linear_150_650)"/>
<path d="M7 11.499H8.52691V13.8677H7V11.499Z" fill="url(#paint20_linear_150_650)"/>
<path d="M8.64543 11.5509H5.35414C5.28423 11.5509 5.22754 11.4943 5.22754 11.4243V11.2555C5.22754 11.1856 5.28423 11.1289 5.35414 11.1289H8.64543C8.71535 11.1289 8.77204 11.1856 8.77204 11.2555V11.4243C8.77201 11.4943 8.71535 11.5509 8.64543 11.5509Z" fill="url(#paint21_linear_150_650)"/>
<path d="M4.06634 10.4146C3.95815 10.4146 3.87012 10.3265 3.87012 10.2184V8.92568C3.87012 8.8175 3.95812 8.72949 4.06634 8.72949H5.359C5.46719 8.72949 5.55522 8.8175 5.55522 8.92568V10.2184C5.55522 10.3265 5.46722 10.4146 5.359 10.4146H4.06634Z" fill="url(#paint22_linear_150_650)"/>
<path d="M4.06634 8.14406C3.95815 8.14406 3.87012 8.05606 3.87012 7.94787V6.65518C3.87012 6.54699 3.95812 6.45898 4.06634 6.45898H5.359C5.46719 6.45898 5.55522 6.54699 5.55522 6.65518V7.94787C5.55522 8.05606 5.46722 8.14406 5.359 8.14406H4.06634Z" fill="url(#paint23_linear_150_650)"/>
<path d="M4.06634 5.87304C3.95815 5.87304 3.87012 5.78503 3.87012 5.67685V4.38418C3.87012 4.276 3.95812 4.18799 4.06634 4.18799H5.359C5.46719 4.18799 5.55522 4.276 5.55522 4.38418V5.67685C5.55522 5.78503 5.46722 5.87304 5.359 5.87304H4.06634Z" fill="url(#paint24_linear_150_650)"/>
<path d="M8.64056 10.4146C8.53237 10.4146 8.44434 10.3265 8.44434 10.2184V8.92568C8.44434 8.8175 8.53234 8.72949 8.64056 8.72949H9.93322C10.0414 8.72949 10.1294 8.8175 10.1294 8.92568V10.2184C10.1294 10.3265 10.0414 10.4146 9.93322 10.4146H8.64056Z" fill="url(#paint25_linear_150_650)"/>
<path d="M8.64056 8.14406C8.53237 8.14406 8.44434 8.05606 8.44434 7.94787V6.65518C8.44434 6.54699 8.53234 6.45898 8.64056 6.45898H9.93322C10.0414 6.45898 10.1294 6.54699 10.1294 6.65518V7.94787C10.1294 8.05606 10.0414 8.14406 9.93322 8.14406H8.64056Z" fill="url(#paint26_linear_150_650)"/>
<path d="M8.64056 5.87304C8.53237 5.87304 8.44434 5.78503 8.44434 5.67685V4.38418C8.44434 4.276 8.53234 4.18799 8.64056 4.18799H9.93322C10.0414 4.18799 10.1294 4.276 10.1294 4.38418V5.67685C10.1294 5.78503 10.0414 5.87304 9.93322 5.87304H8.64056Z" fill="url(#paint27_linear_150_650)"/>
<path d="M6.35345 10.4146C6.24526 10.4146 6.15723 10.3265 6.15723 10.2184V8.92568C6.15723 8.8175 6.24523 8.72949 6.35345 8.72949H7.64611C7.7543 8.72949 7.84233 8.8175 7.84233 8.92568V10.2184C7.84233 10.3265 7.75433 10.4146 7.64611 10.4146H6.35345Z" fill="url(#paint28_linear_150_650)"/>
<path d="M6.35345 8.14406C6.24526 8.14406 6.15723 8.05606 6.15723 7.94787V6.65518C6.15723 6.54699 6.24523 6.45898 6.35345 6.45898H7.64611C7.7543 6.45898 7.84233 6.54699 7.84233 6.65518V7.94787C7.84233 8.05606 7.75433 8.14406 7.64611 8.14406H6.35345Z" fill="url(#paint29_linear_150_650)"/>
<path d="M6.35345 5.87304C6.24526 5.87304 6.15723 5.78503 6.15723 5.67685V4.38418C6.15723 4.276 6.24523 4.18799 6.35345 4.18799H7.64611C7.7543 4.18799 7.84233 4.276 7.84233 4.38418V5.67685C7.84233 5.78503 7.75433 5.87304 7.64611 5.87304H6.35345Z" fill="url(#paint30_linear_150_650)"/>
<path d="M3.08789 2.14746H3.30711V2.74293H3.08789V2.14746Z" fill="url(#paint31_linear_150_650)"/>
<path d="M4.13477 2.14746H4.35399V2.74293H4.13477V2.14746Z" fill="url(#paint32_linear_150_650)"/>
<path d="M5.41211 2.14746H5.63133V2.74293H5.41211V2.14746Z" fill="url(#paint33_linear_150_650)"/>
<path d="M7.0625 2.14746H7.28172V2.74293H7.0625V2.14746Z" fill="url(#paint34_linear_150_650)"/>
<path d="M8.73926 2.14746H8.95848V2.74293H8.73926V2.14746Z" fill="url(#paint35_linear_150_650)"/>
<path d="M10.2896 2.14746H10.5088V2.74293H10.2896V2.14746Z" fill="url(#paint36_linear_150_650)"/>
<path d="M2.95898 2.17605V0.272956C2.95898 0.227085 2.98191 0.192167 3.0278 0.16823C3.07367 0.144293 3.12852 0.132324 3.19237 0.132324C3.2562 0.132324 3.31104 0.144293 3.35694 0.16823C3.40281 0.192167 3.42576 0.227085 3.42576 0.272956V1.00606H4.02123V0.272956C4.02123 0.227085 4.04415 0.192167 4.09005 0.16823C4.13592 0.144293 4.19076 0.132324 4.25462 0.132324C4.31844 0.132324 4.37329 0.144293 4.41918 0.16823C4.46505 0.192167 4.488 0.227085 4.488 0.272956V2.17605C4.488 2.22198 4.46505 2.25736 4.41918 2.28229C4.37326 2.30724 4.31841 2.3197 4.25462 2.3197C4.19076 2.3197 4.13592 2.30727 4.09005 2.28229C4.04412 2.25739 4.02123 2.22198 4.02123 2.17605V1.36515H3.42576V2.17605C3.42576 2.22198 3.40281 2.25736 3.35694 2.28229C3.31102 2.30724 3.2562 2.3197 3.19237 2.3197C3.12849 2.3197 3.07365 2.30727 3.0278 2.28229C2.98188 2.25736 2.95898 2.22198 2.95898 2.17605Z" fill="url(#paint37_linear_150_650)"/>
<path d="M4.78711 1.63145V0.838501C4.78711 0.595148 4.85392 0.416579 4.98758 0.302877C5.12122 0.189175 5.2988 0.132324 5.52022 0.132324C5.74361 0.132324 5.92215 0.189175 6.05584 0.302877C6.18947 0.416579 6.25631 0.59512 6.25631 0.838501V1.63145C6.25631 1.87486 6.18944 2.05337 6.05584 2.16707C5.92218 2.28078 5.74361 2.33763 5.52022 2.33763C5.2988 2.33763 5.12122 2.28078 4.98758 2.16707C4.85392 2.05337 4.78711 1.87486 4.78711 1.63145ZM5.25391 1.63145C5.25391 1.83096 5.34266 1.93069 5.52022 1.93069C5.69974 1.93069 5.78951 1.83096 5.78951 1.63145V0.838501C5.78951 0.639042 5.69974 0.539258 5.52022 0.539258C5.34263 0.539258 5.25391 0.639042 5.25391 0.838501V1.63145Z" fill="url(#paint38_linear_150_650)"/>
<path d="M6.38525 0.332909C6.38525 0.278665 6.39722 0.231669 6.42116 0.19192C6.4451 0.152171 6.47999 0.132324 6.52589 0.132324H7.81855C7.86442 0.132324 7.89934 0.152171 7.92328 0.19192C7.94721 0.231669 7.95918 0.278665 7.95918 0.332909C7.95918 0.39105 7.94669 0.439967 7.92179 0.479716C7.89684 0.519438 7.86242 0.539258 7.81855 0.539258H7.40561V2.17506C7.40561 2.22126 7.38266 2.25692 7.33679 2.28204C7.29086 2.30716 7.23604 2.31967 7.17222 2.31967C7.10834 2.31967 7.05349 2.30716 7.00765 2.28204C6.96172 2.25692 6.93883 2.22126 6.93883 2.17506V0.539258H6.52589C6.48199 0.539258 6.44757 0.519438 6.42264 0.479716C6.39769 0.439967 6.38525 0.391077 6.38525 0.332909Z" fill="url(#paint39_linear_150_650)"/>
<path d="M8.14453 2.17605V0.275948C8.14453 0.230077 8.16446 0.194693 8.20437 0.16974C8.24426 0.144814 8.29214 0.132324 8.348 0.132324H9.41326C9.45913 0.132324 9.49405 0.152281 9.51799 0.192167C9.54192 0.232109 9.55389 0.27894 9.55389 0.332799C9.55389 0.390693 9.5414 0.439528 9.51648 0.479414C9.49152 0.519356 9.4571 0.539258 9.41326 0.539258H8.61134V1.04496H9.06016C9.10403 1.04496 9.13842 1.06291 9.1634 1.09882C9.18833 1.13472 9.20082 1.17766 9.20082 1.22748C9.20082 1.27341 9.18885 1.31425 9.16491 1.35016C9.14097 1.38607 9.10606 1.40402 9.06019 1.40402H8.61136V1.91271H9.41329C9.45713 1.91271 9.49155 1.93267 9.5165 1.97256C9.54143 2.01247 9.55392 2.06133 9.55392 2.11917C9.55392 2.17303 9.54195 2.21992 9.51801 2.2598C9.49408 2.29974 9.45916 2.31965 9.41329 2.31965H8.34803C8.29216 2.31965 8.24426 2.30721 8.2044 2.28223C8.16446 2.25736 8.14453 2.22198 8.14453 2.17605Z" fill="url(#paint40_linear_150_650)"/>
<path d="M9.75732 2.17605V0.272956C9.75732 0.227085 9.78025 0.192167 9.82614 0.16823C9.87201 0.144293 9.92686 0.132324 9.99071 0.132324C10.0545 0.132324 10.1094 0.144293 10.1553 0.16823C10.2012 0.192167 10.2241 0.227085 10.2241 0.272956V1.91274H10.9063C10.9482 1.91274 10.9811 1.9327 11.0051 1.97258C11.029 2.0125 11.041 2.06037 11.041 2.11621C11.041 2.1721 11.029 2.21997 11.0051 2.25986C10.9811 2.2998 10.9482 2.3197 10.9063 2.3197H9.96079C9.90493 2.3197 9.85703 2.30727 9.81717 2.28229C9.77725 2.25736 9.75732 2.22198 9.75732 2.17605Z" fill="url(#paint41_linear_150_650)"/>
<path d="M11.2281 3.13112H2.77204C2.69677 3.13112 2.63574 3.0701 2.63574 2.99483V2.62946C2.63574 2.55419 2.69677 2.49316 2.77204 2.49316H11.2281C11.3034 2.49316 11.3644 2.55419 11.3644 2.62946V2.99483C11.3644 3.0701 11.3034 3.13112 11.2281 3.13112Z" fill="url(#paint42_linear_150_650)"/>
<path d="M5.35922 4.18799H4.06655C4.03932 4.18799 4.01335 4.19359 3.98975 4.20366L5.53974 5.75365C5.54981 5.73005 5.55544 5.70411 5.55544 5.67685V4.38418C5.55544 4.276 5.4674 4.18799 5.35922 4.18799Z" fill="url(#paint43_linear_150_650)"/>
<path d="M7.64633 4.18799H7V5.87304H7.64633C7.75452 5.87304 7.84255 5.78503 7.84255 5.67685V4.38418C7.84255 4.276 7.75452 4.18799 7.64633 4.18799Z" fill="url(#paint44_linear_150_650)"/>
<path d="M2.15217 6.2583C2.37115 6.2583 2.54928 6.43646 2.54928 6.65543V7.9481C2.54928 8.16705 2.37112 8.34521 2.15217 8.34521H0.859508C0.640532 8.34521 0.462402 8.16705 0.462402 7.9481V6.65543C0.462402 6.43646 0.640559 6.2583 0.859508 6.2583H2.15217Z" fill="url(#paint45_linear_150_650)"/>
<path d="M2.15217 8.52881C2.37115 8.52881 2.54928 8.70697 2.54928 8.92591V10.2186C2.54928 10.4376 2.37112 10.6157 2.15217 10.6157H0.859508C0.640532 10.6157 0.462402 10.4376 0.462402 10.2186V8.92591C0.462402 8.70697 0.640559 8.52881 0.859508 8.52881H2.15217Z" fill="url(#paint46_linear_150_650)"/>
<path d="M2.15217 10.7993C2.37115 10.7993 2.54928 10.9775 2.54928 11.1964V12.4891C2.54928 12.708 2.37112 12.8862 2.15217 12.8862H0.859508C0.640532 12.8862 0.462402 12.708 0.462402 12.4891V11.1964C0.462402 10.9775 0.640559 10.7993 0.859508 10.7993H2.15217Z" fill="url(#paint47_linear_150_650)"/>
<path d="M0.859306 12.6851C0.751121 12.6851 0.663086 12.597 0.663086 12.4889V11.1962C0.663086 11.088 0.751094 11 0.859306 11H2.15197C2.26016 11 2.34819 11.088 2.34819 11.1962V12.4889C2.34819 12.597 2.26018 12.6851 2.15197 12.6851H0.859306Z" fill="url(#paint48_linear_150_650)"/>
<path d="M0.859306 10.4146C0.751121 10.4146 0.663086 10.3266 0.663086 10.2184V8.92568C0.663086 8.8175 0.751094 8.72949 0.859306 8.72949H2.15197C2.26016 8.72949 2.34819 8.8175 2.34819 8.92568V10.2184C2.34819 10.3266 2.26018 10.4146 2.15197 10.4146H0.859306Z" fill="url(#paint49_linear_150_650)"/>
<path d="M0.859306 8.14404C0.751121 8.14404 0.663086 8.05603 0.663086 7.94784V6.65518C0.663086 6.54699 0.751094 6.45898 0.859306 6.45898H2.15197C2.26016 6.45898 2.34819 6.54699 2.34819 6.65518V7.94784C2.34819 8.05603 2.26018 8.14404 2.15197 8.14404H0.859306Z" fill="url(#paint50_linear_150_650)"/>
<path d="M13.1405 6.2583C13.3594 6.2583 13.5376 6.43646 13.5376 6.65543V7.9481C13.5376 8.16705 13.3594 8.34521 13.1405 8.34521H11.8478C11.6288 8.34521 11.4507 8.16705 11.4507 7.9481V6.65543C11.4507 6.43646 11.6288 6.2583 11.8478 6.2583H13.1405Z" fill="url(#paint51_linear_150_650)"/>
<path d="M13.1405 8.52881C13.3594 8.52881 13.5376 8.70697 13.5376 8.92591V10.2186C13.5376 10.4376 13.3594 10.6157 13.1405 10.6157H11.8478C11.6288 10.6157 11.4507 10.4376 11.4507 10.2186V8.92591C11.4507 8.70697 11.6288 8.52881 11.8478 8.52881H13.1405Z" fill="url(#paint52_linear_150_650)"/>
<path d="M13.1405 10.7993C13.3594 10.7993 13.5376 10.9775 13.5376 11.1964V12.4891C13.5376 12.708 13.3594 12.8862 13.1405 12.8862H11.8478C11.6288 12.8862 11.4507 12.708 11.4507 12.4891V11.1964C11.4507 10.9775 11.6288 10.7993 11.8478 10.7993H13.1405Z" fill="url(#paint53_linear_150_650)"/>
<path d="M11.8476 12.6851C11.7394 12.6851 11.6514 12.597 11.6514 12.4889V11.1962C11.6514 11.088 11.7394 11 11.8476 11H13.1403C13.2484 11 13.3365 11.088 13.3365 11.1962V12.4889C13.3365 12.597 13.2485 12.6851 13.1403 12.6851H11.8476Z" fill="url(#paint54_linear_150_650)"/>
<path d="M11.8476 10.4146C11.7394 10.4146 11.6514 10.3266 11.6514 10.2184V8.92568C11.6514 8.8175 11.7394 8.72949 11.8476 8.72949H13.1403C13.2484 8.72949 13.3365 8.8175 13.3365 8.92568V10.2184C13.3365 10.3266 13.2485 10.4146 13.1403 10.4146H11.8476Z" fill="url(#paint55_linear_150_650)"/>
<path d="M11.8476 8.14404C11.7394 8.14404 11.6514 8.05603 11.6514 7.94784V6.65518C11.6514 6.54699 11.7394 6.45898 11.8476 6.45898H13.1403C13.2484 6.45898 13.3365 6.54699 13.3365 6.65518V7.94784C13.3365 8.05603 13.2485 8.14404 13.1403 8.14404H11.8476Z" fill="url(#paint56_linear_150_650)"/>
<path d="M11.7172 6.50879C11.6769 6.54475 11.6514 6.59688 11.6514 6.65499V7.94766C11.6514 8.05584 11.7394 8.14385 11.8476 8.14385H13.1403C13.1983 8.14385 13.2504 8.11835 13.2864 8.07813L11.7172 6.50879Z" fill="url(#paint57_linear_150_650)"/>
</g>
<defs>
<linearGradient id="paint0_linear_150_650" x1="0.146314" y1="7.72506" x2="3.66331" y2="12.1595" gradientUnits="userSpaceOnUse">
<stop stop-color="#4A98F7"/>
<stop offset="1" stop-color="#0469BC"/>
</linearGradient>
<linearGradient id="paint1_linear_150_650" x1="10.7237" y1="8.45429" x2="14.0381" y2="11.7687" gradientUnits="userSpaceOnUse">
<stop stop-color="#4A98F7"/>
<stop offset="1" stop-color="#0469BC"/>
</linearGradient>
<linearGradient id="paint2_linear_150_650" x1="13.3" y1="9.87016" x2="9.08368" y2="9.87016" gradientUnits="userSpaceOnUse">
<stop stop-color="#0469BC" stop-opacity="0"/>
<stop offset="1" stop-color="#0469BC"/>
</linearGradient>
<linearGradient id="paint3_linear_150_650" x1="3.94583" y1="5.38267" x2="14.4436" y2="15.8805" gradientUnits="userSpaceOnUse">
<stop stop-color="#4A98F7"/>
<stop offset="1" stop-color="#0469BC"/>
</linearGradient>
<linearGradient id="paint4_linear_150_650" x1="5.89961" y1="7.87899" x2="0.438511" y2="4.07914" gradientUnits="userSpaceOnUse">
<stop stop-color="#18CFFC" stop-opacity="0"/>
<stop offset="1" stop-color="#65E1DC"/>
</linearGradient>
<linearGradient id="paint5_linear_150_650" x1="10.2964" y1="5.5046" x2="7.06288" y2="3.98656" gradientUnits="userSpaceOnUse">
<stop stop-color="#4A98F7"/>
<stop offset="1" stop-color="#0469BC"/>
</linearGradient>
<linearGradient id="paint6_linear_150_650" x1="10.2964" y1="7.7756" x2="7.06288" y2="6.25756" gradientUnits="userSpaceOnUse">
<stop stop-color="#4A98F7"/>
<stop offset="1" stop-color="#0469BC"/>
</linearGradient>
<linearGradient id="paint7_linear_150_650" x1="10.2964" y1="10.0461" x2="7.06288" y2="8.52804" gradientUnits="userSpaceOnUse">
<stop stop-color="#4A98F7"/>
<stop offset="1" stop-color="#0469BC"/>
</linearGradient>
<linearGradient id="paint8_linear_150_650" x1="5.72173" y1="5.5046" x2="2.48817" y2="3.98656" gradientUnits="userSpaceOnUse">
<stop stop-color="#4A98F7"/>
<stop offset="1" stop-color="#0469BC"/>
</linearGradient>
<linearGradient id="paint9_linear_150_650" x1="5.72173" y1="7.7756" x2="2.48817" y2="6.25756" gradientUnits="userSpaceOnUse">
<stop stop-color="#4A98F7"/>
<stop offset="1" stop-color="#0469BC"/>
</linearGradient>
<linearGradient id="paint10_linear_150_650" x1="5.72222" y1="10.0461" x2="2.48866" y2="8.52804" gradientUnits="userSpaceOnUse">
<stop stop-color="#4A98F7"/>
<stop offset="1" stop-color="#0469BC"/>
</linearGradient>
<linearGradient id="paint11_linear_150_650" x1="8.00884" y1="5.5046" x2="4.77528" y2="3.98656" gradientUnits="userSpaceOnUse">
<stop stop-color="#4A98F7"/>
<stop offset="1" stop-color="#0469BC"/>
</linearGradient>
<linearGradient id="paint12_linear_150_650" x1="8.00884" y1="7.7756" x2="4.77528" y2="6.25756" gradientUnits="userSpaceOnUse">
<stop stop-color="#4A98F7"/>
<stop offset="1" stop-color="#0469BC"/>
</linearGradient>
<linearGradient id="paint13_linear_150_650" x1="8.00933" y1="10.0461" x2="4.77577" y2="8.52804" gradientUnits="userSpaceOnUse">
<stop stop-color="#4A98F7"/>
<stop offset="1" stop-color="#0469BC"/>
</linearGradient>
<linearGradient id="paint14_linear_150_650" x1="7.3799" y1="4.94365" x2="6.45623" y2="0.387859" gradientUnits="userSpaceOnUse">
<stop stop-color="#0469BC" stop-opacity="0"/>
<stop offset="1" stop-color="#0469BC"/>
</linearGradient>
<linearGradient id="paint15_linear_150_650" x1="8.48867" y1="7.614" x2="3.48243" y2="0.166714" gradientUnits="userSpaceOnUse">
<stop stop-color="#0469BC" stop-opacity="0"/>
<stop offset="1" stop-color="#0469BC"/>
</linearGradient>
<linearGradient id="paint16_linear_150_650" x1="8.43719" y1="13.5251" x2="7.91397" y2="11.5941" gradientUnits="userSpaceOnUse">
<stop stop-color="#0469BC" stop-opacity="0"/>
<stop offset="1" stop-color="#0469BC"/>
</linearGradient>
<linearGradient id="paint17_linear_150_650" x1="5.48585" y1="11.9725" x2="10.3368" y2="14.2498" gradientUnits="userSpaceOnUse">
<stop stop-color="#F9F7FC"/>
<stop offset="1" stop-color="#F0DDFC"/>
</linearGradient>
<linearGradient id="paint18_linear_150_650" x1="7.41154" y1="12.9361" x2="6.38567" y2="9.61874" gradientUnits="userSpaceOnUse">
<stop stop-color="#F0DDFC" stop-opacity="0"/>
<stop offset="0.2889" stop-color="#C8B7E0" stop-opacity="0.289"/>
<stop offset="0.5915" stop-color="#A595C8" stop-opacity="0.592"/>
<stop offset="0.8395" stop-color="#8F81B8" stop-opacity="0.84"/>
<stop offset="1" stop-color="#8779B3"/>
</linearGradient>
<linearGradient id="paint19_linear_150_650" x1="7.08249" y1="13.0027" x2="6.46976" y2="11.7517" gradientUnits="userSpaceOnUse">
<stop stop-color="#E9EDF5" stop-opacity="0"/>
<stop offset="1" stop-color="white"/>
</linearGradient>
<linearGradient id="paint20_linear_150_650" x1="7.89998" y1="12.7259" x2="5.26304" y2="11.9035" gradientUnits="userSpaceOnUse">
<stop stop-color="#F0DDFC" stop-opacity="0"/>
<stop offset="0.2889" stop-color="#C8B7E0" stop-opacity="0.289"/>
<stop offset="0.5915" stop-color="#A595C8" stop-opacity="0.592"/>
<stop offset="0.8395" stop-color="#8F81B8" stop-opacity="0.84"/>
<stop offset="1" stop-color="#8779B3"/>
</linearGradient>
<linearGradient id="paint21_linear_150_650" x1="6.99977" y1="11.1849" x2="6.99977" y2="11.5602" gradientUnits="userSpaceOnUse">
<stop stop-color="#FFDA45"/>
<stop offset="1" stop-color="#FFA425"/>
</linearGradient>
<linearGradient id="paint22_linear_150_650" x1="3.86465" y1="9.1739" x2="6.5814" y2="10.4493" gradientUnits="userSpaceOnUse">
<stop stop-color="#F9F7FC"/>
<stop offset="1" stop-color="#F0DDFC"/>
</linearGradient>
<linearGradient id="paint23_linear_150_650" x1="3.86465" y1="6.90339" x2="6.5814" y2="8.17879" gradientUnits="userSpaceOnUse">
<stop stop-color="#F9F7FC"/>
<stop offset="1" stop-color="#F0DDFC"/>
</linearGradient>
<linearGradient id="paint24_linear_150_650" x1="3.86468" y1="4.63239" x2="6.5814" y2="5.90779" gradientUnits="userSpaceOnUse">
<stop stop-color="#F9F7FC"/>
<stop offset="1" stop-color="#F0DDFC"/>
</linearGradient>
<linearGradient id="paint25_linear_150_650" x1="8.43887" y1="9.1739" x2="11.1556" y2="10.4493" gradientUnits="userSpaceOnUse">
<stop stop-color="#F9F7FC"/>
<stop offset="1" stop-color="#F0DDFC"/>
</linearGradient>
<linearGradient id="paint26_linear_150_650" x1="8.43887" y1="6.90339" x2="11.1556" y2="8.17879" gradientUnits="userSpaceOnUse">
<stop stop-color="#F9F7FC"/>
<stop offset="1" stop-color="#F0DDFC"/>
</linearGradient>
<linearGradient id="paint27_linear_150_650" x1="8.4389" y1="4.63239" x2="11.1556" y2="5.90779" gradientUnits="userSpaceOnUse">
<stop stop-color="#F9F7FC"/>
<stop offset="1" stop-color="#F0DDFC"/>
</linearGradient>
<linearGradient id="paint28_linear_150_650" x1="6.15176" y1="9.1739" x2="8.86851" y2="10.4493" gradientUnits="userSpaceOnUse">
<stop stop-color="#F9F7FC"/>
<stop offset="1" stop-color="#F0DDFC"/>
</linearGradient>
<linearGradient id="paint29_linear_150_650" x1="6.15176" y1="6.90339" x2="8.8685" y2="8.17879" gradientUnits="userSpaceOnUse">
<stop stop-color="#F9F7FC"/>
<stop offset="1" stop-color="#F0DDFC"/>
</linearGradient>
<linearGradient id="paint30_linear_150_650" x1="6.15179" y1="4.63239" x2="8.86851" y2="5.90779" gradientUnits="userSpaceOnUse">
<stop stop-color="#F9F7FC"/>
<stop offset="1" stop-color="#F0DDFC"/>
</linearGradient>
<linearGradient id="paint31_linear_150_650" x1="3.08344" y1="2.44517" x2="3.28438" y2="2.44517" gradientUnits="userSpaceOnUse">
<stop stop-color="#7E8595"/>
<stop offset="1" stop-color="#555A66"/>
</linearGradient>
<linearGradient id="paint32_linear_150_650" x1="4.13032" y1="2.44517" x2="4.33126" y2="2.44517" gradientUnits="userSpaceOnUse">
<stop stop-color="#7E8595"/>
<stop offset="1" stop-color="#555A66"/>
</linearGradient>
<linearGradient id="paint33_linear_150_650" x1="5.40766" y1="2.44517" x2="5.6086" y2="2.44517" gradientUnits="userSpaceOnUse">
<stop stop-color="#7E8595"/>
<stop offset="1" stop-color="#555A66"/>
</linearGradient>
<linearGradient id="paint34_linear_150_650" x1="7.05805" y1="2.44517" x2="7.25899" y2="2.44517" gradientUnits="userSpaceOnUse">
<stop stop-color="#7E8595"/>
<stop offset="1" stop-color="#555A66"/>
</linearGradient>
<linearGradient id="paint35_linear_150_650" x1="8.73481" y1="2.44517" x2="8.93575" y2="2.44517" gradientUnits="userSpaceOnUse">
<stop stop-color="#7E8595"/>
<stop offset="1" stop-color="#555A66"/>
</linearGradient>
<linearGradient id="paint36_linear_150_650" x1="10.2851" y1="2.44517" x2="10.486" y2="2.44517" gradientUnits="userSpaceOnUse">
<stop stop-color="#7E8595"/>
<stop offset="1" stop-color="#555A66"/>
</linearGradient>
<linearGradient id="paint37_linear_150_650" x1="3.72349" y1="0.425418" x2="3.72349" y2="4.23084" gradientUnits="userSpaceOnUse">
<stop stop-color="#FF7044"/>
<stop offset="1" stop-color="#F92814"/>
</linearGradient>
<linearGradient id="paint38_linear_150_650" x1="5.52173" y1="0.425418" x2="5.52173" y2="4.23084" gradientUnits="userSpaceOnUse">
<stop stop-color="#FF7044"/>
<stop offset="1" stop-color="#F92814"/>
</linearGradient>
<linearGradient id="paint39_linear_150_650" x1="7.17222" y1="0.425418" x2="7.17222" y2="4.23084" gradientUnits="userSpaceOnUse">
<stop stop-color="#FF7044"/>
<stop offset="1" stop-color="#F92814"/>
</linearGradient>
<linearGradient id="paint40_linear_150_650" x1="8.84923" y1="0.425418" x2="8.84923" y2="4.23084" gradientUnits="userSpaceOnUse">
<stop stop-color="#FF7044"/>
<stop offset="1" stop-color="#F92814"/>
</linearGradient>
<linearGradient id="paint41_linear_150_650" x1="10.3992" y1="0.425418" x2="10.3992" y2="4.23084" gradientUnits="userSpaceOnUse">
<stop stop-color="#FF7044"/>
<stop offset="1" stop-color="#F92814"/>
</linearGradient>
<linearGradient id="paint42_linear_150_650" x1="7.00006" y1="2.53472" x2="7.00006" y2="3.58286" gradientUnits="userSpaceOnUse">
<stop stop-color="#FFDA45"/>
<stop offset="1" stop-color="#FFA425"/>
</linearGradient>
<linearGradient id="paint43_linear_150_650" x1="5.85949" y1="5.69345" x2="2.79061" y2="1.64883" gradientUnits="userSpaceOnUse">
<stop stop-color="#F0DDFC" stop-opacity="0"/>
<stop offset="0.2889" stop-color="#C8B7E0" stop-opacity="0.289"/>
<stop offset="0.5915" stop-color="#A595C8" stop-opacity="0.592"/>
<stop offset="0.8395" stop-color="#8F81B8" stop-opacity="0.84"/>
<stop offset="1" stop-color="#8779B3"/>
</linearGradient>
<linearGradient id="paint44_linear_150_650" x1="7.52805" y1="5.67687" x2="6.79851" y2="1.86698" gradientUnits="userSpaceOnUse">
<stop stop-color="#F0DDFC" stop-opacity="0"/>
<stop offset="0.2889" stop-color="#C8B7E0" stop-opacity="0.289"/>
<stop offset="0.5915" stop-color="#A595C8" stop-opacity="0.592"/>
<stop offset="0.8395" stop-color="#8F81B8" stop-opacity="0.84"/>
<stop offset="1" stop-color="#8779B3"/>
</linearGradient>
<linearGradient id="paint45_linear_150_650" x1="2.51519" y1="7.7756" x2="-0.718402" y2="6.25756" gradientUnits="userSpaceOnUse">
<stop stop-color="#4A98F7"/>
<stop offset="1" stop-color="#0469BC"/>
</linearGradient>
<linearGradient id="paint46_linear_150_650" x1="2.51519" y1="10.0461" x2="-0.718402" y2="8.52807" gradientUnits="userSpaceOnUse">
<stop stop-color="#4A98F7"/>
<stop offset="1" stop-color="#0469BC"/>
</linearGradient>
<linearGradient id="paint47_linear_150_650" x1="2.51516" y1="12.3166" x2="-0.718402" y2="10.7985" gradientUnits="userSpaceOnUse">
<stop stop-color="#4A98F7"/>
<stop offset="1" stop-color="#0469BC"/>
</linearGradient>
<linearGradient id="paint48_linear_150_650" x1="0.657623" y1="11.4444" x2="3.37434" y2="12.7198" gradientUnits="userSpaceOnUse">
<stop stop-color="#F9F7FC"/>
<stop offset="1" stop-color="#F0DDFC"/>
</linearGradient>
<linearGradient id="paint49_linear_150_650" x1="0.657623" y1="9.1739" x2="3.37434" y2="10.4493" gradientUnits="userSpaceOnUse">
<stop stop-color="#F9F7FC"/>
<stop offset="1" stop-color="#F0DDFC"/>
</linearGradient>
<linearGradient id="paint50_linear_150_650" x1="0.657623" y1="6.90339" x2="3.37434" y2="8.17879" gradientUnits="userSpaceOnUse">
<stop stop-color="#F9F7FC"/>
<stop offset="1" stop-color="#F0DDFC"/>
</linearGradient>
<linearGradient id="paint51_linear_150_650" x1="13.5035" y1="7.7756" x2="10.2699" y2="6.25756" gradientUnits="userSpaceOnUse">
<stop stop-color="#4A98F7"/>
<stop offset="1" stop-color="#0469BC"/>
</linearGradient>
<linearGradient id="paint52_linear_150_650" x1="13.5035" y1="10.0461" x2="10.2699" y2="8.52807" gradientUnits="userSpaceOnUse">
<stop stop-color="#4A98F7"/>
<stop offset="1" stop-color="#0469BC"/>
</linearGradient>
<linearGradient id="paint53_linear_150_650" x1="13.5035" y1="12.3166" x2="10.2699" y2="10.7985" gradientUnits="userSpaceOnUse">
<stop stop-color="#4A98F7"/>
<stop offset="1" stop-color="#0469BC"/>
</linearGradient>
<linearGradient id="paint54_linear_150_650" x1="11.6459" y1="11.4444" x2="14.3626" y2="12.7198" gradientUnits="userSpaceOnUse">
<stop stop-color="#F9F7FC"/>
<stop offset="1" stop-color="#F0DDFC"/>
</linearGradient>
<linearGradient id="paint55_linear_150_650" x1="11.6459" y1="9.1739" x2="14.3626" y2="10.4493" gradientUnits="userSpaceOnUse">
<stop stop-color="#F9F7FC"/>
<stop offset="1" stop-color="#F0DDFC"/>
</linearGradient>
<linearGradient id="paint56_linear_150_650" x1="11.6459" y1="6.90339" x2="14.3626" y2="8.17879" gradientUnits="userSpaceOnUse">
<stop stop-color="#F9F7FC"/>
<stop offset="1" stop-color="#F0DDFC"/>
</linearGradient>
<linearGradient id="paint57_linear_150_650" x1="12.9415" y1="8.58013" x2="9.34562" y2="4.54802" gradientUnits="userSpaceOnUse">
<stop stop-color="#F0DDFC" stop-opacity="0"/>
<stop offset="0.2889" stop-color="#C8B7E0" stop-opacity="0.289"/>
<stop offset="0.5915" stop-color="#A595C8" stop-opacity="0.592"/>
<stop offset="0.8395" stop-color="#8F81B8" stop-opacity="0.84"/>
<stop offset="1" stop-color="#8779B3"/>
</linearGradient>
<clipPath id="clip0_150_650">
<rect width="14" height="14" fill="white"/>
</clipPath>
</defs>
</svg>
