<svg width="69" height="69" viewBox="0 0 69 69" fill="none" xmlns="http://www.w3.org/2000/svg">
<path d="M48.7259 57.9564C45.9252 60.6714 42.8673 60.2427 39.9238 58.9567C36.8087 57.6421 33.9509 57.5849 30.6644 58.9567C26.5492 60.7285 24.3772 60.2141 21.9195 57.9564C7.9733 43.5816 10.0309 21.6906 25.8633 20.8905C29.7213 21.0905 32.4077 23.0052 34.6654 23.1767C38.0376 22.4908 41.2669 20.5189 44.8678 20.7761C49.1831 21.1191 52.441 22.8338 54.5844 25.9202C45.668 31.2644 47.7828 43.01 55.9562 46.2965C54.3272 50.5832 52.2124 54.8414 48.6973 57.985L48.7259 57.9564ZM34.3796 20.719C33.9509 14.346 39.1236 9.08765 45.0678 8.57324C45.8966 15.9464 38.3805 21.4334 34.3796 20.719Z" fill="white"/>
</svg>
