<svg width="36" height="44" viewBox="0 0 36 44" fill="none" xmlns="http://www.w3.org/2000/svg">
<path d="M23.8293 18.8892V27.7988C23.8293 28.6439 23.7554 29.5002 23.4214 30.2766C21.8721 33.8779 18.386 34.0398 16.5105 33.5801C20.2613 37.1554 24.6377 38.4056 27.4425 38.6914C28.6787 38.8174 29.942 38.5209 30.8979 37.7269C33.7993 35.317 34.5789 31.1245 34.5789 29.0716V18.8905C34.5789 16.7143 34.0129 14.3802 32.1573 13.2433C30.1431 12.0092 28.1595 12.3003 26.5598 13.1196C24.5182 14.1653 23.8293 16.5954 23.8293 18.8892Z" fill="#1A3047"/>
<path d="M16.2817 33.5187C16.3549 33.5402 16.4313 33.5607 16.5105 33.5801M16.5105 33.5801C18.386 34.0398 21.8721 33.8779 23.4214 30.2766C23.7554 29.5002 23.8293 28.6439 23.8293 27.7988V18.8892C23.8293 16.5954 24.5182 14.1653 26.5598 13.1196C28.1595 12.3003 30.1431 12.0092 32.1573 13.2433C34.0129 14.3802 34.5789 16.7143 34.5789 18.8905V29.0716C34.5789 31.1245 33.7993 35.317 30.8979 37.7269C29.942 38.5209 28.6787 38.8174 27.4425 38.6914C24.6377 38.4056 20.2613 37.1554 16.5105 33.5801Z" stroke="#1A3047"/>
<path d="M0.5 21.4789V28.7069C0.5 30.7428 0.719778 32.8215 1.69278 34.6098C7.80292 45.84 25.4855 43.4569 34.3498 40.5552C22.4755 42.2354 15.6182 36.8046 12.5568 32.2245C11.3272 30.3848 11.0021 28.1361 10.9652 25.9237L10.8928 21.577C10.8276 17.6613 8.59499 11.9746 4.73973 12.6627C0.827506 13.361 0.5 17.5049 0.5 21.4789Z" fill="#1A3047"/>
<path d="M34.5785 40.4796C34.503 40.5049 34.4267 40.5301 34.3498 40.5552M34.3498 40.5552C25.4855 43.4569 7.80292 45.84 1.69278 34.6098C0.719778 32.8215 0.5 30.7428 0.5 28.7069V21.4789C0.5 17.5049 0.827506 13.361 4.73973 12.6627C8.59499 11.9746 10.8276 17.6613 10.8928 21.577L10.9652 25.9237C11.0021 28.1361 11.3272 30.3848 12.5568 32.2245C15.6182 36.8046 22.4755 42.2354 34.3498 40.5552Z" stroke="#1A3047"/>
<circle cx="4.91977" cy="4.55185" r="4.55185" fill="#E87D1E"/>
<circle cx="28.954" cy="4.55185" r="4.55185" fill="#E87D1E"/>
</svg>
