<svg width="131" height="100" viewBox="0 0 131 100" fill="none" xmlns="http://www.w3.org/2000/svg">
<path d="M31.1308 89.8106V84.0737C31.1308 81.8792 29.8393 80.4422 27.6223 80.4422C26.5138 80.4422 25.3084 80.8209 24.4798 82.0686C23.834 81.0214 22.9085 80.4422 21.5201 80.4422C20.5946 80.4422 19.669 80.7318 18.9372 81.7789V80.6315H17V89.8106H18.9372V84.7421C18.9372 83.1157 19.7659 82.347 21.0574 82.347C22.3488 82.347 22.9946 83.2048 22.9946 84.7421V89.8106H24.9318V84.7421C24.9318 83.1157 25.8573 82.347 27.0519 82.347C28.3434 82.347 28.9891 83.2048 28.9891 84.7421V89.8106H31.1308ZM59.866 80.6315H56.7234V77.8578H54.7862V80.6315H53.032V82.4473H54.7862V86.6581C54.7862 88.7635 55.6149 90 57.8319 90C58.6606 90 59.5862 89.7104 60.2319 89.3316L59.6723 87.605C59.1126 87.9837 58.4669 88.084 58.0041 88.084C57.0786 88.084 56.7126 87.5047 56.7126 86.5578V82.4473H59.8552V80.6315H59.866ZM76.3107 80.431C75.2022 80.431 74.4596 81.0103 73.9968 81.7678V80.6204H72.0596V89.7995H73.9968V84.6307C73.9968 83.1045 74.6425 82.2356 75.8479 82.2356C76.2138 82.2356 76.6766 82.3359 77.0533 82.425L77.6129 80.509C77.2255 80.431 76.6766 80.431 76.3107 80.431ZM51.4607 81.389C50.5351 80.7207 49.2436 80.431 47.8553 80.431C45.6383 80.431 44.1639 81.5784 44.1639 83.3942C44.1639 84.9203 45.2724 85.7892 47.2096 86.0677L48.1351 86.1679C49.1468 86.3573 49.7064 86.647 49.7064 87.126C49.7064 87.7943 48.9638 88.2734 47.6724 88.2734C46.3809 88.2734 45.3585 87.7943 44.7127 87.3153L43.7872 88.8415C44.7988 89.6101 46.1872 89.9889 47.5755 89.9889C50.1584 89.9889 51.6436 88.7412 51.6436 87.0257C51.6436 85.3993 50.4383 84.5416 48.5979 84.2519L47.6724 84.1517C46.8437 84.0514 46.1979 83.862 46.1979 83.2939C46.1979 82.6255 46.8437 82.2468 47.8661 82.2468C48.9746 82.2468 50.0831 82.7258 50.6427 83.0154L51.4607 81.389ZM103.001 80.431C101.892 80.431 101.15 81.0103 100.687 81.7678V80.6204H98.7499V89.7995H100.687V84.6307C100.687 83.1045 101.333 82.2356 102.538 82.2356C102.904 82.2356 103.367 82.3359 103.744 82.425L104.303 80.5313C103.927 80.431 103.378 80.431 103.001 80.431ZM78.2479 85.2211C78.2479 87.9949 80.099 90 82.9617 90C84.2532 90 85.1787 89.7104 86.1043 88.9529L85.1787 87.3265C84.4361 87.9057 83.7043 88.1842 82.8649 88.1842C81.2936 88.1842 80.1851 87.0368 80.1851 85.2211C80.1851 83.4944 81.2936 82.347 82.8649 82.2579C83.6936 82.2579 84.4361 82.5476 85.1787 83.1157L86.1043 81.4893C85.1787 80.7206 84.2532 80.4422 82.9617 80.4422C80.099 80.431 78.2479 82.4473 78.2479 85.2211ZM96.167 85.2211V80.6315H94.2298V81.7789C93.5841 80.9212 92.6585 80.4422 91.4531 80.4422C88.9563 80.4422 87.0191 82.4473 87.0191 85.2211C87.0191 87.9949 88.9563 90 91.4531 90C92.7446 90 93.6702 89.521 94.2298 88.6632V89.8106H96.167V85.2211ZM89.0531 85.2211C89.0531 83.5947 90.0648 82.2579 91.7329 82.2579C93.3042 82.2579 94.4127 83.5056 94.4127 85.2211C94.4127 86.8475 93.3042 88.1842 91.7329 88.1842C90.0756 88.084 89.0531 86.8363 89.0531 85.2211ZM65.8713 80.431C63.2884 80.431 61.4373 82.347 61.4373 85.2099C61.4373 88.084 63.2884 89.9889 65.9682 89.9889C67.2596 89.9889 68.5511 89.6101 69.5735 88.7412L68.648 87.3042C67.9054 87.8835 66.9798 88.2622 66.065 88.2622C64.8596 88.2622 63.665 87.6829 63.3852 86.0677H69.9394C69.9394 85.7781 69.9394 85.5887 69.9394 85.2991C70.0255 82.347 68.3574 80.431 65.8713 80.431ZM65.8713 82.1577C67.0767 82.1577 67.9054 82.9263 68.0883 84.3522H63.4713C63.6543 83.1157 64.483 82.1577 65.8713 82.1577ZM114 85.2211V77H112.063V81.7789C111.417 80.9212 110.492 80.4422 109.286 80.4422C106.789 80.4422 104.852 82.4473 104.852 85.2211C104.852 87.9949 106.789 90 109.286 90C110.578 90 111.503 89.521 112.063 88.6632V89.8106H114V85.2211ZM106.886 85.2211C106.886 83.5947 107.898 82.2579 109.566 82.2579C111.137 82.2579 112.246 83.5056 112.246 85.2211C112.246 86.8475 111.137 88.1842 109.566 88.1842C107.898 88.084 106.886 86.8363 106.886 85.2211ZM42.033 85.2211V80.6315H40.0958V81.7789C39.45 80.9212 38.5245 80.4422 37.3191 80.4422C34.8223 80.4422 32.8851 82.4473 32.8851 85.2211C32.8851 87.9949 34.8223 90 37.3191 90C38.6106 90 39.5361 89.521 40.0958 88.6632V89.8106H42.033V85.2211ZM34.833 85.2211C34.833 83.5947 35.8447 82.2579 37.5128 82.2579C39.0841 82.2579 40.1926 83.5056 40.1926 85.2211C40.1926 86.8475 39.0841 88.1842 37.5128 88.1842C35.8447 88.084 34.833 86.8363 34.833 85.2211Z" fill="black"/>
<path d="M75.0785 22.8545H55.8647V56.7845H75.0785V22.8545Z" fill="#FF5A00"/>
<path d="M57.1438 39.8194C57.1438 32.9259 60.4408 26.8076 65.5 22.8544C61.7767 19.9769 57.0798 18.2378 51.9566 18.2378C39.8201 18.2378 30 27.8902 30 39.8194C30 51.7487 39.8201 61.4011 51.9566 61.4011C57.0798 61.4011 61.7767 59.662 65.5 56.7844C60.4337 52.8872 57.1438 46.713 57.1438 39.8194Z" fill="#EB001B"/>
<path d="M101 39.8194C101 51.7487 91.18 61.4011 79.0435 61.4011C73.9202 61.4011 69.2234 59.662 65.5 56.7844C70.6232 52.8243 73.8563 46.713 73.8563 39.8194C73.8563 32.9259 70.5593 26.8076 65.5 22.8544C69.2163 19.9769 73.9131 18.2378 79.0363 18.2378C91.18 18.2378 101 27.953 101 39.8194Z" fill="#F79E1B"/>
</svg>
