<svg width="32" height="32" viewBox="0 0 32 32" fill="none" xmlns="http://www.w3.org/2000/svg">
<path d="M2.6665 25.3333V22.6667H15.9998V25.3333H2.6665ZM2.6665 18.6667V16H9.33317V18.6667H2.6665ZM2.6665 12V9.33333H9.33317V12H2.6665ZM27.4665 25.3333L22.3332 20.2C21.7998 20.5778 21.2167 20.8613 20.5838 21.0507C19.9509 21.24 19.3118 21.3342 18.6665 21.3333C16.8221 21.3333 15.2501 20.6831 13.9505 19.3827C12.6509 18.0822 12.0007 16.5102 11.9998 14.6667C11.9989 12.8231 12.6492 11.2511 13.9505 9.95067C15.2518 8.65022 16.8238 8 18.6665 8C20.5092 8 22.0816 8.65022 23.3838 9.95067C24.6861 11.2511 25.3358 12.8231 25.3332 14.6667C25.3332 15.3111 25.2385 15.9502 25.0492 16.584C24.8598 17.2178 24.5767 17.8009 24.1998 18.3333L29.3332 23.4667L27.4665 25.3333ZM18.6665 18.6667C19.7776 18.6667 20.7221 18.2778 21.4998 17.5C22.2776 16.7222 22.6665 15.7778 22.6665 14.6667C22.6665 13.5556 22.2776 12.6111 21.4998 11.8333C20.7221 11.0556 19.7776 10.6667 18.6665 10.6667C17.5554 10.6667 16.6109 11.0556 15.8332 11.8333C15.0554 12.6111 14.6665 13.5556 14.6665 14.6667C14.6665 15.7778 15.0554 16.7222 15.8332 17.5C16.6109 18.2778 17.5554 18.6667 18.6665 18.6667Z" fill="white"/>
</svg>
