<svg width="43" height="43" viewBox="0 0 43 43" fill="none" xmlns="http://www.w3.org/2000/svg">
<path d="M21.4999 24.0083L12.7208 32.7874C12.3923 33.1159 11.9742 33.2801 11.4666 33.2801C10.959 33.2801 10.5409 33.1159 10.2124 32.7874C9.88396 32.459 9.71973 32.0409 9.71973 31.5333C9.71973 31.0256 9.88396 30.6076 10.2124 30.2791L18.9916 21.4999L10.2124 12.7208C9.88396 12.3923 9.71973 11.9742 9.71973 11.4666C9.71973 10.959 9.88396 10.5409 10.2124 10.2124C10.5409 9.88396 10.959 9.71973 11.4666 9.71973C11.9742 9.71973 12.3923 9.88396 12.7208 10.2124L21.4999 18.9916L30.2791 10.2124C30.6076 9.88396 31.0256 9.71973 31.5333 9.71973C32.0409 9.71973 32.459 9.88396 32.7874 10.2124C33.1159 10.5409 33.2801 10.959 33.2801 11.4666C33.2801 11.9742 33.1159 12.3923 32.7874 12.7208L24.0083 21.4999L32.7874 30.2791C33.1159 30.6076 33.2801 31.0256 33.2801 31.5333C33.2801 32.0409 33.1159 32.459 32.7874 32.7874C32.459 33.1159 32.0409 33.2801 31.5333 33.2801C31.0256 33.2801 30.6076 33.1159 30.2791 32.7874L21.4999 24.0083Z" fill="#1A3047"/>
</svg>
