<svg width="26" height="26" viewBox="0 0 26 26" fill="none" xmlns="http://www.w3.org/2000/svg">
<path d="M13.0002 4.33325C14.1494 4.33325 15.2516 4.7898 16.0643 5.60246C16.877 6.41511 17.3335 7.51731 17.3335 8.66659C17.3335 9.81586 16.877 10.9181 16.0643 11.7307C15.2516 12.5434 14.1494 12.9999 13.0002 12.9999C11.8509 12.9999 10.7487 12.5434 9.93603 11.7307C9.12338 10.9181 8.66683 9.81586 8.66683 8.66659C8.66683 7.51731 9.12338 6.41511 9.93603 5.60246C10.7487 4.7898 11.8509 4.33325 13.0002 4.33325ZM13.0002 15.1666C17.7885 15.1666 21.6668 17.1058 21.6668 19.4999V21.6666H4.3335V19.4999C4.3335 17.1058 8.21183 15.1666 13.0002 15.1666Z" fill="white"/>
</svg>
