<svg width="43" height="43" viewBox="0 0 43 43" fill="none" xmlns="http://www.w3.org/2000/svg">
<path d="M35.8334 31.3541C36.5236 31.3544 37.1872 31.6203 37.6867 32.0966C38.1862 32.5729 38.4833 33.2231 38.5165 33.9124C38.5496 34.6018 38.3163 35.2775 37.8649 35.7996C37.4134 36.3216 36.7784 36.6499 36.0914 36.7165L35.8334 36.7291H7.16675C6.47657 36.7287 5.81297 36.4629 5.31347 35.9866C4.81397 35.5103 4.51685 34.8601 4.48368 34.1707C4.45052 33.4814 4.68384 32.8056 5.13531 32.2836C5.58678 31.7616 6.22179 31.4332 6.90875 31.3666L7.16675 31.3541H35.8334ZM35.8334 18.8124C36.5462 18.8124 37.2298 19.0956 37.7338 19.5996C38.2378 20.1036 38.5209 20.7872 38.5209 21.4999C38.5209 22.2127 38.2378 22.8963 37.7338 23.4003C37.2298 23.9043 36.5462 24.1874 35.8334 24.1874H7.16675C6.45398 24.1874 5.7704 23.9043 5.2664 23.4003C4.76239 22.8963 4.47925 22.2127 4.47925 21.4999C4.47925 20.7872 4.76239 20.1036 5.2664 19.5996C5.7704 19.0956 6.45398 18.8124 7.16675 18.8124H35.8334ZM35.8334 6.27075C36.5462 6.27075 37.2298 6.5539 37.7338 7.0579C38.2378 7.56191 38.5209 8.24548 38.5209 8.95825C38.5209 9.67102 38.2378 10.3546 37.7338 10.8586C37.2298 11.3626 36.5462 11.6458 35.8334 11.6458H7.16675C6.45398 11.6458 5.7704 11.3626 5.2664 10.8586C4.76239 10.3546 4.47925 9.67102 4.47925 8.95825C4.47925 8.24548 4.76239 7.56191 5.2664 7.0579C5.7704 6.5539 6.45398 6.27075 7.16675 6.27075H35.8334Z" fill="#1A3047"/>
</svg>
