<svg width="52" height="52" viewBox="0 0 52 52" fill="none" xmlns="http://www.w3.org/2000/svg">
<path fill-rule="evenodd" clip-rule="evenodd" d="M24.6632 50.8841V16.1616L17.4524 13.0791L5.38818 18.2361V50.8841H24.6632Z" fill="#909CD1"/>
<path fill-rule="evenodd" clip-rule="evenodd" d="M17.4521 50.8841H24.663V16.1616L17.4521 13.0791V50.8841Z" fill="#7986BF"/>
<path fill-rule="evenodd" clip-rule="evenodd" d="M46.6118 50.8828H23.4409V6.06968L35.0264 1.11719L46.6118 6.06968V50.8828Z" fill="#AEAED6"/>
<path fill-rule="evenodd" clip-rule="evenodd" d="M35.0264 50.8828H23.4409V6.06968L35.0264 1.11719V50.8828Z" fill="#D1D1F0"/>
<path fill-rule="evenodd" clip-rule="evenodd" d="M43.1062 8.91614C43.1062 8.57956 43.379 8.30676 43.7156 8.30676C44.0521 8.30676 44.3249 8.57956 44.3249 8.91614V45.1957C44.3249 45.5323 44.0521 45.8051 43.7156 45.8051C43.379 45.8051 43.1062 45.5323 43.1062 45.1957V8.91614ZM37.3135 6.43994C37.3135 6.10336 37.5863 5.83057 37.9229 5.83057C38.2594 5.83057 38.5322 6.10336 38.5322 6.43994V45.1957C38.5322 45.5323 38.2594 45.8051 37.9229 45.8051C37.5863 45.8051 37.3135 45.5323 37.3135 45.1957V6.43994ZM40.2098 7.67799C40.2098 7.34141 40.4826 7.06861 40.8192 7.06861C41.1558 7.06861 41.4286 7.34141 41.4286 7.67799V45.1957C41.4286 45.5323 41.1558 45.8051 40.8192 45.8051C40.4826 45.8051 40.2098 45.5323 40.2098 45.1957V7.67799Z" fill="#F3F3FF"/>
<path fill-rule="evenodd" clip-rule="evenodd" d="M13.6864 50.8813H9.15527V39.8121L13.6864 39.3809V50.8813Z" fill="#F3F3FF"/>
<path fill-rule="evenodd" clip-rule="evenodd" d="M29.4791 32.8201V28.3662L31.9468 27.985V32.5836L29.4791 32.8201ZM29.4791 25.8019V21.3516L31.9468 20.7426V25.3375L29.4791 25.8019ZM29.4791 18.7873V14.3334L31.9468 13.4966V18.0952L29.4791 18.7873ZM29.4791 11.7727L29.4784 7.60245L31.9467 6.54346V10.8529L29.479 11.7727H29.4791ZM25.0713 33.2395V29.0504L27.2611 28.7127V33.0297L25.0713 33.2395ZM25.0713 26.6349V22.4359L27.2619 21.8959V26.2233L25.0713 26.6349ZM25.0713 20.0272V15.8279L27.2619 15.086V19.4137L25.0713 20.0273V20.0272ZM25.0713 13.4112V9.4909L27.2625 8.55165L27.2619 12.5988L25.0713 13.4112Z" fill="#AEAED6"/>
<path fill-rule="evenodd" clip-rule="evenodd" d="M30.2047 32.7515V28.2551L32.6724 27.8739V32.5149L30.2047 32.7515ZM30.2047 25.6665V21.1736L32.6724 20.5647V25.2019L30.2047 25.6664V25.6665ZM30.2047 18.585V14.0886L32.6724 13.2519V17.8929L30.2047 18.585ZM30.2047 11.5035L30.2041 7.29239L32.6724 6.2334V10.5836L30.2047 11.5035ZM25.7969 33.1709V28.9396L27.9868 28.6019V32.9613L25.7969 33.1709ZM25.7969 26.4996V22.2581L27.9875 21.7182V26.0881L25.7969 26.4996ZM25.7969 19.8249V15.5834L27.9875 14.8415V19.2114L25.7969 19.8249ZM25.7969 13.1434V9.18094L27.9881 8.2417L27.9875 12.331L25.7969 13.1433V13.1434Z" fill="#F3F3FF"/>
<path fill-rule="evenodd" clip-rule="evenodd" d="M26.0547 50.8817V37.9699L26.9688 37.8828V50.8817H26.0547Z" fill="#AEAED6"/>
<path fill-rule="evenodd" clip-rule="evenodd" d="M31.4999 50.8813H26.9688V37.8824L31.4999 37.4512V50.8813Z" fill="#F3F3FF"/>
<path fill-rule="evenodd" clip-rule="evenodd" d="M25.5873 38.6255C25.2533 38.6569 24.9571 38.4119 24.9256 38.0779C24.8941 37.744 25.1392 37.4477 25.4731 37.4163L32.3156 36.7649C32.6495 36.7334 32.9458 36.9785 32.9772 37.3125C33.0087 37.6464 32.7637 37.9426 32.4297 37.9741L25.5873 38.6255Z" fill="#AEAED6"/>
<path fill-rule="evenodd" clip-rule="evenodd" d="M10.9086 34.0291V30.4002L12.9613 29.9766V33.7462L10.9086 34.0291ZM10.9086 28.3096V24.6795L12.9613 24.0309V27.8039L10.9086 28.3096ZM10.908 22.5913V19.1933L12.9613 18.3232V21.8606L10.908 22.5914V22.5913ZM7.30322 34.5254V31.14L9.08554 30.774V34.2814L7.30322 34.5254ZM7.30322 29.1993V25.8149L9.08554 25.2546V28.761L7.30322 29.1994V29.1993ZM7.30322 23.8685V20.7107L9.08666 19.9595L9.08615 23.2381L7.30322 23.8685Z" fill="#7986BF"/>
<path fill-rule="evenodd" clip-rule="evenodd" d="M11.5707 33.9384V30.2642L13.6234 29.8406V33.6556L11.5707 33.9384ZM11.5707 28.1472V24.4708L13.6234 23.8221V27.6415L11.5707 28.1472ZM11.5701 22.356V18.9131L13.6234 18.043V21.6252L11.5701 22.356ZM7.96533 34.4346V31.0039L9.74765 30.6378V34.1907L7.96533 34.4347V34.4346ZM7.96533 29.0368V25.606L9.74765 25.0457V28.5986L7.96533 29.0369V29.0368ZM7.96533 23.6346V20.4303L9.74877 19.679L9.74826 23.0041L7.96543 23.6345L7.96533 23.6346Z" fill="#F3F3FF"/>
<path fill-rule="evenodd" clip-rule="evenodd" d="M9.15402 50.8817H8.39697V39.8846L9.15402 39.8125V50.8817Z" fill="#7986BF"/>
<path d="M1.17285 48.3438H50.8258V50.8839H1.17285V48.3438Z" fill="#E6B17C"/>
<path d="M1.17334 49.6128H50.8263V50.8828H1.17334V49.6128Z" fill="#1A3047"/>
<path fill-rule="evenodd" clip-rule="evenodd" d="M8.33823 40.5013C8.00429 40.5328 7.70804 40.2877 7.67655 39.9538C7.64507 39.6199 7.89014 39.3236 8.22408 39.2921L14.5019 38.6946C14.8358 38.6631 15.1321 38.9082 15.1635 39.2421C15.195 39.5761 14.95 39.8723 14.616 39.9038L8.33823 40.5013Z" fill="#3D4A75"/>
</svg>
