<svg width="14" height="14" viewBox="0 0 14 14" fill="none" xmlns="http://www.w3.org/2000/svg">
<g clip-path="url(#clip0_150_631)">
<path fill-rule="evenodd" clip-rule="evenodd" d="M6.64012 13.6998V4.35139L4.69874 3.52148L1.45068 4.90992V13.6998H6.64012Z" fill="#909CD1"/>
<path fill-rule="evenodd" clip-rule="evenodd" d="M4.69873 13.6998H6.64011V4.35139L4.69873 3.52148V13.6998Z" fill="#7986BF"/>
<path fill-rule="evenodd" clip-rule="evenodd" d="M12.5493 13.6992H6.31104V1.63414L9.43019 0.300781L12.5493 1.63414V13.6992Z" fill="#AEAED6"/>
<path fill-rule="evenodd" clip-rule="evenodd" d="M9.43019 13.6992H6.31104V1.63414L9.43019 0.300781V13.6992Z" fill="#D1D1F0"/>
<path fill-rule="evenodd" clip-rule="evenodd" d="M11.6055 2.40055C11.6055 2.30994 11.6789 2.23649 11.7695 2.23649C11.8602 2.23649 11.9336 2.30994 11.9336 2.40055V12.1681C11.9336 12.2587 11.8602 12.3322 11.7695 12.3322C11.6789 12.3322 11.6055 12.2587 11.6055 12.1681V2.40055ZM10.0459 1.73389C10.0459 1.64327 10.1193 1.56982 10.21 1.56982C10.3006 1.56982 10.374 1.64327 10.374 1.73389V12.1681C10.374 12.2587 10.3006 12.3322 10.21 12.3322C10.1193 12.3322 10.0459 12.2587 10.0459 12.1681V1.73389ZM10.8257 2.06721C10.8257 1.97659 10.8991 1.90314 10.9897 1.90314C11.0804 1.90314 11.1538 1.97659 11.1538 2.06721V12.1681C11.1538 12.2587 11.0804 12.3322 10.9897 12.3322C10.8991 12.3322 10.8257 12.2587 10.8257 12.1681V2.06721Z" fill="#F3F3FF"/>
<path fill-rule="evenodd" clip-rule="evenodd" d="M3.68476 13.6988H2.46484V10.7186L3.68476 10.6025V13.6988Z" fill="#F3F3FF"/>
<path fill-rule="evenodd" clip-rule="evenodd" d="M7.93672 8.8362V7.63707L8.60109 7.53445V8.77252L7.93672 8.8362ZM7.93672 6.9467V5.74852L8.60109 5.58457V6.82165L7.93672 6.9467ZM7.93672 5.05814V3.85901L8.60109 3.63373V4.8718L7.93672 5.05814ZM7.93672 3.16959L7.93653 2.04683L8.60106 1.76172V2.92194L7.93669 3.16959H7.93672ZM6.75 8.94911V7.82129L7.33956 7.73037V8.89264L6.75 8.94911ZM6.75 7.17094V6.04044L7.33978 5.89508V7.06014L6.75 7.17094ZM6.75 5.39196V4.26138L7.33978 4.06163V5.22677L6.75 5.39198V5.39196ZM6.75 3.61073V2.55526L7.33994 2.30239L7.33978 3.39201L6.75 3.61073Z" fill="#AEAED6"/>
<path fill-rule="evenodd" clip-rule="evenodd" d="M8.13203 8.8177V7.60714L8.7964 7.50452V8.75402L8.13203 8.8177ZM8.13203 6.9102V5.7006L8.7964 5.53664V6.78513L8.13203 6.91018V6.9102ZM8.13203 5.00366V3.7931L8.7964 3.56781V4.81731L8.13203 5.00366ZM8.13203 3.09709L8.13187 1.96334L8.7964 1.67822V2.84944L8.13203 3.09709ZM6.94531 8.93063V7.79144L7.5349 7.70052V8.8742L6.94531 8.93063ZM6.94531 7.1345V5.99257L7.53509 5.84721V7.02371L6.94531 7.1345ZM6.94531 5.33747V4.19554L7.53509 3.9958V5.17229L6.94531 5.33747ZM6.94531 3.53861V2.47179L7.53525 2.21892L7.53509 3.31989L6.94531 3.53858V3.53861Z" fill="#F3F3FF"/>
<path fill-rule="evenodd" clip-rule="evenodd" d="M7.01465 13.6989V10.2227L7.26077 10.1992V13.6989H7.01465Z" fill="#AEAED6"/>
<path fill-rule="evenodd" clip-rule="evenodd" d="M8.48066 13.6988H7.26074V10.1991L8.48066 10.083V13.6988Z" fill="#F3F3FF"/>
<path fill-rule="evenodd" clip-rule="evenodd" d="M6.88884 10.3991C6.79893 10.4076 6.71917 10.3416 6.71069 10.2517C6.70222 10.1618 6.7682 10.082 6.8581 10.0735L8.70031 9.89819C8.79021 9.88972 8.86998 9.9557 8.87845 10.0456C8.88693 10.1355 8.82095 10.2153 8.73104 10.2237L6.88884 10.3991Z" fill="#AEAED6"/>
<path fill-rule="evenodd" clip-rule="evenodd" d="M2.93698 9.1616V8.18461L3.48963 8.07055V9.08545L2.93698 9.1616ZM2.93698 7.62173V6.64441L3.48963 6.46977V7.48559L2.93698 7.62173ZM2.93682 6.0822V5.16736L3.48963 4.93311V5.88546L2.93682 6.08223V6.0822ZM1.96631 9.29523V8.38378L2.44616 8.28523V9.22952L1.96631 9.29523ZM1.96631 7.86127V6.95009L2.44616 6.79923V7.74328L1.96631 7.86129V7.86127ZM1.96631 6.42605V5.57588L2.44646 5.37364L2.44633 6.25632L1.96631 6.42605Z" fill="#7986BF"/>
<path fill-rule="evenodd" clip-rule="evenodd" d="M3.11521 9.13745V8.14824L3.66785 8.03419V9.0613L3.11521 9.13745ZM3.11521 7.57829V6.58847L3.66785 6.41382V7.44214L3.11521 7.57829ZM3.11504 6.01912V5.09216L3.66785 4.85791V5.82235L3.11504 6.01912ZM2.14453 9.27105V8.34738L2.62439 8.24884V9.20538L2.14453 9.27108V9.27105ZM2.14453 7.81779V6.89412L2.62439 6.74326V7.6998L2.14453 7.81782V7.81779ZM2.14453 6.36335V5.50065L2.62469 5.29839L2.62455 6.1936L2.14456 6.36332L2.14453 6.36335Z" fill="#F3F3FF"/>
<path fill-rule="evenodd" clip-rule="evenodd" d="M2.46456 13.6989H2.26074V10.7382L2.46456 10.7188V13.6989Z" fill="#7986BF"/>
<path d="M0.315918 13.0156H13.684V13.6995H0.315918V13.0156Z" fill="#E6B17C"/>
<path d="M0.315918 13.3574H13.684V13.6994H0.315918V13.3574Z" fill="#D19458"/>
<path fill-rule="evenodd" clip-rule="evenodd" d="M2.2448 10.9041C2.15489 10.9126 2.07513 10.8466 2.06665 10.7567C2.05817 10.6668 2.12416 10.5871 2.21406 10.5786L3.90423 10.4177C3.99414 10.4092 4.0739 10.4752 4.08238 10.5651C4.09085 10.655 4.02487 10.7348 3.93497 10.7433L2.2448 10.9041Z" fill="#3D4A75"/>
</g>
<defs>
<clipPath id="clip0_150_631">
<rect width="14" height="14" fill="white"/>
</clipPath>
</defs>
</svg>
