<svg width="26" height="26" viewBox="0 0 26 26" fill="none" xmlns="http://www.w3.org/2000/svg">
<path d="M7.58317 4.33341V21.6667H18.4165V13.0001H20.5832V22.7501C20.5832 23.0374 20.469 23.3129 20.2659 23.5161C20.0627 23.7193 19.7872 23.8334 19.4998 23.8334H6.49984C6.21252 23.8334 5.93697 23.7193 5.73381 23.5161C5.53064 23.3129 5.4165 23.0374 5.4165 22.7501V3.25008C5.4165 2.96276 5.53064 2.68721 5.73381 2.48405C5.93697 2.28088 6.21252 2.16675 6.49984 2.16675H14.0832V4.33341H7.58317ZM20.5832 6.50008H23.8332L19.4998 10.8334L15.1665 6.50008H18.4165V2.16675H20.5832V6.50008ZM14.0832 19.5001C14.0832 19.7874 13.969 20.0629 13.7659 20.2661C13.5627 20.4693 13.2872 20.5834 12.9998 20.5834C12.7125 20.5834 12.437 20.4693 12.2338 20.2661C12.0306 20.0629 11.9165 19.7874 11.9165 19.5001C11.9165 19.2128 12.0306 18.9372 12.2338 18.734C12.437 18.5309 12.7125 18.4167 12.9998 18.4167C13.2872 18.4167 13.5627 18.5309 13.7659 18.734C13.969 18.9372 14.0832 19.2128 14.0832 19.5001Z" fill="white"/>
</svg>
