<svg width="159" height="62" viewBox="0 0 159 62" fill="none" xmlns="http://www.w3.org/2000/svg">
<path d="M4.14269 52.6188L0.300878 58.8493C-0.520744 60.1818 0.437834 61.899 2.00327 61.899H156.402C157.514 61.899 158.412 60.9926 158.402 59.881L157.881 1.98545C157.867 0.376517 156.055 -0.557553 154.736 0.363919L121.904 23.3008C121.127 23.8432 120.077 23.7666 119.387 23.1173L104.011 8.63774C103.306 7.974 102.227 7.91044 101.449 8.48685L70.7098 31.2643C70.0084 31.784 69.0511 31.7888 68.3446 31.2762L60.0498 25.2581C59.2397 24.6703 58.1199 24.7719 57.4288 25.4958L45.1151 38.3931C44.9543 38.5616 44.7662 38.7006 44.5568 38.8025C40.9422 40.5613 32.8835 43.9708 27.0942 44.6931C21.9706 45.3322 18.4553 48.5339 16.839 50.7012C16.4092 51.2775 15.7542 51.6685 15.0353 51.6685H5.84508C5.15119 51.6685 4.50688 52.0281 4.14269 52.6188Z" fill="url(#paint0_linear_150_997)"/>
<defs>
<linearGradient id="paint0_linear_150_997" x1="76.7" y1="-1.80957" x2="76.7" y2="60.504" gradientUnits="userSpaceOnUse">
<stop stop-color="#279D5B"/>
<stop offset="1" stop-color="#1EA36E" stop-opacity="0"/>
</linearGradient>
</defs>
</svg>
