<svg width="50" height="50" viewBox="0 0 50 50" fill="none" xmlns="http://www.w3.org/2000/svg">
<path d="M45.3125 20.1641V45.3125H33.5938V17.9688L45.3125 20.1641Z" fill="#FAB400"/>
<path d="M45.3125 20.1641V21.7422L33.5938 19.5391V17.9688L45.3125 20.1641Z" fill="#DC9600"/>
<path d="M46.0946 21.0913C46.0469 21.0913 45.9985 21.0866 45.9501 21.0772L33.4501 18.7335C33.0259 18.6538 32.7469 18.246 32.8259 17.8218C32.9055 17.3983 33.3149 17.1179 33.7376 17.1983L46.2376 19.5421C46.6618 19.6218 46.9407 20.0296 46.8618 20.4538C46.7915 20.8296 46.4633 21.0913 46.0946 21.0913Z" fill="#0A5078"/>
<path d="M3.90625 46.875H46.0938C46.525 46.875 46.875 46.525 46.875 46.0938C46.875 45.6625 46.525 45.3125 46.0938 45.3125H3.90625C3.475 45.3125 3.125 45.6625 3.125 46.0938C3.125 46.525 3.475 46.875 3.90625 46.875Z" fill="#0A5078"/>
<path d="M42.1875 40.625H36.7188C36.2875 40.625 35.9375 40.275 35.9375 39.8438V36.7188C35.9375 36.2875 36.2875 35.9375 36.7188 35.9375H42.1875C42.6188 35.9375 42.9688 36.2875 42.9688 36.7188V39.8438C42.9688 40.275 42.6188 40.625 42.1875 40.625Z" fill="#DC9600"/>
<path d="M42.1875 28.5156H36.7188C36.2875 28.5156 35.9375 28.1656 35.9375 27.7344V24.6094C35.9375 24.1781 36.2875 23.8281 36.7188 23.8281H42.1875C42.6188 23.8281 42.9688 24.1781 42.9688 24.6094V27.7344C42.9688 28.1656 42.6188 28.5156 42.1875 28.5156Z" fill="#DC9600"/>
<path d="M42.1875 27.7344H36.7188C36.2875 27.7344 35.9375 27.3844 35.9375 26.9531V23.8281C35.9375 23.3969 36.2875 23.0469 36.7188 23.0469H42.1875C42.6188 23.0469 42.9688 23.3969 42.9688 23.8281V26.9531C42.9688 27.3844 42.6188 27.7344 42.1875 27.7344Z" fill="#F0F0F0"/>
<path d="M42.1875 23.8281V26.9531H36.7188V23.8281H42.1875Z" fill="#00A0C8"/>
<path d="M33.2031 32.0312H45.3125V33.5938H33.2031V32.0312Z" fill="#DC9600"/>
<path d="M46.0938 32.8125H32.8125C32.3813 32.8125 32.0312 32.4633 32.0312 32.0312C32.0312 31.5992 32.3813 31.25 32.8125 31.25H46.0938C46.525 31.25 46.875 31.5992 46.875 32.0312C46.875 32.4633 46.525 32.8125 46.0938 32.8125Z" fill="#0A5078"/>
<path d="M42.1875 39.8438H36.7188C36.2875 39.8438 35.9375 39.4938 35.9375 39.0625V35.9375C35.9375 35.5063 36.2875 35.1562 36.7188 35.1562H42.1875C42.6188 35.1562 42.9688 35.5063 42.9688 35.9375V39.0625C42.9688 39.4938 42.6188 39.8438 42.1875 39.8438Z" fill="#F0F0F0"/>
<path d="M42.1875 35.9375V39.0625H36.7188V35.9375H42.1875Z" fill="#00A0C8"/>
<path d="M43.3594 42.9688V45.3125H35.5469V42.9688C35.5469 42.5391 35.8984 42.1875 36.3281 42.1875C36.7578 42.1875 37.1094 42.5391 37.1094 42.9688V42.1875C37.1094 41.7578 37.4609 41.4062 37.8906 41.4062C38.3203 41.4062 38.6719 41.7578 38.6719 42.1875V42.9688C38.6719 42.5391 39.0234 42.1875 39.4531 42.1875C39.8828 42.1875 40.2344 42.5391 40.2344 42.9688V42.1875C40.2344 41.7578 40.5859 41.4062 41.0156 41.4062C41.4453 41.4062 41.7969 41.7578 41.7969 42.1875V42.9688C41.7969 42.5391 42.1484 42.1875 42.5781 42.1875C43.0078 42.1875 43.3594 42.5391 43.3594 42.9688Z" fill="#00A0C8"/>
<path d="M36.7188 44.5312C36.9345 44.5312 37.1094 44.3564 37.1094 44.1406C37.1094 43.9249 36.9345 43.75 36.7188 43.75C36.503 43.75 36.3281 43.9249 36.3281 44.1406C36.3281 44.3564 36.503 44.5312 36.7188 44.5312Z" fill="#C80A50"/>
<path d="M41.0156 43.75C41.2314 43.75 41.4062 43.5751 41.4062 43.3594C41.4062 43.1436 41.2314 42.9688 41.0156 42.9688C40.7999 42.9688 40.625 43.1436 40.625 43.3594C40.625 43.5751 40.7999 43.75 41.0156 43.75Z" fill="#C80A50"/>
<path d="M39.8438 44.5312C40.0595 44.5312 40.2344 44.3564 40.2344 44.1406C40.2344 43.9249 40.0595 43.75 39.8438 43.75C39.628 43.75 39.4531 43.9249 39.4531 44.1406C39.4531 44.3564 39.628 44.5312 39.8438 44.5312Z" fill="#C80A50"/>
<path d="M4.6875 30.4688H16.7969V45.3125H4.6875V30.4688Z" fill="#FAB400"/>
<path d="M4.6875 30.4688H16.7969V32.0312H4.6875V30.4688Z" fill="#DC9600"/>
<path d="M16.0156 31.25H3.90625C3.475 31.25 3.125 30.9 3.125 30.4688C3.125 30.0375 3.475 29.6875 3.90625 29.6875H16.0156C16.4469 29.6875 16.7969 30.0375 16.7969 30.4688C16.7969 30.9 16.4469 31.25 16.0156 31.25Z" fill="#0A5078"/>
<path d="M5.07812 24.2188H6.64062V30.4688H5.07812V24.2188Z" fill="#0A5078"/>
<path d="M8.98438 24.2188H10.5469V30.4688H8.98438V24.2188Z" fill="#0A5078"/>
<path d="M12.8906 24.2188H14.4531V30.4688H12.8906V24.2188Z" fill="#0A5078"/>
<path d="M5.07812 24.2188H6.64062V25.7812H5.07812V24.2188Z" fill="#00325A"/>
<path d="M8.98438 24.2188H10.5469V25.7812H8.98438V24.2188Z" fill="#00325A"/>
<path d="M12.8906 24.2188H14.4531V25.7812H12.8906V24.2188Z" fill="#00325A"/>
<path d="M16.0156 25H3.90625C3.475 25 3.125 24.65 3.125 24.2188C3.125 23.7875 3.475 23.4375 3.90625 23.4375H16.0156C16.4469 23.4375 16.7969 23.7875 16.7969 24.2188C16.7969 24.65 16.4469 25 16.0156 25Z" fill="#0A5078"/>
<path d="M15.2344 35.9375V45.3125H6.25V35.9375C6.25 35.0781 6.95312 34.375 7.8125 34.375H13.6719C14.5312 34.375 15.2344 35.0781 15.2344 35.9375Z" fill="#F0F0F0"/>
<path d="M13.6719 35.1562H7.8125C7.38125 35.1562 7.03125 35.5063 7.03125 35.9375V45.3125H14.4531V35.9375C14.4531 35.5063 14.1031 35.1562 13.6719 35.1562Z" fill="#C80A50"/>
<path d="M11.5234 44.5312H9.96094C9.74531 44.5312 9.57031 44.3562 9.57031 44.1406C9.57031 43.925 9.74531 43.75 9.96094 43.75H11.5234C11.7391 43.75 11.9141 43.925 11.9141 44.1406C11.9141 44.3562 11.7391 44.5312 11.5234 44.5312Z" fill="#0A5078"/>
<path d="M7.03125 41.4062H14.4531V42.9688H7.03125V41.4062Z" fill="#A00028"/>
<path d="M7.03125 37.5H14.4531V39.0625H7.03125V37.5Z" fill="#A00028"/>
<path d="M33.5938 10.9375V45.3125H16.4062V10.9375L25 3.90625L33.5938 10.9375Z" fill="#F0F0F0"/>
<path d="M33.5938 10.9375V12.9844L25 5.71094L16.4062 12.9844V10.9375L25 3.90625L33.5938 10.9375Z" fill="#D2D2D2"/>
<path d="M35.156 13.2801C34.9779 13.2801 34.7982 13.2191 34.6514 13.0957L24.9998 4.92852L15.3482 13.0957C15.0185 13.373 14.5256 13.334 14.2474 13.0035C13.9685 12.6746 14.0099 12.1816 14.3388 11.9027L24.4951 3.30898C24.7865 3.06367 25.2131 3.06367 25.5045 3.30898L35.6607 11.9027C35.9896 12.1816 36.031 12.6746 35.7521 13.0035C35.5974 13.1863 35.3779 13.2801 35.156 13.2801Z" fill="#0A5078"/>
<path d="M30.4688 39.8438V45.3125H19.5312V39.8438C19.5312 36.8359 21.9922 34.375 25 34.375C26.5 34.375 27.875 34.9922 28.8594 35.9844C29.8516 36.9688 30.4688 38.3438 30.4688 39.8438Z" fill="#FAB400"/>
<path d="M29.2969 39.8438V45.3125H20.7031V39.8438C20.7031 37.4609 22.6406 35.5469 25 35.5469C27.3203 35.5469 29.2969 37.4141 29.2969 39.8438Z" fill="#C80A50"/>
<path d="M25 31.25C27.1574 31.25 28.9062 29.5011 28.9062 27.3438C28.9062 25.1864 27.1574 23.4375 25 23.4375C22.8426 23.4375 21.0938 25.1864 21.0938 27.3438C21.0938 29.5011 22.8426 31.25 25 31.25Z" fill="#D2D2D2"/>
<path d="M25 30.4688C27.1574 30.4688 28.9062 28.7199 28.9062 26.5625C28.9062 24.4051 27.1574 22.6562 25 22.6562C22.8426 22.6562 21.0938 24.4051 21.0938 26.5625C21.0938 28.7199 22.8426 30.4688 25 30.4688Z" fill="#0A5078"/>
<path d="M25 28.9062C26.2944 28.9062 27.3438 27.8569 27.3438 26.5625C27.3438 25.2681 26.2944 24.2188 25 24.2188C23.7056 24.2188 22.6562 25.2681 22.6562 26.5625C22.6562 27.8569 23.7056 28.9062 25 28.9062Z" fill="#00A0C8"/>
<path d="M27.3438 26.5625C27.3438 26.6953 27.3359 26.8281 27.3047 26.9531C27.125 25.8438 26.1641 25 25 25C23.8359 25 22.875 25.8438 22.6953 26.9531C22.6641 26.8281 22.6562 26.6953 22.6562 26.5625C22.6562 25.2656 23.7031 24.2188 25 24.2188C26.2969 24.2188 27.3438 25.2656 27.3438 26.5625Z" fill="#0082AA"/>
<path d="M25 20.3125C27.1574 20.3125 28.9062 18.5636 28.9062 16.4062C28.9062 14.2489 27.1574 12.5 25 12.5C22.8426 12.5 21.0938 14.2489 21.0938 16.4062C21.0938 18.5636 22.8426 20.3125 25 20.3125Z" fill="#D2D2D2"/>
<path d="M25 19.5312C27.1574 19.5312 28.9062 17.7824 28.9062 15.625C28.9062 13.4676 27.1574 11.7188 25 11.7188C22.8426 11.7188 21.0938 13.4676 21.0938 15.625C21.0938 17.7824 22.8426 19.5312 25 19.5312Z" fill="#0A5078"/>
<path d="M25 17.9688C26.2944 17.9688 27.3438 16.9194 27.3438 15.625C27.3438 14.3306 26.2944 13.2812 25 13.2812C23.7056 13.2812 22.6562 14.3306 22.6562 15.625C22.6562 16.9194 23.7056 17.9688 25 17.9688Z" fill="#00A0C8"/>
<path d="M27.3438 15.625C27.3438 15.7578 27.3359 15.8906 27.3047 16.0156C27.125 14.9062 26.1641 14.0625 25 14.0625C23.8359 14.0625 22.875 14.9062 22.6953 16.0156C22.6641 15.8906 22.6562 15.7578 22.6562 15.625C22.6562 14.3281 23.7031 13.2812 25 13.2812C26.2969 13.2812 27.3438 14.3281 27.3438 15.625Z" fill="#0082AA"/>
<path d="M27.7344 36.5303V45.3115H26.1719V35.7178C26.75 35.874 27.2812 36.1553 27.7344 36.5303Z" fill="#A00028"/>
<path d="M23.8281 35.7178V45.3115H22.2656V36.5303C22.7188 36.1553 23.25 35.874 23.8281 35.7178Z" fill="#A00028"/>
<path d="M22.6562 42.1875H21.875C21.6594 42.1875 21.4844 42.0125 21.4844 41.7969C21.4844 41.5813 21.6594 41.4062 21.875 41.4062H22.6562C22.8719 41.4062 23.0469 41.5813 23.0469 41.7969C23.0469 42.0125 22.8719 42.1875 22.6562 42.1875Z" fill="#F0F0F0"/>
<path d="M40.9492 13.2812H39.3867C38.9547 13.2812 38.6055 12.9312 38.6055 12.5C38.6055 12.0688 38.9547 11.7188 39.3867 11.7188H40.9492C41.3812 11.7188 41.7305 12.0688 41.7305 12.5C41.7305 12.9312 41.3812 13.2812 40.9492 13.2812Z" fill="#C80A50"/>
<path d="M38.8338 16.958L37.7291 15.8533C37.4236 15.5479 37.4236 15.0541 37.7291 14.7486C38.0346 14.4432 38.5283 14.4432 38.8338 14.7486L39.9385 15.8533C40.2439 16.1588 40.2439 16.6525 39.9385 16.958C39.633 17.2635 39.1393 17.2635 38.8338 16.958Z" fill="#00A0C8"/>
<path d="M37.7291 10.251C37.4236 9.94551 37.4236 9.45176 37.7291 9.14629L38.8338 8.0416C39.1393 7.73613 39.633 7.73613 39.9385 8.0416C40.2439 8.34707 40.2439 8.84082 39.9385 9.14629L38.8338 10.251C38.5283 10.5564 38.0346 10.5564 37.7291 10.251Z" fill="#FAB400"/>
<path d="M9.05078 11.7188H10.6133C11.0453 11.7188 11.3945 12.0688 11.3945 12.5C11.3945 12.9312 11.0453 13.2812 10.6133 13.2812H9.05078C8.61875 13.2812 8.26953 12.9312 8.26953 12.5C8.26953 12.0688 8.61875 11.7188 9.05078 11.7188Z" fill="#C80A50"/>
<path d="M11.1658 8.0416L12.2705 9.14629C12.576 9.45176 12.576 9.94551 12.2705 10.251C11.965 10.5564 11.4713 10.5564 11.1658 10.251L10.0611 9.14629C9.75566 8.84082 9.75566 8.34707 10.0611 8.0416C10.3666 7.73613 10.8604 7.73613 11.1658 8.0416Z" fill="#00A0C8"/>
<path d="M12.2705 14.7486C12.576 15.0541 12.576 15.5479 12.2705 15.8533L11.1658 16.958C10.8604 17.2635 10.3666 17.2635 10.0611 16.958C9.75566 16.6525 9.75566 16.1588 10.0611 15.8533L11.1658 14.7486C11.4713 14.4432 11.965 14.4432 12.2705 14.7486Z" fill="#FAB400"/>
</svg>
