<svg width="14" height="14" viewBox="0 0 14 14" fill="none" xmlns="http://www.w3.org/2000/svg">
<path d="M12.6875 5.64594V12.6875H9.40625V5.03125L12.6875 5.64594Z" fill="#FAB400"/>
<path d="M12.6875 5.64594V6.08781L9.40625 5.47094V5.03125L12.6875 5.64594Z" fill="#DC9600"/>
<path d="M12.9065 5.90541C12.8931 5.90541 12.8796 5.9041 12.866 5.90147L9.36602 5.24522C9.24724 5.22291 9.16914 5.10872 9.19124 4.98994C9.21355 4.87138 9.32818 4.79285 9.44652 4.81538L12.9465 5.47163C13.0653 5.49394 13.1434 5.60813 13.1213 5.72691C13.1016 5.83213 13.0097 5.90541 12.9065 5.90541Z" fill="#0A5078"/>
<path d="M1.09375 13.125H12.9062C13.027 13.125 13.125 13.027 13.125 12.9062C13.125 12.7855 13.027 12.6875 12.9062 12.6875H1.09375C0.973 12.6875 0.875 12.7855 0.875 12.9062C0.875 13.027 0.973 13.125 1.09375 13.125Z" fill="#0A5078"/>
<path d="M11.8125 11.375H10.2812C10.1605 11.375 10.0625 11.277 10.0625 11.1562V10.2812C10.0625 10.1605 10.1605 10.0625 10.2812 10.0625H11.8125C11.9332 10.0625 12.0312 10.1605 12.0312 10.2812V11.1562C12.0312 11.277 11.9332 11.375 11.8125 11.375Z" fill="#DC9600"/>
<path d="M11.8125 7.98438H10.2812C10.1605 7.98438 10.0625 7.88637 10.0625 7.76562V6.89062C10.0625 6.76988 10.1605 6.67188 10.2812 6.67188H11.8125C11.9332 6.67188 12.0312 6.76988 12.0312 6.89062V7.76562C12.0312 7.88637 11.9332 7.98438 11.8125 7.98438Z" fill="#DC9600"/>
<path d="M11.8125 7.76562H10.2812C10.1605 7.76562 10.0625 7.66762 10.0625 7.54688V6.67188C10.0625 6.55113 10.1605 6.45312 10.2812 6.45312H11.8125C11.9332 6.45312 12.0312 6.55113 12.0312 6.67188V7.54688C12.0312 7.66762 11.9332 7.76562 11.8125 7.76562Z" fill="#F0F0F0"/>
<path d="M11.8125 6.67188V7.54688H10.2812V6.67188H11.8125Z" fill="#00A0C8"/>
<path d="M9.29688 8.96875H12.6875V9.40625H9.29688V8.96875Z" fill="#DC9600"/>
<path d="M12.9062 9.1875H9.1875C9.06675 9.1875 8.96875 9.08972 8.96875 8.96875C8.96875 8.84778 9.06675 8.75 9.1875 8.75H12.9062C13.027 8.75 13.125 8.84778 13.125 8.96875C13.125 9.08972 13.027 9.1875 12.9062 9.1875Z" fill="#0A5078"/>
<path d="M11.8125 11.1562H10.2812C10.1605 11.1562 10.0625 11.0582 10.0625 10.9375V10.0625C10.0625 9.94175 10.1605 9.84375 10.2812 9.84375H11.8125C11.9332 9.84375 12.0312 9.94175 12.0312 10.0625V10.9375C12.0312 11.0582 11.9332 11.1562 11.8125 11.1562Z" fill="#F0F0F0"/>
<path d="M11.8125 10.0625V10.9375H10.2812V10.0625H11.8125Z" fill="#00A0C8"/>
<path d="M12.1406 12.0312V12.6875H9.95312V12.0312C9.95312 11.9109 10.0516 11.8125 10.1719 11.8125C10.2922 11.8125 10.3906 11.9109 10.3906 12.0312V11.8125C10.3906 11.6922 10.4891 11.5938 10.6094 11.5938C10.7297 11.5938 10.8281 11.6922 10.8281 11.8125V12.0312C10.8281 11.9109 10.9266 11.8125 11.0469 11.8125C11.1672 11.8125 11.2656 11.9109 11.2656 12.0312V11.8125C11.2656 11.6922 11.3641 11.5938 11.4844 11.5938C11.6047 11.5938 11.7031 11.6922 11.7031 11.8125V12.0312C11.7031 11.9109 11.8016 11.8125 11.9219 11.8125C12.0422 11.8125 12.1406 11.9109 12.1406 12.0312Z" fill="#00A0C8"/>
<path d="M10.2812 12.4688C10.3417 12.4688 10.3906 12.4198 10.3906 12.3594C10.3906 12.299 10.3417 12.25 10.2812 12.25C10.2208 12.25 10.1719 12.299 10.1719 12.3594C10.1719 12.4198 10.2208 12.4688 10.2812 12.4688Z" fill="#C80A50"/>
<path d="M11.4844 12.25C11.5448 12.25 11.5938 12.201 11.5938 12.1406C11.5938 12.0802 11.5448 12.0312 11.4844 12.0312C11.424 12.0312 11.375 12.0802 11.375 12.1406C11.375 12.201 11.424 12.25 11.4844 12.25Z" fill="#C80A50"/>
<path d="M11.1562 12.4688C11.2167 12.4688 11.2656 12.4198 11.2656 12.3594C11.2656 12.299 11.2167 12.25 11.1562 12.25C11.0958 12.25 11.0469 12.299 11.0469 12.3594C11.0469 12.4198 11.0958 12.4688 11.1562 12.4688Z" fill="#C80A50"/>
<path d="M1.3125 8.53125H4.70312V12.6875H1.3125V8.53125Z" fill="#FAB400"/>
<path d="M1.3125 8.53125H4.70312V8.96875H1.3125V8.53125Z" fill="#DC9600"/>
<path d="M4.48438 8.75H1.09375C0.973 8.75 0.875 8.652 0.875 8.53125C0.875 8.4105 0.973 8.3125 1.09375 8.3125H4.48438C4.60512 8.3125 4.70312 8.4105 4.70312 8.53125C4.70312 8.652 4.60512 8.75 4.48438 8.75Z" fill="#0A5078"/>
<path d="M1.42188 6.78125H1.85938V8.53125H1.42188V6.78125Z" fill="#0A5078"/>
<path d="M2.51562 6.78125H2.95312V8.53125H2.51562V6.78125Z" fill="#0A5078"/>
<path d="M3.60938 6.78125H4.04688V8.53125H3.60938V6.78125Z" fill="#0A5078"/>
<path d="M1.42188 6.78125H1.85938V7.21875H1.42188V6.78125Z" fill="#00325A"/>
<path d="M2.51562 6.78125H2.95312V7.21875H2.51562V6.78125Z" fill="#00325A"/>
<path d="M3.60938 6.78125H4.04688V7.21875H3.60938V6.78125Z" fill="#00325A"/>
<path d="M4.48438 7H1.09375C0.973 7 0.875 6.902 0.875 6.78125C0.875 6.6605 0.973 6.5625 1.09375 6.5625H4.48438C4.60512 6.5625 4.70312 6.6605 4.70312 6.78125C4.70312 6.902 4.60512 7 4.48438 7Z" fill="#0A5078"/>
<path d="M4.26562 10.0625V12.6875H1.75V10.0625C1.75 9.82187 1.94687 9.625 2.1875 9.625H3.82812C4.06875 9.625 4.26562 9.82187 4.26562 10.0625Z" fill="#F0F0F0"/>
<path d="M3.82812 9.84375H2.1875C2.06675 9.84375 1.96875 9.94175 1.96875 10.0625V12.6875H4.04688V10.0625C4.04688 9.94175 3.94887 9.84375 3.82812 9.84375Z" fill="#C80A50"/>
<path d="M3.22656 12.4688H2.78906C2.72869 12.4688 2.67969 12.4198 2.67969 12.3594C2.67969 12.299 2.72869 12.25 2.78906 12.25H3.22656C3.28694 12.25 3.33594 12.299 3.33594 12.3594C3.33594 12.4198 3.28694 12.4688 3.22656 12.4688Z" fill="#0A5078"/>
<path d="M1.96875 11.5938H4.04688V12.0312H1.96875V11.5938Z" fill="#A00028"/>
<path d="M1.96875 10.5H4.04688V10.9375H1.96875V10.5Z" fill="#A00028"/>
<path d="M9.40625 3.0625V12.6875H4.59375V3.0625L7 1.09375L9.40625 3.0625Z" fill="#F0F0F0"/>
<path d="M9.40625 3.0625V3.63563L7 1.59906L4.59375 3.63563V3.0625L7 1.09375L9.40625 3.0625Z" fill="#D2D2D2"/>
<path d="M9.84369 3.71842C9.79382 3.71842 9.7435 3.70136 9.70238 3.6668L6.99994 1.37998L4.2975 3.6668C4.20519 3.74445 4.06716 3.73352 3.98928 3.64098C3.91119 3.54889 3.92278 3.41086 4.01488 3.33277L6.85863 0.926516C6.94022 0.857828 7.05966 0.857828 7.14125 0.926516L9.985 3.33277C10.0771 3.41086 10.0887 3.54889 10.0106 3.64098C9.96728 3.69217 9.90582 3.71842 9.84369 3.71842Z" fill="#0A5078"/>
<path d="M8.53125 11.1562V12.6875H5.46875V11.1562C5.46875 10.3141 6.15781 9.625 7 9.625C7.42 9.625 7.805 9.79781 8.08062 10.0756C8.35844 10.3513 8.53125 10.7363 8.53125 11.1562Z" fill="#FAB400"/>
<path d="M8.20312 11.1562V12.6875H5.79688V11.1562C5.79688 10.4891 6.33938 9.95312 7 9.95312C7.64969 9.95312 8.20312 10.4759 8.20312 11.1562Z" fill="#C80A50"/>
<path d="M7 8.75C7.60406 8.75 8.09375 8.26031 8.09375 7.65625C8.09375 7.05219 7.60406 6.5625 7 6.5625C6.39594 6.5625 5.90625 7.05219 5.90625 7.65625C5.90625 8.26031 6.39594 8.75 7 8.75Z" fill="#D2D2D2"/>
<path d="M7 8.53125C7.60406 8.53125 8.09375 8.04156 8.09375 7.4375C8.09375 6.83344 7.60406 6.34375 7 6.34375C6.39594 6.34375 5.90625 6.83344 5.90625 7.4375C5.90625 8.04156 6.39594 8.53125 7 8.53125Z" fill="#0A5078"/>
<path d="M7 8.09375C7.36244 8.09375 7.65625 7.79994 7.65625 7.4375C7.65625 7.07506 7.36244 6.78125 7 6.78125C6.63756 6.78125 6.34375 7.07506 6.34375 7.4375C6.34375 7.79994 6.63756 8.09375 7 8.09375Z" fill="#00A0C8"/>
<path d="M7.65625 7.4375C7.65625 7.47469 7.65406 7.51187 7.64531 7.54688C7.595 7.23625 7.32594 7 7 7C6.67406 7 6.405 7.23625 6.35469 7.54688C6.34594 7.51187 6.34375 7.47469 6.34375 7.4375C6.34375 7.07438 6.63688 6.78125 7 6.78125C7.36312 6.78125 7.65625 7.07438 7.65625 7.4375Z" fill="#0082AA"/>
<path d="M7 5.6875C7.60406 5.6875 8.09375 5.19781 8.09375 4.59375C8.09375 3.98969 7.60406 3.5 7 3.5C6.39594 3.5 5.90625 3.98969 5.90625 4.59375C5.90625 5.19781 6.39594 5.6875 7 5.6875Z" fill="#D2D2D2"/>
<path d="M7 5.46875C7.60406 5.46875 8.09375 4.97906 8.09375 4.375C8.09375 3.77094 7.60406 3.28125 7 3.28125C6.39594 3.28125 5.90625 3.77094 5.90625 4.375C5.90625 4.97906 6.39594 5.46875 7 5.46875Z" fill="#0A5078"/>
<path d="M7 5.03125C7.36244 5.03125 7.65625 4.73744 7.65625 4.375C7.65625 4.01256 7.36244 3.71875 7 3.71875C6.63756 3.71875 6.34375 4.01256 6.34375 4.375C6.34375 4.73744 6.63756 5.03125 7 5.03125Z" fill="#00A0C8"/>
<path d="M7.65625 4.375C7.65625 4.41219 7.65406 4.44937 7.64531 4.48438C7.595 4.17375 7.32594 3.9375 7 3.9375C6.67406 3.9375 6.405 4.17375 6.35469 4.48438C6.34594 4.44937 6.34375 4.41219 6.34375 4.375C6.34375 4.01188 6.63688 3.71875 7 3.71875C7.36312 3.71875 7.65625 4.01188 7.65625 4.375Z" fill="#0082AA"/>
<path d="M7.76562 10.2285V12.6872H7.32812V10.001C7.49 10.0447 7.63875 10.1235 7.76562 10.2285Z" fill="#A00028"/>
<path d="M6.67188 10.001V12.6872H6.23438V10.2285C6.36125 10.1235 6.51 10.0447 6.67188 10.001Z" fill="#A00028"/>
<path d="M6.34375 11.8125H6.125C6.06463 11.8125 6.01562 11.7635 6.01562 11.7031C6.01562 11.6428 6.06463 11.5938 6.125 11.5938H6.34375C6.40413 11.5938 6.45312 11.6428 6.45312 11.7031C6.45312 11.7635 6.40413 11.8125 6.34375 11.8125Z" fill="#F0F0F0"/>
<path d="M11.4658 3.71875H11.0283C10.9074 3.71875 10.8096 3.62075 10.8096 3.5C10.8096 3.37925 10.9074 3.28125 11.0283 3.28125H11.4658C11.5868 3.28125 11.6846 3.37925 11.6846 3.5C11.6846 3.62075 11.5868 3.71875 11.4658 3.71875Z" fill="#C80A50"/>
<path d="M10.8735 4.7482L10.5641 4.43889C10.4786 4.35336 10.4786 4.21511 10.5641 4.12958C10.6497 4.04405 10.7879 4.04405 10.8735 4.12958L11.1828 4.43889C11.2683 4.52442 11.2683 4.66267 11.1828 4.7482C11.0972 4.83373 10.959 4.83373 10.8735 4.7482Z" fill="#00A0C8"/>
<path d="M10.5641 2.87027C10.4786 2.78474 10.4786 2.64649 10.5641 2.56096L10.8735 2.25165C10.959 2.16612 11.0972 2.16612 11.1828 2.25165C11.2683 2.33718 11.2683 2.47543 11.1828 2.56096L10.8735 2.87027C10.7879 2.9558 10.6497 2.9558 10.5641 2.87027Z" fill="#FAB400"/>
<path d="M2.53418 3.28125H2.97168C3.09265 3.28125 3.19043 3.37925 3.19043 3.5C3.19043 3.62075 3.09265 3.71875 2.97168 3.71875H2.53418C2.41321 3.71875 2.31543 3.62075 2.31543 3.5C2.31543 3.37925 2.41321 3.28125 2.53418 3.28125Z" fill="#C80A50"/>
<path d="M3.12639 2.25165L3.4357 2.56096C3.52123 2.64649 3.52123 2.78474 3.4357 2.87027C3.35017 2.9558 3.21192 2.9558 3.12639 2.87027L2.81708 2.56096C2.73155 2.47543 2.73155 2.33718 2.81708 2.25165C2.90261 2.16612 3.04086 2.16612 3.12639 2.25165Z" fill="#00A0C8"/>
<path d="M3.4357 4.12958C3.52123 4.21511 3.52123 4.35336 3.4357 4.43889L3.12639 4.7482C3.04086 4.83373 2.90261 4.83373 2.81708 4.7482C2.73155 4.66267 2.73155 4.52442 2.81708 4.43889L3.12639 4.12958C3.21192 4.04405 3.35017 4.04405 3.4357 4.12958Z" fill="#FAB400"/>
</svg>
