<svg preserveAspectRatio="none" width="100%" height="100%" overflow="visible" style="display: block;" viewBox="0 0 22.3333 20.25" fill="none" xmlns="http://www.w3.org/2000/svg">
<g id="Group">
<path id="Vector" d="M2.83334 9.08333C2.83334 7.625 2.83334 6.89583 3.11771 6.33854C3.36733 5.84883 3.7655 5.45066 4.25521 5.20104C4.8125 4.91667 5.54167 4.91667 7 4.91667H15.3333C16.7917 4.91667 17.5208 4.91667 18.0781 5.2C18.568 5.44989 18.9662 5.84844 19.2156 6.33854C19.5 6.89583 19.5 7.625 19.5 9.08333M4.91667 4.91667C4.91667 3.45833 4.91667 2.72917 5.20104 2.17188C5.45066 1.68216 5.84883 1.28399 6.33854 1.03438C6.89584 0.750001 7.625 0.750001 9.08334 0.750001H13.25C14.7083 0.750001 15.4375 0.750001 15.9948 1.03333C16.4847 1.28322 16.8829 1.68178 17.1323 2.17188C17.4167 2.72917 17.4167 3.45833 17.4167 4.91667M5.95834 19.5H16.375C18.8302 19.5 20.0573 19.5 20.8208 18.7375C21.5833 17.974 21.5833 16.7469 21.5833 14.2917C21.5833 11.8365 21.5833 10.6083 20.8208 9.84583C20.0573 9.08333 18.8302 9.08333 16.375 9.08333H5.95834C3.50313 9.08333 2.27604 9.08333 1.5125 9.84583C0.748961 10.6083 0.750002 11.8354 0.750002 14.2917C0.750002 16.7479 0.750002 17.974 1.5125 18.7375C2.275 19.501 3.50209 19.5 5.95834 19.5Z" stroke="var(--stroke-0, #FA191D)" stroke-width="1.5" stroke-linecap="round" stroke-linejoin="round"/>
<path id="Vector_2" d="M15.3333 13.25L15.0208 13.6667C14.4073 14.4844 14.101 14.8938 13.6604 15.1135C13.2208 15.3333 12.7094 15.3333 11.6875 15.3333H10.6458C9.62396 15.3333 9.1125 15.3333 8.67292 15.1135C8.23229 14.8938 7.92604 14.4844 7.3125 13.6667L7 13.25" stroke="var(--stroke-0, #FA191D)" stroke-width="0.75" stroke-linecap="round" stroke-linejoin="round"/>
</g>
</svg>
