<svg preserveAspectRatio="none" width="100%" height="100%" overflow="visible" style="display: block;" viewBox="0 0 19.6251 23.125" fill="none" xmlns="http://www.w3.org/2000/svg">
<g id="Group">
<path id="Vector" d="M4.93269 12.1986H14.6923M4.93269 16.0147H10.5096" stroke="var(--stroke-0, #E87D1E)" stroke-width="1.5" stroke-linecap="round"/>
<path id="Vector_2" d="M0.750001 3.80298C0.750001 2.73445 0.750001 2.20018 0.977261 1.79185C1.17783 1.43251 1.49802 1.14037 1.89188 0.957383C2.33803 0.750038 2.92361 0.750037 4.09616 0.750037H10.518C11.0297 0.750037 11.2848 0.750037 11.526 0.802192C11.7417 0.849682 11.9429 0.926006 12.1297 1.03116C12.3416 1.14946 12.5215 1.31483 12.8826 1.64429L17.8949 6.21607C18.2574 6.54681 18.4386 6.71218 18.5669 6.90299C18.6821 7.07599 18.7658 7.26001 18.8178 7.45506C18.875 7.67513 18.875 7.90791 18.875 8.37476V19.3221C18.875 20.3906 18.875 20.9249 18.6477 21.3332C18.4472 21.6926 18.127 21.9847 17.7331 22.1677C17.287 22.375 16.7014 22.375 15.5288 22.375H4.09616C2.925 22.375 2.33942 22.375 1.89188 22.1677C1.49802 21.9847 1.17783 21.6926 0.977261 21.3332C0.750001 20.9262 0.750001 20.3919 0.750001 19.3221V3.80298Z" stroke="var(--stroke-0, #E87D1E)" stroke-width="1.5"/>
<path id="Vector_3" d="M10.5096 0.750037V5.32945C10.5096 6.39798 10.5096 6.93224 10.7383 7.34057C10.9385 7.69973 11.2581 7.99184 11.6515 8.17504C12.0976 8.38239 12.6832 8.38239 13.8558 8.38239H18.875" stroke="var(--stroke-0, #E87D1E)" stroke-width="1.5"/>
</g>
</svg>
