<svg preserveAspectRatio="none" width="100%" height="100%" overflow="visible" style="display: block;" viewBox="0 0 28 28" fill="none" xmlns="http://www.w3.org/2000/svg">
<g id="basil:edit-outline">
<path id="Vector" fill-rule="evenodd" clip-rule="evenodd" d="M25.0308 6.31867C25.1417 6.48691 25.1911 6.68825 25.1707 6.88869C25.1503 7.08912 25.0613 7.27638 24.9188 7.41883L14.1937 18.1428C14.0839 18.2525 13.9471 18.331 13.797 18.3703L9.32983 19.537C9.18217 19.5755 9.027 19.5747 8.87973 19.5347C8.73245 19.4948 8.5982 19.417 8.49029 19.309C8.38238 19.2011 8.30457 19.0669 8.26459 18.9196C8.2246 18.7723 8.22382 18.6172 8.26233 18.4695L9.429 14.0035C9.46389 13.8698 9.52804 13.7454 9.61683 13.6395L20.3817 2.88167C20.5457 2.71781 20.7681 2.62577 21 2.62577C21.2319 2.62577 21.4543 2.71781 21.6183 2.88167L24.9188 6.181C24.9596 6.22398 24.997 6.27 25.0308 6.31867ZM23.0627 6.79933L21 4.73783L11.0623 14.6755L10.3332 17.4673L13.125 16.7382L23.0627 6.79933Z" fill="var(--fill-0, white)"/>
<path id="Vector_2" d="M22.9145 20.02C23.2334 17.2946 23.3352 14.5482 23.219 11.8067C23.2163 11.7421 23.227 11.6776 23.2505 11.6173C23.274 11.5571 23.3097 11.5024 23.3555 11.4567L24.5035 10.3087C24.5349 10.2771 24.5747 10.2553 24.6182 10.2458C24.6616 10.2364 24.7069 10.2397 24.7486 10.2553C24.7902 10.271 24.8264 10.2983 24.8529 10.334C24.8794 10.3698 24.895 10.4124 24.8978 10.4568C25.1133 13.7133 25.0313 16.9826 24.6528 20.2242C24.3775 22.5832 22.4828 24.4323 20.1343 24.6948C16.0572 25.1461 11.9428 25.1461 7.86567 24.6948C5.51833 24.4323 3.6225 22.5832 3.34717 20.2242C2.86429 16.0888 2.86429 11.9112 3.34717 7.77583C3.6225 5.41683 5.51717 3.56767 7.86567 3.30517C10.9602 2.96339 14.0778 2.88027 17.1862 3.05667C17.2307 3.05986 17.2733 3.07574 17.309 3.10241C17.3448 3.12909 17.3721 3.16545 17.3878 3.20719C17.4035 3.24893 17.407 3.2943 17.3977 3.33792C17.3884 3.38154 17.3668 3.4216 17.3355 3.45333L16.177 4.61067C16.1317 4.65599 16.0776 4.6915 16.018 4.71498C15.9583 4.73846 15.8945 4.74942 15.8305 4.74717C13.2367 4.65832 10.6399 4.75775 8.0605 5.04467C7.30676 5.12809 6.60316 5.46318 6.06335 5.99579C5.52353 6.52841 5.17904 7.22745 5.0855 7.98C4.6175 11.9797 4.6175 16.0203 5.0855 20.02C5.17904 20.7725 5.52353 21.4716 6.06335 22.0042C6.60316 22.5368 7.30676 22.8719 8.0605 22.9553C11.9747 23.3928 16.0253 23.3928 19.9407 22.9553C20.6944 22.8719 21.398 22.5368 21.9378 22.0042C22.4776 21.4716 22.821 20.7725 22.9145 20.02Z" fill="var(--fill-0, white)"/>
</g>
</svg>
