<svg preserveAspectRatio="none" width="100%" height="100%" overflow="visible" style="display: block;" viewBox="0 0 50 50" fill="none" xmlns="http://www.w3.org/2000/svg">
<g id="icon">
<circle id="circle" cx="25" cy="25" r="24.5" stroke="var(--stroke-0, #E87D1E)"/>
<g id="clarity:date-line" clip-path="url(#clip0_0_4)">
<path id="Vector" d="M34.5 17H32.3333V18.3333H34.3333V33H15.6667V18.3333H17.6667V17H15.5C15.3442 17.0026 15.1904 17.0359 15.0474 17.0979C14.9044 17.16 14.775 17.2496 14.6667 17.3617C14.5584 17.4737 14.4732 17.606 14.416 17.751C14.3588 17.896 14.3307 18.0508 14.3333 18.2067V33.1267C14.3307 33.2825 14.3588 33.4373 14.416 33.5823C14.4732 33.7273 14.5584 33.8596 14.6667 33.9717C14.775 34.0837 14.9044 34.1733 15.0474 34.2354C15.1904 34.2974 15.3442 34.3307 15.5 34.3333H34.5C34.6558 34.3307 34.8096 34.2974 34.9526 34.2354C35.0956 34.1733 35.225 34.0837 35.3333 33.9717C35.4416 33.8596 35.5268 33.7273 35.584 33.5823C35.6412 33.4373 35.6693 33.2825 35.6667 33.1267V18.2067C35.6693 18.0508 35.6412 17.896 35.584 17.751C35.5268 17.606 35.4416 17.4737 35.3333 17.3617C35.225 17.2496 35.0956 17.16 34.9526 17.0979C34.8096 17.0359 34.6558 17.0026 34.5 17Z" fill="var(--fill-0, #E87D1E)"/>
<path id="Vector_2" d="M18.3333 22.3333H19.6667V23.6667H18.3333V22.3333Z" fill="var(--fill-0, #E87D1E)"/>
<path id="Vector_3" d="M22.3333 22.3333H23.6667V23.6667H22.3333V22.3333Z" fill="var(--fill-0, #E87D1E)"/>
<path id="Vector_4" d="M26.3333 22.3333H27.6667V23.6667H26.3333V22.3333Z" fill="var(--fill-0, #E87D1E)"/>
<path id="Vector_5" d="M30.3333 22.3333H31.6667V23.6667H30.3333V22.3333Z" fill="var(--fill-0, #E87D1E)"/>
<path id="Vector_6" d="M18.3333 25.6667H19.6667V27H18.3333V25.6667Z" fill="var(--fill-0, #E87D1E)"/>
<path id="Vector_7" d="M22.3333 25.6667H23.6667V27H22.3333V25.6667Z" fill="var(--fill-0, #E87D1E)"/>
<path id="Vector_8" d="M26.3333 25.6667H27.6667V27H26.3333V25.6667Z" fill="var(--fill-0, #E87D1E)"/>
<path id="Vector_9" d="M30.3333 25.6667H31.6667V27H30.3333V25.6667Z" fill="var(--fill-0, #E87D1E)"/>
<path id="Vector_10" d="M18.3333 29H19.6667V30.3333H18.3333V29Z" fill="var(--fill-0, #E87D1E)"/>
<path id="Vector_11" d="M22.3333 29H23.6667V30.3333H22.3333V29Z" fill="var(--fill-0, #E87D1E)"/>
<path id="Vector_12" d="M26.3333 29H27.6667V30.3333H26.3333V29Z" fill="var(--fill-0, #E87D1E)"/>
<path id="Vector_13" d="M30.3333 29H31.6667V30.3333H30.3333V29Z" fill="var(--fill-0, #E87D1E)"/>
<path id="Vector_14" d="M19.6667 19.6667C19.8435 19.6667 20.013 19.5964 20.1381 19.4714C20.2631 19.3464 20.3333 19.1768 20.3333 19V15C20.3333 14.8232 20.2631 14.6536 20.1381 14.5286C20.013 14.4036 19.8435 14.3333 19.6667 14.3333C19.4899 14.3333 19.3203 14.4036 19.1953 14.5286C19.0702 14.6536 19 14.8232 19 15V19C19 19.1768 19.0702 19.3464 19.1953 19.4714C19.3203 19.5964 19.4899 19.6667 19.6667 19.6667Z" fill="var(--fill-0, #E87D1E)"/>
<path id="Vector_15" d="M30.3333 19.6667C30.5101 19.6667 30.6797 19.5964 30.8047 19.4714C30.9298 19.3464 31 19.1768 31 19V15C31 14.8232 30.9298 14.6536 30.8047 14.5286C30.6797 14.4036 30.5101 14.3333 30.3333 14.3333C30.1565 14.3333 29.987 14.4036 29.8619 14.5286C29.7369 14.6536 29.6667 14.8232 29.6667 15V19C29.6667 19.1768 29.7369 19.3464 29.8619 19.4714C29.987 19.5964 30.1565 19.6667 30.3333 19.6667Z" fill="var(--fill-0, #E87D1E)"/>
<path id="Vector_16" d="M21.6667 17H28.3333V18.3333H21.6667V17Z" fill="var(--fill-0, #E87D1E)"/>
<g id="Vector_17">
</g>
</g>
</g>
<defs>
<clipPath id="clip0_0_4">
<rect width="24" height="24" fill="white" transform="translate(13 13)"/>
</clipPath>
</defs>
</svg>
