<svg preserveAspectRatio="none" width="100%" height="100%" overflow="visible" style="display: block;" viewBox="0 0 23.9999 21.6" fill="none" xmlns="http://www.w3.org/2000/svg">
<g id="Group">
<path id="Vector" d="M23.736 4.22401C22.9571 1.71051 20.6314 -0.00214149 18 2.00975e-06H5.99997C3.36859 -0.00208652 1.04289 1.71057 0.26398 4.22401C0.0907962 4.80022 0.00186869 5.39842 0 6.00003V15.6C0.00120915 18.9133 2.68679 21.5988 5.99997 21.6H18C21.3132 21.5988 23.9988 18.9132 23.9999 15.6V6.00003C23.9981 5.39842 23.9092 4.80022 23.736 4.22401ZM5.99997 2.40006H18C19.7637 2.40511 21.2656 3.68374 21.552 5.42403L11.9999 10.632L2.44798 5.42403C2.73439 3.68374 4.23626 2.40506 5.99997 2.40006ZM21.6 15.6C21.5942 17.5858 19.9858 19.1942 18 19.2H5.99997C4.01416 19.1942 2.40577 17.5858 2.4 15.6V8.13605L11.424 13.056C11.7839 13.2485 12.2161 13.2485 12.576 13.056L21.6 8.13605V15.6Z" fill="var(--fill-0, #E87D1E)"/>
</g>
</svg>
