<svg preserveAspectRatio="none" width="100%" height="100%" overflow="visible" style="display: block;" viewBox="0 0 20.0003 20.0001" fill="none" xmlns="http://www.w3.org/2000/svg">
<g id="Group">
<path id="Vector" fill-rule="evenodd" clip-rule="evenodd" d="M0.000270735 1.0211C-0.00172927 0.934102 0.00729295 0.846102 0.029293 0.757102C0.163293 0.222102 0.707275 -0.103898 1.24228 0.030102C1.24228 0.030102 3.19229 0.517102 4.36929 0.812102C5.26529 1.0351 5.96429 1.7351 6.18829 2.6311C6.35929 3.3151 6.59628 4.2621 6.76428 4.9341C6.97728 5.7851 6.72729 6.6871 6.10629 7.3081L4.14529 9.2691C5.68629 12.0281 7.97229 14.3151 10.7313 15.8541L12.6923 13.8931C13.3133 13.2721 14.2143 13.0231 15.0663 13.2361C15.7383 13.4041 16.6843 13.6401 17.3693 13.8121C18.2653 14.0351 18.9643 14.7351 19.1883 15.6311L19.9653 18.7391C19.9883 18.8221 20.0003 18.9101 20.0003 19.0001C20.0003 19.5521 19.5513 20.0001 19.0003 20.0001C8.52127 20.0001 0.0112707 11.4981 0.000270735 1.0211V1.0211ZM17.7073 17.9511L17.2483 16.1161C17.2033 15.9371 17.0633 15.7971 16.8843 15.7521C16.1993 15.5811 15.2533 15.3441 14.5813 15.1761C14.4113 15.1341 14.2303 15.1831 14.1063 15.3081L12.6443 16.7701C14.2283 17.4101 15.9303 17.8181 17.7073 17.9511ZM2.04827 2.2931C2.18227 4.0711 2.59027 5.7731 3.22927 7.3561L4.69229 5.8931C4.81629 5.7691 4.86627 5.5891 4.82327 5.4191C4.65527 4.7471 4.41929 3.8001 4.24829 3.1161C4.20329 2.9371 4.06327 2.7971 3.88427 2.7521L2.04827 2.2931Z" fill="var(--fill-0, #E87D1E)"/>
</g>
</svg>
