<svg width="111" height="137" viewBox="0 0 111 137" fill="none" xmlns="http://www.w3.org/2000/svg">
<path d="M75.3752 52.0763V90.5802C75.3752 91.438 75.2737 92.298 75.0181 93.1168C70.6914 106.98 58.328 107.675 51.8854 106.12C66.0015 119.37 82.8782 122.515 91.1461 122.491C92.3724 122.487 93.5754 122.176 94.642 121.571C106.777 114.686 109.876 99.092 109.876 91.8722V52.4941C109.876 50.2924 109.18 48.1079 107.684 46.4928C96.389 34.3015 84.388 39.8014 77.8384 45.8852C76.1386 47.464 75.3752 49.7564 75.3752 52.0763Z" fill="white"/>
<path d="M51.1514 105.926C51.3863 105.994 51.6312 106.059 51.8854 106.12M51.8854 106.12C58.328 107.675 70.6914 106.98 75.0181 93.1168C75.2737 92.298 75.3752 91.438 75.3752 90.5802V52.0763C75.3752 49.7564 76.1386 47.464 77.8384 45.8852C84.388 39.8014 96.389 34.3015 107.684 46.4928C109.18 48.1079 109.876 50.2924 109.876 52.4941V91.8722C109.876 99.092 106.777 114.686 94.642 121.571C93.5754 122.176 92.3724 122.487 91.1461 122.491C82.8782 122.515 66.0015 119.37 51.8854 106.12Z" stroke="white"/>
<path d="M0.5 55.5103V97.3104C0.5 99.3762 0.797925 101.46 1.54216 103.387C17.8666 145.656 79.1884 137.818 109.14 128.164C65.3231 134.269 42.7911 110.667 35.5887 95.5995C34.6208 93.5745 34.2472 91.3389 34.2093 89.0948L33.6495 56.0107C33.5737 51.5333 32.1665 46.994 28.6705 44.1957C19.9353 37.2038 11.404 39.598 5.60821 43.7059C1.9001 46.3341 0.5 50.9653 0.5 55.5103Z" fill="white"/>
<path d="M109.874 127.925C109.632 128.005 109.387 128.084 109.14 128.164M109.14 128.164C79.1884 137.818 17.8666 145.656 1.54216 103.387C0.797925 101.46 0.5 99.3762 0.5 97.3104V55.5103C0.5 50.9653 1.9001 46.3341 5.60821 43.7059C11.404 39.598 19.9353 37.2038 28.6705 44.1957C32.1665 46.994 33.5737 51.5333 33.6495 56.0107L34.2093 89.0948C34.2472 91.3389 34.6208 93.5745 35.5887 95.5995C42.7911 110.667 65.3231 134.269 109.14 128.164Z" stroke="white"/>
<ellipse cx="14.6853" cy="14.385" rx="14.6091" ry="14.385" fill="#E87D1E"/>
<ellipse cx="91.823" cy="14.385" rx="14.6091" ry="14.385" fill="#E87D1E"/>
</svg>
