<svg width="44" height="44" viewBox="0 0 44 44" fill="none" xmlns="http://www.w3.org/2000/svg">
<path d="M14.2998 3.66699H29.6998C35.5665 3.66699 40.3332 8.43366 40.3332 14.3003V29.7003C40.3332 32.5205 39.2129 35.2251 37.2187 37.2192C35.2246 39.2134 32.52 40.3337 29.6998 40.3337H14.2998C8.43317 40.3337 3.6665 35.567 3.6665 29.7003V14.3003C3.6665 11.4802 4.7868 8.77556 6.78094 6.78142C8.77507 4.78729 11.4797 3.66699 14.2998 3.66699ZM13.9332 7.33366C12.1827 7.33366 10.504 8.02901 9.26627 9.26675C8.02853 10.5045 7.33317 12.1832 7.33317 13.9337V30.067C7.33317 33.7153 10.2848 36.667 13.9332 36.667H30.0665C31.8169 36.667 33.4957 35.9716 34.7334 34.7339C35.9711 33.4962 36.6665 31.8174 36.6665 30.067V13.9337C36.6665 10.2853 33.7148 7.33366 30.0665 7.33366H13.9332ZM31.6248 10.0837C32.2326 10.0837 32.8155 10.3251 33.2453 10.7549C33.6751 11.1846 33.9165 11.7675 33.9165 12.3753C33.9165 12.9831 33.6751 13.566 33.2453 13.9958C32.8155 14.4255 32.2326 14.667 31.6248 14.667C31.017 14.667 30.4342 14.4255 30.0044 13.9958C29.5746 13.566 29.3332 12.9831 29.3332 12.3753C29.3332 11.7675 29.5746 11.1846 30.0044 10.7549C30.4342 10.3251 31.017 10.0837 31.6248 10.0837ZM21.9998 12.8337C24.431 12.8337 26.7626 13.7994 28.4816 15.5185C30.2007 17.2376 31.1665 19.5692 31.1665 22.0003C31.1665 24.4315 30.2007 26.7631 28.4816 28.4821C26.7626 30.2012 24.431 31.167 21.9998 31.167C19.5687 31.167 17.2371 30.2012 15.518 28.4821C13.7989 26.7631 12.8332 24.4315 12.8332 22.0003C12.8332 19.5692 13.7989 17.2376 15.518 15.5185C17.2371 13.7994 19.5687 12.8337 21.9998 12.8337ZM21.9998 16.5003C20.5411 16.5003 19.1422 17.0798 18.1107 18.1112C17.0793 19.1427 16.4998 20.5416 16.4998 22.0003C16.4998 23.459 17.0793 24.858 18.1107 25.8894C19.1422 26.9209 20.5411 27.5003 21.9998 27.5003C23.4585 27.5003 24.8575 26.9209 25.8889 25.8894C26.9204 24.858 27.4998 23.459 27.4998 22.0003C27.4998 20.5416 26.9204 19.1427 25.8889 18.1112C24.8575 17.0798 23.4585 16.5003 21.9998 16.5003Z" fill="white"/>
</svg>
