<svg preserveAspectRatio="none" width="100%" height="100%" overflow="visible" style="display: block;" viewBox="0 0 34 34" fill="none" xmlns="http://www.w3.org/2000/svg">
<g id="material-symbols:carry-on-bag-rounded">
<path id="Vector" d="M21.1622 29.8393C20.7485 29.4256 20.5417 28.9236 20.5417 28.3333C20.5417 27.7431 20.7485 27.2416 21.1622 26.8288C21.5758 26.4161 22.0773 26.2093 22.6667 26.2083C23.256 26.2074 23.758 26.4142 24.1726 26.8288C24.5872 27.2434 24.7936 27.7449 24.7917 28.3333C24.7898 28.9217 24.5834 29.4237 24.1726 29.8393C23.7617 30.2548 23.2598 30.4612 22.6667 30.4583C22.0736 30.4555 21.5721 30.2491 21.1622 29.8393ZM11.3333 29.75C10.5542 29.75 9.88739 29.4728 9.333 28.9184C8.77861 28.364 8.50094 27.6968 8.5 26.9167V12.75C8.5 11.9708 8.77767 11.3041 9.333 10.7497C9.88833 10.1953 10.5551 9.91761 11.3333 9.91667H12.75V29.75H11.3333ZM14.875 29.75V9.91667H19.8333V5.66667H18.4167C18.0153 5.66667 17.6791 5.53067 17.408 5.25867C17.1369 4.98667 17.0009 4.65044 17 4.25C16.9991 3.84956 17.1351 3.51333 17.408 3.24133C17.6809 2.96933 18.0172 2.83333 18.4167 2.83333H21.25C21.6514 2.83333 21.9881 2.96933 22.2601 3.24133C22.5321 3.51333 22.6676 3.84956 22.6667 4.25V24.0833C21.4861 24.0833 20.4826 24.4965 19.6562 25.3229C18.8299 26.1493 18.4167 27.1528 18.4167 28.3333C18.4167 28.5931 18.4346 28.8353 18.4705 29.0601C18.5064 29.2849 18.5711 29.5148 18.6646 29.75H14.875Z" fill="var(--fill-0, #E87D1E)"/>
</g>
</svg>
