<svg preserveAspectRatio="none" width="100%" height="100%" overflow="visible" style="display: block;" viewBox="0 0 24.8333 23.6643" fill="none" xmlns="http://www.w3.org/2000/svg">
<g id="Group">
<path id="Vector" d="M0.769834 18.2488C3.3365 18.2488 5.41667 20.3267 5.41667 22.8933M19.4167 22.8945V22.7872C19.4167 22.1912 19.5341 21.601 19.7621 21.0504C19.9902 20.4998 20.3245 19.9995 20.7459 19.5781C21.1673 19.1567 21.6676 18.8224 22.2183 18.5943C22.7689 18.3662 23.359 18.2488 23.955 18.2488M5.41667 6.602C5.41667 9.16867 3.3365 11.2477 0.769834 11.2477M19.4167 6.602C19.4167 9.14533 21.4805 11.2115 24.0157 11.2477" stroke="var(--stroke-0, #1A3047)" stroke-width="1.5" stroke-linecap="round" stroke-linejoin="round"/>
<path id="Vector_2" d="M18.25 6.58333C20.7875 6.59733 22.1618 6.7105 23.0578 7.6065C24.0833 8.632 24.0833 10.2817 24.0833 13.581V15.9143C24.0833 19.2148 24.0833 20.8645 23.0578 21.89C22.0335 22.9143 20.3827 22.9143 17.0833 22.9143H7.75C4.45067 22.9143 2.79983 22.9143 1.7755 21.89C0.750001 20.8622 0.750001 19.2148 0.750001 15.9143V13.581C0.750001 10.2817 0.750001 8.632 1.7755 7.6065C2.6715 6.7105 4.04583 6.59733 6.58333 6.58217" stroke="var(--stroke-0, #1A3047)" stroke-width="1.5" stroke-linecap="round" stroke-linejoin="round"/>
<path id="Vector_3" d="M9.5 3.66667C9.5 3.66667 11.6 0.75 12.4167 0.75C13.2333 0.75 15.3333 3.66667 15.3333 3.66667M12.4167 7.16667V1.33333M15.9167 14.7488C15.9167 15.6771 15.5479 16.5673 14.8915 17.2237C14.2352 17.8801 13.3449 18.2488 12.4167 18.2488C11.4884 18.2488 10.5982 17.8801 9.94179 17.2237C9.28542 16.5673 8.91667 15.6771 8.91667 14.7488C8.91667 13.8206 9.28542 12.9303 9.94179 12.274C10.5982 11.6176 11.4884 11.2488 12.4167 11.2488C13.3449 11.2488 14.2352 11.6176 14.8915 12.274C15.5479 12.9303 15.9167 13.8206 15.9167 14.7488Z" stroke="var(--stroke-0, #1A3047)" stroke-width="1.5" stroke-linecap="round" stroke-linejoin="round"/>
</g>
</svg>
