<svg width="24" height="24" viewBox="0 0 24 24" fill="none" xmlns="http://www.w3.org/2000/svg">
<path d="M21.5312 10.7195L12.5312 1.71948C12.4616 1.64974 12.3788 1.59443 12.2878 1.55668C12.1967 1.51894 12.0992 1.49951 12.0006 1.49951C11.902 1.49951 11.8044 1.51894 11.7134 1.55668C11.6223 1.59443 11.5396 1.64974 11.47 1.71948L2.46997 10.7195C2.36496 10.8244 2.29343 10.9581 2.26444 11.1036C2.23546 11.2492 2.25031 11.4001 2.30712 11.5372C2.36394 11.6743 2.46016 11.7915 2.5836 11.8739C2.70705 11.9563 2.85217 12.0002 3.00059 12.0001H6.75059V19.5001C6.75059 19.8979 6.90863 20.2795 7.18993 20.5608C7.47124 20.8421 7.85277 21.0001 8.25059 21.0001H15.7506C16.1484 21.0001 16.5299 20.8421 16.8113 20.5608C17.0926 20.2795 17.2506 19.8979 17.2506 19.5001V12.0001H21.0006C21.149 12.0002 21.2941 11.9563 21.4176 11.8739C21.541 11.7915 21.6372 11.6743 21.6941 11.5372C21.7509 11.4001 21.7657 11.2492 21.7367 11.1036C21.7078 10.9581 21.6362 10.8244 21.5312 10.7195ZM16.5006 10.5001C16.3017 10.5001 16.1109 10.5791 15.9703 10.7198C15.8296 10.8604 15.7506 11.0512 15.7506 11.2501V19.5001H8.25059V11.2501C8.25059 11.0512 8.17157 10.8604 8.03092 10.7198C7.89027 10.5791 7.6995 10.5001 7.50059 10.5001H4.8109L12.0006 3.31041L19.1903 10.5001H16.5006Z" fill="white"/>
</svg>
