<svg width="24" height="24" viewBox="0 0 24 24" fill="none" xmlns="http://www.w3.org/2000/svg">
<path d="M8.25 6.75C8.25 6.55109 8.32902 6.36032 8.46967 6.21967C8.61032 6.07902 8.80109 6 9 6H15C15.1989 6 15.3897 6.07902 15.5303 6.21967C15.671 6.36032 15.75 6.55109 15.75 6.75C15.75 6.94891 15.671 7.13968 15.5303 7.28033C15.3897 7.42098 15.1989 7.5 15 7.5H9C8.80109 7.5 8.61032 7.42098 8.46967 7.28033C8.32902 7.13968 8.25 6.94891 8.25 6.75ZM9 10.5H15C15.1989 10.5 15.3897 10.421 15.5303 10.2803C15.671 10.1397 15.75 9.94891 15.75 9.75C15.75 9.55109 15.671 9.36032 15.5303 9.21967C15.3897 9.07902 15.1989 9 15 9H9C8.80109 9 8.61032 9.07902 8.46967 9.21967C8.32902 9.36032 8.25 9.55109 8.25 9.75C8.25 9.94891 8.32902 10.1397 8.46967 10.2803C8.61032 10.421 8.80109 10.5 9 10.5ZM19.5 3.75V20.25C19.5 20.6478 19.342 21.0294 19.0607 21.3107C18.7794 21.592 18.3978 21.75 18 21.75H6C5.60218 21.75 5.22064 21.592 4.93934 21.3107C4.65804 21.0294 4.5 20.6478 4.5 20.25V3.75C4.5 3.35218 4.65804 2.97064 4.93934 2.68934C5.22064 2.40804 5.60218 2.25 6 2.25H18C18.3978 2.25 18.7794 2.40804 19.0607 2.68934C19.342 2.97064 19.5 3.35218 19.5 3.75ZM18 3.75H6V20.25H18V3.75ZM12 15.75C11.7775 15.75 11.56 15.816 11.375 15.9396C11.19 16.0632 11.0458 16.2389 10.9606 16.4445C10.8755 16.65 10.8532 16.8762 10.8966 17.0945C10.94 17.3127 11.0472 17.5132 11.2045 17.6705C11.3618 17.8278 11.5623 17.935 11.7805 17.9784C11.9988 18.0218 12.225 17.9995 12.4305 17.9144C12.6361 17.8292 12.8118 17.685 12.9354 17.5C13.059 17.315 13.125 17.0975 13.125 16.875C13.125 16.5766 13.0065 16.2905 12.7955 16.0795C12.5845 15.8685 12.2984 15.75 12 15.75Z" fill="white"/>
</svg>
