<svg width="19" height="23" viewBox="0 0 19 23" fill="none" xmlns="http://www.w3.org/2000/svg">
<path d="M12.6296 11.2533V13.5923C12.6296 14.4501 12.5956 15.3541 12.1088 16.0604C11.2133 17.3598 9.68915 17.4014 8.824 17.1926C10.4207 18.6913 12.2354 19.392 13.6413 19.6772C14.8431 19.9209 16.1532 19.6437 16.9244 18.6903C17.9286 17.4487 18.2191 15.774 18.2191 14.8843V11.1694C18.2191 9.08463 17.1038 6.06513 15.0443 6.38846C12.8743 6.72915 12.6296 9.05676 12.6296 11.2533Z" fill="#1A3047"/>
<path d="M8.70508 17.1612C8.74313 17.1722 8.78282 17.1827 8.824 17.1926M8.824 17.1926C9.68915 17.4014 11.2133 17.3598 12.1088 16.0604C12.5956 15.3541 12.6296 14.4501 12.6296 13.5923V11.2533C12.6296 9.05676 12.8743 6.72915 15.0443 6.38846C17.1038 6.06513 18.2191 9.08463 18.2191 11.1694V14.8843C18.2191 15.774 17.9286 17.4487 16.9244 18.6903C16.1532 19.6437 14.8431 19.9209 13.6413 19.6772C12.2354 19.392 10.4207 18.6913 8.824 17.1926Z" stroke="#1A3047"/>
<path d="M0.5 11.0329V13.683C0.5 15.3975 0.639044 17.1958 1.66779 18.5673C5.24844 23.3409 13.7333 22.1715 18.1009 20.7638C12.345 21.5657 8.85627 19.2036 7.12022 16.98C6.17778 15.7728 5.95731 14.2014 5.9314 12.6702L5.90453 11.0818C5.87025 9.05577 4.70063 6.1324 2.70487 6.4829C0.679205 6.83866 0.5 8.97622 0.5 11.0329Z" fill="#1A3047"/>
<path d="M18.2198 20.7251C18.1805 20.738 18.1409 20.7509 18.1009 20.7638M18.1009 20.7638C13.7333 22.1715 5.24844 23.3409 1.66779 18.5673C0.639044 17.1958 0.5 15.3975 0.5 13.683V11.0329C0.5 8.97622 0.679205 6.83866 2.70487 6.4829C4.70063 6.1324 5.87025 9.05577 5.90453 11.0818L5.9314 12.6702C5.95731 14.2014 6.17778 15.7728 7.12022 16.98C8.85627 19.2036 12.345 21.5657 18.1009 20.7638Z" stroke="#1A3047"/>
<ellipse cx="2.79651" cy="2.33052" rx="2.36682" ry="2.33052" fill="white"/>
<ellipse cx="15.2946" cy="2.33052" rx="2.36682" ry="2.33052" fill="white"/>
</svg>
