<svg width="45" height="49" viewBox="0 0 45 49" fill="none" xmlns="http://www.w3.org/2000/svg">
<g clip-path="url(#clip0_2027_631)">
<path d="M20.5955 23.23L0.193359 44.6053C0.422473 45.4172 0.834198 46.166 1.39706 46.7945C1.95992 47.4229 2.65902 47.9143 3.44091 48.2312C4.22281 48.548 5.06679 48.6819 5.90836 48.6226C6.74992 48.5633 7.56678 48.3123 8.29649 47.8889L31.2527 34.8146L20.5955 23.23Z" fill="#EA4335"/>
<path d="M41.2242 19.5967L31.2972 13.9106L20.123 23.7163L31.3426 34.784L41.1941 29.1589C42.0668 28.7019 42.7978 28.0148 43.3078 27.172C43.8179 26.3292 44.0875 25.3629 44.0875 24.3777C44.0875 23.3926 43.8179 22.4263 43.3078 21.5835C42.7978 20.7407 42.0668 20.0535 41.1941 19.5965L41.2242 19.5967Z" fill="#FBBC04"/>
<path d="M0.19233 4.04395C0.0690821 4.49986 0.00769522 4.97028 0.00981889 5.44256V43.2063C0.0110359 43.6784 0.072366 44.1484 0.19233 44.6051L21.2938 23.7772L0.19233 4.04395Z" fill="#4285F4"/>
<path d="M20.7456 24.3246L31.2964 13.9106L8.37064 0.775337C7.50807 0.270196 6.52703 0.00267321 5.52744 1.05599e-05C3.04684 -0.00481048 0.866007 1.64157 0.191406 4.02885L20.7456 24.3246Z" fill="#34A853"/>
</g>
<defs>
<clipPath id="clip0_2027_631">
<rect width="44.0979" height="48.7269" fill="white"/>
</clipPath>
</defs>
</svg>
