<svg width="24" height="24" viewBox="0 0 24 24" fill="none" xmlns="http://www.w3.org/2000/svg">
<g clip-path="url(#clip0_356_583)">
<path d="M5.588 13.413C5.196 13.021 5 12.55 5 12C5 11.45 5.196 10.9793 5.588 10.588C5.98 10.1967 6.45067 10.0007 7 10C7.54933 9.99933 8.02033 10.1953 8.413 10.588C8.80567 10.9807 9.00133 11.4513 9 12C8.99867 12.5487 8.803 13.0197 8.413 13.413C8.023 13.8063 7.552 14.002 7 14C6.448 13.998 5.97733 13.8023 5.588 13.413ZM7 18C5.33333 18 3.91667 17.4167 2.75 16.25C1.58333 15.0833 1 13.6667 1 12C1 10.3333 1.58333 8.91667 2.75 7.75C3.91667 6.58333 5.33333 6 7 6C8.11667 6 9.12933 6.275 10.038 6.825C10.9467 7.375 11.6673 8.1 12.2 9H21L24 12L19.5 16.5L17.5 15L15.5 16.5L13.375 15H12.2C11.6667 15.9 10.946 16.625 10.038 17.175C9.13 17.725 8.11733 18 7 18ZM7 16C7.93333 16 8.75433 15.7167 9.463 15.15C10.1717 14.5833 10.6423 13.8667 10.875 13H14L15.45 14.025L17.5 12.5L19.275 13.875L21.15 12L20.15 11H10.875C10.6417 10.1333 10.171 9.41667 9.463 8.85C8.755 8.28333 7.934 8 7 8C5.9 8 4.95833 8.39167 4.175 9.175C3.39167 9.95833 3 10.9 3 12C3 13.1 3.39167 14.0417 4.175 14.825C4.95833 15.6083 5.9 16 7 16Z" fill="white"/>
</g>
<defs>
<clipPath id="clip0_356_583">
<rect width="24" height="24" fill="white"/>
</clipPath>
</defs>
</svg>
