<svg width="26" height="26" viewBox="0 0 26 26" fill="none" xmlns="http://www.w3.org/2000/svg">
<path fill-rule="evenodd" clip-rule="evenodd" d="M12.9993 2.1665C18.9826 2.1665 23.8327 7.01659 23.8327 12.9998C23.8327 18.9831 18.9826 23.8332 12.9993 23.8332C7.0161 23.8332 2.16602 18.9831 2.16602 12.9998C2.16602 7.01659 7.0161 2.1665 12.9993 2.1665ZM14.0827 4.40034V5.4165C14.0824 5.69262 13.9766 5.95821 13.7871 6.15899C13.5975 6.35977 13.3385 6.48059 13.0628 6.49677C12.7872 6.51296 12.5158 6.42327 12.304 6.24605C12.0923 6.06883 11.9562 5.81744 11.9236 5.54325L11.916 5.4165V4.40034C10.0546 4.6354 8.31962 5.46779 6.97145 6.7726C5.62327 8.07742 4.73462 9.78427 4.43885 11.637L4.39985 11.9165H5.41602C5.69214 11.9168 5.95772 12.0225 6.1585 12.2121C6.35928 12.4016 6.4801 12.6607 6.49629 12.9363C6.51247 13.212 6.42278 13.4834 6.24556 13.6952C6.06834 13.9069 5.81695 14.043 5.54277 14.0756L5.41602 14.0832H4.39985C4.66162 16.1537 5.66165 18.0602 7.21625 19.4526C8.77085 20.845 10.7756 21.6297 12.8624 21.6626C14.9491 21.6956 16.9776 20.9745 18.5754 19.6319C20.1732 18.2892 21.2329 16.4152 21.5599 14.354L21.5989 14.0832H20.5827C20.3066 14.0829 20.041 13.9771 19.8402 13.7876C19.6394 13.598 19.5186 13.339 19.5024 13.0633C19.4862 12.7877 19.5759 12.5163 19.7531 12.3045C19.9304 12.0928 20.1817 11.9567 20.4559 11.9241L20.5827 11.9165H21.5989C21.3624 10.0274 20.509 8.2692 19.1711 6.91475L16.5451 12.0703L16.3772 12.3888L16.0413 13.0497C15.6405 13.8297 15.205 14.6248 14.6081 15.2218C13.5551 16.2737 11.8044 16.4015 10.7016 15.2976C9.59768 14.1948 9.72552 12.4441 10.7774 11.3911C11.2888 10.8798 11.9453 10.4865 12.6148 10.1323L13.6103 9.622L14.5301 9.141L19.0833 6.82809C17.7292 5.49038 15.9714 4.63699 14.0827 4.40034ZM14.2582 11.741L14.0307 11.8623L13.7967 11.9848C13.3612 12.2112 12.9062 12.4463 12.527 12.7409L12.3093 12.9251L12.2302 13.0161C12.0211 13.2978 12.0839 13.6163 12.2334 13.7658C12.3829 13.9153 12.7014 13.9781 12.9831 13.769L13.0763 13.6888L13.2583 13.4722C13.4934 13.1688 13.6916 12.8168 13.8769 12.4647L14.0144 12.2025C14.0953 12.0436 14.1766 11.8898 14.2582 11.741Z" fill="white"/>
</svg>
