<svg preserveAspectRatio="none" width="100%" height="100%" overflow="visible" style="display: block;" viewBox="0 0 14.2364 18.4029" fill="none" xmlns="http://www.w3.org/2000/svg">
<path id="Vector" fill-rule="evenodd" clip-rule="evenodd" d="M6.56084 0.230666C6.70873 0.0829631 6.90919 0 7.11821 0C7.32722 0 7.52769 0.0829631 7.67557 0.230666L13.9854 6.54047C14.0629 6.61268 14.125 6.69976 14.1681 6.79651C14.2112 6.89326 14.2344 6.9977 14.2363 7.1036C14.2382 7.2095 14.2187 7.3147 14.179 7.41291C14.1393 7.51112 14.0803 7.60033 14.0054 7.67523C13.9305 7.75012 13.8413 7.80917 13.7431 7.84884C13.6449 7.8885 13.5397 7.90799 13.4338 7.90612C13.3279 7.90425 13.2234 7.88107 13.1267 7.83796C13.0299 7.79485 12.9429 7.7327 12.8706 7.65521L7.90693 2.69149V17.6142C7.90693 17.8234 7.82383 18.024 7.67592 18.1719C7.528 18.3198 7.32739 18.4029 7.11821 18.4029C6.90902 18.4029 6.70841 18.3198 6.56049 18.1719C6.41258 18.024 6.32948 17.8234 6.32948 17.6142V2.69149L1.36577 7.65521C1.29356 7.7327 1.20648 7.79485 1.10973 7.83796C1.01298 7.88107 0.908542 7.90425 0.80264 7.90612C0.696737 7.90799 0.591543 7.8885 0.493333 7.84884C0.395122 7.80917 0.305908 7.75012 0.231012 7.67523C0.156116 7.60033 0.0970725 7.51112 0.0574038 7.41291C0.0177351 7.3147 -0.00174578 7.2095 0.000122749 7.1036C0.00199128 6.9977 0.0251709 6.89326 0.0682795 6.79651C0.111388 6.69976 0.173542 6.61268 0.251033 6.54047L6.56084 0.230666Z" fill="var(--fill-0, #1A3047)"/>
</svg>
