<svg preserveAspectRatio="none" width="100%" height="100%" overflow="visible" style="display: block;" viewBox="0 0 13.5 16.6605" fill="none" xmlns="http://www.w3.org/2000/svg">
<path id="Vector" d="M5.33625 15.6082C5.79075 15.9832 6.26475 16.326 6.75 16.6605C7.2363 16.3304 7.70799 15.9793 8.16375 15.6082C8.9235 14.9844 9.63851 14.308 10.3035 13.584C11.8365 11.9077 13.5 9.47775 13.5 6.75C13.5 5.86358 13.3254 4.98583 12.9862 4.16689C12.647 3.34794 12.1498 2.60382 11.523 1.97703C10.8962 1.35023 10.1521 0.853032 9.33311 0.513813C8.51417 0.174594 7.63642 0 6.75 0C5.86358 0 4.98583 0.174594 4.16689 0.513813C3.34794 0.853032 2.60382 1.35023 1.97703 1.97703C1.35023 2.60382 0.853032 3.34794 0.513813 4.16689C0.174594 4.98583 -1.32087e-08 5.86358 0 6.75C0 9.47775 1.6635 11.907 3.1965 13.584C3.86147 14.3083 4.57647 14.9842 5.33625 15.6082ZM6.75 9.1875C6.10353 9.1875 5.48355 8.93069 5.02643 8.47357C4.56931 8.01645 4.3125 7.39646 4.3125 6.75C4.3125 6.10353 4.56931 5.48355 5.02643 5.02643C5.48355 4.56931 6.10353 4.3125 6.75 4.3125C7.39647 4.3125 8.01645 4.56931 8.47357 5.02643C8.93069 5.48355 9.1875 6.10353 9.1875 6.75C9.1875 7.39646 8.93069 8.01645 8.47357 8.47357C8.01645 8.93069 7.39647 9.1875 6.75 9.1875Z" fill="var(--fill-0, #E87D1E)"/>
</svg>
