<svg width="48" height="48" viewBox="0 0 48 48" fill="none" xmlns="http://www.w3.org/2000/svg">
<path d="M8.18906 40.1109L14.5312 37.9969L15.6422 38.55C18.2387 39.8407 21.1004 40.5083 24 40.5C33.9281 40.5 42 32.6813 42 24C42 15.3188 33.9281 7.5 24 7.5C14.0719 7.5 6 15.3188 6 24C6 27.2391 7.17188 30.5297 9.31875 33.3375L10.3594 34.6875L8.18906 40.1109ZM6.07031 43.9781C5.79896 44.0692 5.50723 44.0807 5.22954 44.0113C4.95186 43.9419 4.69982 43.7946 4.50318 43.5866C4.30654 43.3786 4.17351 43.1187 4.11979 42.8376C4.06607 42.5565 4.0939 42.2658 4.2 42L6.9375 35.1563C4.43906 31.8938 3 27.9844 3 24C3 14.0578 12 4.5 24 4.5C36 4.5 45 14.0578 45 24C45 33.9422 36 43.5 24 43.5C20.633 43.51 17.3103 42.7331 14.2969 41.2313L6.07031 43.9781Z" fill="white"/>
<path d="M23.9996 26.4001C23.6844 26.4001 23.3724 26.338 23.0812 26.2174C22.79 26.0968 22.5254 25.92 22.3026 25.6972C22.0797 25.4743 21.9029 25.2097 21.7823 24.9185C21.6617 24.6274 21.5996 24.3153 21.5996 24.0001C21.5996 23.6849 21.6617 23.3728 21.7823 23.0817C21.9029 22.7905 22.0797 22.5259 22.3026 22.303C22.5254 22.0802 22.79 21.9034 23.0812 21.7828C23.3724 21.6622 23.6844 21.6001 23.9996 21.6001C24.6361 21.6001 25.2466 21.853 25.6967 22.303C26.1468 22.7531 26.3996 23.3636 26.3996 24.0001C26.3996 24.6366 26.1468 25.2471 25.6967 25.6972C25.2466 26.1472 24.6361 26.4001 23.9996 26.4001ZM32.9996 26.4001C32.6844 26.4001 32.3724 26.338 32.0812 26.2174C31.79 26.0968 31.5254 25.92 31.3026 25.6972C31.0797 25.4743 30.9029 25.2097 30.7823 24.9185C30.6617 24.6274 30.5996 24.3153 30.5996 24.0001C30.5996 23.6849 30.6617 23.3728 30.7823 23.0817C30.9029 22.7905 31.0797 22.5259 31.3026 22.303C31.5254 22.0802 31.79 21.9034 32.0812 21.7828C32.3724 21.6622 32.6844 21.6001 32.9996 21.6001C33.6361 21.6001 34.2466 21.853 34.6967 22.303C35.1468 22.7531 35.3996 23.3636 35.3996 24.0001C35.3996 24.6366 35.1468 25.2471 34.6967 25.6972C34.2466 26.1472 33.6361 26.4001 32.9996 26.4001ZM14.9996 26.4001C14.6844 26.4001 14.3724 26.338 14.0812 26.2174C13.79 26.0968 13.5254 25.92 13.3026 25.6972C13.0797 25.4743 12.9029 25.2097 12.7823 24.9185C12.6617 24.6274 12.5996 24.3153 12.5996 24.0001C12.5996 23.6849 12.6617 23.3728 12.7823 23.0817C12.9029 22.7905 13.0797 22.5259 13.3026 22.303C13.5254 22.0802 13.79 21.9034 14.0812 21.7828C14.3724 21.6622 14.6844 21.6001 14.9996 21.6001C15.6361 21.6001 16.2466 21.853 16.6967 22.303C17.1468 22.7531 17.3996 23.3636 17.3996 24.0001C17.3996 24.6366 17.1468 25.2471 16.6967 25.6972C16.2466 26.1472 15.6361 26.4001 14.9996 26.4001Z" fill="white"/>
</svg>
