<svg width="54" height="54" viewBox="0 0 54 54" fill="none" xmlns="http://www.w3.org/2000/svg">
<path fill-rule="evenodd" clip-rule="evenodd" d="M44.55 22.905C43.8526 15.75 39.6225 4.5 26.5501 4.5C13.4776 4.5 9.24752 15.75 8.55005 22.905C6.10318 23.8337 4.48919 26.1829 4.50005 28.8V31.95C4.50005 35.4294 7.32071 38.25 10.8 38.25C14.2794 38.25 17.1001 35.4293 17.1001 31.95V28.8C17.0887 26.2393 15.5341 23.9384 13.1625 22.9725C13.6126 18.8325 15.8176 9.00004 26.5501 9.00004C37.2826 9.00004 39.4651 18.8325 39.9151 22.9725C37.5484 23.9405 36.0016 26.243 36.0001 28.8V31.95C36.0049 33.1355 36.3429 34.2957 36.9755 35.2982C37.608 36.3008 38.5097 37.1053 39.5776 37.62C38.6326 39.3975 36.2251 41.805 30.3075 42.525C29.1247 40.7288 26.8361 40.0207 24.8455 40.835C22.855 41.6493 21.7188 43.7583 22.1339 45.8685C22.549 47.9788 24.3994 49.5 26.5501 49.5C27.3834 49.4954 28.1991 49.2594 28.9063 48.8184C29.6134 48.3775 30.1842 47.7488 30.5551 47.0025C40.2076 45.9 43.2901 40.9275 44.2576 38.0025C46.875 37.1546 48.6354 34.7012 48.6 31.95V28.8C48.6109 26.1829 46.9969 23.8337 44.55 22.905ZM12.6001 31.95C12.6001 32.9441 11.7942 33.75 10.8 33.75C9.80587 33.75 9.00009 32.9442 9.00009 31.95V28.8C8.99827 28.5625 9.04349 28.3269 9.13313 28.1069C9.22277 27.887 9.35507 27.6869 9.52239 27.5183C9.68972 27.3497 9.88876 27.2159 10.108 27.1245C10.3273 27.0332 10.5625 26.9862 10.8001 26.9862C11.0376 26.9862 11.2728 27.0332 11.4921 27.1245C11.7114 27.2159 11.9104 27.3497 12.0778 27.5183C12.2451 27.6869 12.3774 27.887 12.467 28.1069C12.5567 28.3269 12.6019 28.5625 12.6001 28.8V31.95ZM40.5 28.8C40.5 27.8059 41.3059 27 42.3001 27C43.2942 27 44.1001 27.8059 44.1001 28.8V31.95C44.1001 32.9441 43.2942 33.75 42.3001 33.75C41.3059 33.75 40.5 32.9442 40.5 31.95V28.8Z" fill="white"/>
</svg>
