<svg width="44" height="44" viewBox="0 0 44 44" fill="none" xmlns="http://www.w3.org/2000/svg">
<path fill-rule="evenodd" clip-rule="evenodd" d="M41.1125 10.131L23.7518 24.508C23.2584 24.9167 22.6379 25.1404 21.9972 25.1404C21.3566 25.1404 20.7361 24.9167 20.2428 24.508L2.89025 10.131C2.79714 10.4113 2.74979 10.7047 2.75 11V33C2.75 33.7293 3.03973 34.4288 3.55546 34.9445C4.07118 35.4603 4.77065 35.75 5.5 35.75H38.5C39.2293 35.75 39.9288 35.4603 40.4445 34.9445C40.9603 34.4288 41.25 33.7293 41.25 33V11C41.2511 10.7048 41.2047 10.4114 41.1125 10.131ZM5.5 5.5H38.5C39.9587 5.5 41.3576 6.07946 42.3891 7.11091C43.4205 8.14236 44 9.54131 44 11V33C44 34.4587 43.4205 35.8576 42.3891 36.8891C41.3576 37.9205 39.9587 38.5 38.5 38.5H5.5C4.04131 38.5 2.64236 37.9205 1.61091 36.8891C0.579463 35.8576 0 34.4587 0 33V11C0 9.54131 0.579463 8.14236 1.61091 7.11091C2.64236 6.07946 4.04131 5.5 5.5 5.5ZM4.9225 8.25L20.2565 20.9083C20.7476 21.3139 21.3643 21.5365 22.0013 21.538C22.6382 21.5395 23.256 21.3198 23.749 20.9165L39.237 8.25H4.9225Z" fill="white"/>
</svg>
