<svg preserveAspectRatio="none" width="100%" height="100%" overflow="visible" style="display: block;" viewBox="0 0 10.8897 14.0767" fill="none" xmlns="http://www.w3.org/2000/svg">
<path id="Vector" fill-rule="evenodd" clip-rule="evenodd" d="M5.0185 0.17644C5.13162 0.0634598 5.28496 0 5.44483 0C5.60471 0 5.75805 0.0634598 5.87117 0.17644L10.6976 5.00292C10.7569 5.05815 10.8045 5.12475 10.8374 5.19876C10.8704 5.27277 10.8881 5.35265 10.8896 5.43366C10.891 5.51467 10.8761 5.59513 10.8458 5.67026C10.8154 5.74538 10.7703 5.81362 10.713 5.87091C10.6557 5.9282 10.5874 5.97336 10.5123 6.0037C10.4372 6.03405 10.3567 6.04895 10.2757 6.04752C10.1947 6.04609 10.1148 6.02836 10.0408 5.99539C9.96681 5.96241 9.9002 5.91487 9.84497 5.85559L6.04814 2.05877V13.4734C6.04814 13.6334 5.98458 13.7868 5.87144 13.9C5.7583 14.0131 5.60484 14.0767 5.44483 14.0767C5.28483 14.0767 5.13137 14.0131 5.01823 13.9C4.90509 13.7868 4.84153 13.6334 4.84153 13.4734V2.05877L1.0447 5.85559C0.989465 5.91487 0.922859 5.96241 0.848853 5.99539C0.774848 6.02836 0.694959 6.04609 0.613952 6.04752C0.532946 6.04895 0.452481 6.03405 0.377358 6.0037C0.302236 5.97336 0.233994 5.9282 0.176705 5.87091C0.119416 5.81362 0.0742524 5.74538 0.0439091 5.67026C0.0135659 5.59513 -0.00133537 5.51467 9.3893e-05 5.43366C0.00152316 5.35265 0.0192536 5.27277 0.0522281 5.19876C0.0852026 5.12475 0.132745 5.05815 0.19202 5.00292L5.0185 0.17644Z" fill="var(--fill-0, #1A3047)"/>
</svg>
