<svg preserveAspectRatio="none" width="100%" height="100%" overflow="visible" style="display: block;" viewBox="0 0 12.4425 11.9258" fill="none" xmlns="http://www.w3.org/2000/svg">
<g id="Layer 2">
<path id="Vector" d="M2.82188 11.9258C2.71369 11.9261 2.6068 11.9023 2.509 11.856C2.41121 11.8098 2.32499 11.7422 2.25664 11.6584C2.18829 11.5745 2.13955 11.4764 2.11396 11.3713C2.08837 11.2662 2.08659 11.1567 2.10875 11.0508L2.69063 7.64704L0.218753 5.24516C0.121899 5.15055 0.0534234 5.03074 0.0210563 4.89927C-0.0113108 4.7678 -0.00628047 4.62989 0.0355795 4.50113C0.0774394 4.37236 0.154462 4.25787 0.257952 4.17056C0.361441 4.08325 0.487277 4.02661 0.621253 4.00704L4.02938 3.51266L5.55625 0.415163C5.61513 0.290949 5.70806 0.185997 5.82423 0.112505C5.9404 0.0390132 6.07504 0 6.2125 0C6.34997 0 6.48461 0.0390132 6.60078 0.112505C6.71694 0.185997 6.80987 0.290949 6.86875 0.415163L8.40438 3.51266L11.8213 4.01141C11.9552 4.03099 12.0811 4.08763 12.1846 4.17493C12.288 4.26224 12.3651 4.37674 12.4069 4.5055C12.4488 4.63427 12.4538 4.77217 12.4214 4.90364C12.3891 5.03512 12.3206 5.15492 12.2238 5.24954L9.75188 7.66016L10.325 11.0508C10.3478 11.1836 10.3332 11.3201 10.2829 11.4451C10.2325 11.5701 10.1484 11.6787 10.0399 11.7586C9.93138 11.8385 9.80277 11.8866 9.66846 11.8976C9.53415 11.9086 9.39943 11.882 9.27938 11.8208L6.21688 10.2152L3.15438 11.8208C3.05379 11.8824 2.93963 11.9185 2.82188 11.9258V11.9258ZM1.05 4.82954L3.36 7.08266C3.44488 7.16455 3.5084 7.26599 3.54501 7.3781C3.58162 7.49021 3.5902 7.60959 3.57 7.72579L3.02313 10.902L5.88 9.40141C5.98395 9.34699 6.09954 9.31856 6.21688 9.31856C6.33421 9.31856 6.4498 9.34699 6.55375 9.40141L9.41063 10.902L8.86375 7.72141C8.84356 7.60522 8.85214 7.48584 8.88875 7.37373C8.92536 7.26161 8.98888 7.16018 9.07375 7.07829L11.3838 4.82516L8.19 4.36141C8.07339 4.3444 7.96266 4.29927 7.86738 4.22991C7.77211 4.16055 7.69514 4.06904 7.64313 3.96329L6.21688 1.07579L4.79063 3.96766C4.73862 4.07342 4.66165 4.16492 4.56637 4.23428C4.47109 4.30365 4.36037 4.34878 4.24375 4.36579L1.05 4.82954Z" fill="var(--fill-0, #E87D1E)"/>
<path id="Vector_2" d="M6.47501 0.60767L8.03688 3.77517C8.05737 3.81669 8.08754 3.85267 8.12485 3.88008C8.16216 3.90749 8.20552 3.92553 8.25126 3.93267L11.7513 4.44017C11.8026 4.44983 11.8504 4.47325 11.8895 4.50793C11.9286 4.54262 11.9576 4.58727 11.9733 4.63712C11.989 4.68696 11.9909 4.74015 11.9788 4.79099C11.9666 4.84183 11.9409 4.88842 11.9044 4.9258L9.37563 7.38892C9.34237 7.4214 9.31745 7.46143 9.30298 7.50561C9.28851 7.54979 9.28491 7.59681 9.29251 7.64267L9.88751 11.1427C9.8989 11.1982 9.8937 11.2558 9.87256 11.3084C9.85142 11.361 9.81528 11.4062 9.76864 11.4384C9.72199 11.4705 9.66691 11.4883 9.61025 11.4894C9.5536 11.4905 9.49787 11.4749 9.45001 11.4445L6.32626 9.79955C6.28506 9.77807 6.23928 9.76686 6.19282 9.76686C6.14636 9.76686 6.10059 9.77807 6.05938 9.79955L2.95751 11.4314C2.90965 11.4618 2.85392 11.4774 2.79726 11.4763C2.74061 11.4752 2.68552 11.4574 2.63888 11.4252C2.59224 11.3931 2.5561 11.3479 2.53496 11.2953C2.51382 11.2427 2.50862 11.1851 2.52001 11.1295L3.11501 7.62955C3.1226 7.58368 3.11901 7.53666 3.10454 7.49248C3.09007 7.44831 3.06514 7.40828 3.03188 7.3758L0.529384 4.9258C0.491573 4.88826 0.464884 4.841 0.45227 4.78924C0.439656 4.73747 0.441608 4.68323 0.457912 4.63251C0.474215 4.58179 0.504233 4.53657 0.544645 4.50185C0.585056 4.46713 0.634285 4.44427 0.686884 4.4358L4.18688 3.9283C4.23263 3.92115 4.27598 3.90311 4.31329 3.8757C4.3506 3.84829 4.38077 3.81231 4.40126 3.7708L5.96313 0.603295C5.98796 0.556741 6.02506 0.517876 6.07041 0.490923C6.11577 0.46397 6.16764 0.449958 6.2204 0.450409C6.27315 0.45086 6.32478 0.465756 6.36967 0.493481C6.41455 0.521205 6.45099 0.560698 6.47501 0.60767V0.60767Z" fill="var(--fill-0, #E87D1E)"/>
</g>
</svg>
