<svg preserveAspectRatio="none" width="100%" height="100%" overflow="visible" style="display: block;" viewBox="0 0 32.3333 30.7886" fill="none" xmlns="http://www.w3.org/2000/svg">
<g id="Group">
<path id="Vector" d="M0.776209 23.8735C4.16788 23.8735 6.91667 26.6192 6.91667 30.0108M25.4167 30.0124V29.8705C25.4167 29.083 25.5718 28.3032 25.8732 27.5756C26.1746 26.848 26.6163 26.1868 27.1732 25.63C27.7301 25.0731 28.3912 24.6313 29.1188 24.33C29.8464 24.0286 30.6262 23.8735 31.4138 23.8735M6.91667 8.483C6.91667 11.8747 4.16788 14.6219 0.776209 14.6219M25.4167 8.483C25.4167 11.8438 28.1439 14.5741 31.4939 14.6219" stroke="var(--stroke-0, #16B55B)" stroke-width="1.5" stroke-linecap="round" stroke-linejoin="round"/>
<path id="Vector_2" d="M23.875 8.45833C27.2281 8.47683 29.0442 8.62638 30.2282 9.81038C31.5833 11.1655 31.5833 13.3454 31.5833 17.7052V20.7886C31.5833 25.15 31.5833 27.3299 30.2282 28.685C28.8746 30.0386 26.6932 30.0386 22.3333 30.0386H10C5.64017 30.0386 3.45871 30.0386 2.10513 28.685C0.75 27.3268 0.75 25.15 0.75 20.7886V17.7052C0.75 13.3454 0.75 11.1655 2.10513 9.81038C3.28913 8.62638 5.10521 8.47683 8.45833 8.45679" stroke="var(--stroke-0, #16B55B)" stroke-width="1.5" stroke-linecap="round" stroke-linejoin="round"/>
<path id="Vector_3" d="M12.3125 4.60417C12.3125 4.60417 15.0875 0.75 16.1667 0.75C17.2458 0.75 20.0208 4.60417 20.0208 4.60417M16.1667 9.22917V1.52083M20.7917 19.2485C20.7917 20.4751 20.3044 21.6515 19.437 22.5188C18.5697 23.3862 17.3933 23.8735 16.1667 23.8735C14.94 23.8735 13.7637 23.3862 12.8963 22.5188C12.0289 21.6515 11.5417 20.4751 11.5417 19.2485C11.5417 18.0218 12.0289 16.8454 12.8963 15.9781C13.7637 15.1107 14.94 14.6235 16.1667 14.6235C17.3933 14.6235 18.5697 15.1107 19.437 15.9781C20.3044 16.8454 20.7917 18.0218 20.7917 19.2485Z" stroke="var(--stroke-0, #16B55B)" stroke-width="1.5" stroke-linecap="round" stroke-linejoin="round"/>
</g>
</svg>
