<svg preserveAspectRatio="none" width="100%" height="100%" overflow="visible" style="display: block;" viewBox="0 0 35 35" fill="none" xmlns="http://www.w3.org/2000/svg">
<g id="ic:round-local-hotel">
<path id="Vector" d="M10.2083 18.9583C12.6292 18.9583 14.5833 17.0042 14.5833 14.5833C14.5833 12.1625 12.6292 10.2083 10.2083 10.2083C7.7875 10.2083 5.83333 12.1625 5.83333 14.5833C5.83333 17.0042 7.7875 18.9583 10.2083 18.9583ZM27.7083 10.2083H18.9583C17.3542 10.2083 16.0417 11.5208 16.0417 13.125V20.4167H4.375V8.75C4.375 7.94792 3.71875 7.29167 2.91667 7.29167C2.11458 7.29167 1.45833 7.94792 1.45833 8.75V27.7083C1.45833 28.5104 2.11458 29.1667 2.91667 29.1667C3.71875 29.1667 4.375 28.5104 4.375 27.7083V24.7917H30.625V27.7083C30.625 28.5104 31.2813 29.1667 32.0833 29.1667C32.8854 29.1667 33.5417 28.5104 33.5417 27.7083V16.0417C33.5417 12.8187 30.9313 10.2083 27.7083 10.2083Z" fill="var(--fill-0, #008BFF)"/>
</g>
</svg>
