<svg preserveAspectRatio="none" width="100%" height="100%" overflow="visible" style="display: block;" viewBox="0 0 26 21" fill="none" xmlns="http://www.w3.org/2000/svg">
<g id="fa6-solid:house-circle-check" clip-path="url(#clip0_0_401)">
<path id="Vector" d="M13.0285 14.4375C13.3575 10.7584 16.4201 7.875 20.1488 7.875C20.5103 7.875 20.8636 7.90371 21.2089 7.95293L12.5736 0.287109C12.3299 0.0820312 12.005 0 11.7206 0C11.4363 0 11.1114 0.0410156 10.8271 0.328125L0.408675 9.49512C0.124353 9.78223 0.00250058 10.1104 0.00250058 10.4795C0.00250058 11.2178 0.571145 11.7961 1.30226 11.7961H2.60202V14.6549C2.59796 14.6918 2.59796 14.7287 2.59796 14.7697V19.3635C2.59796 20.2699 3.32501 21.0041 4.22266 21.0041H4.87254C4.92128 21.0041 4.97002 21 5.01876 20.9959C5.07968 21 5.14061 21.0041 5.20154 21.0041H7.47205C8.3697 21.0041 9.09675 20.2699 9.09675 19.3635V15.7541C9.09675 15.0281 9.67758 14.4416 10.3965 14.4416H13.0245L13.0285 14.4375ZM25.9977 15.0938C25.9977 13.5273 25.3815 12.025 24.2846 10.9174C23.1877 9.80976 21.7 9.1875 20.1488 9.1875C18.5975 9.1875 17.1098 9.80976 16.013 10.9174C14.9161 12.025 14.2999 13.5273 14.2999 15.0938C14.2999 16.6602 14.9161 18.1625 16.013 19.2701C17.1098 20.3777 18.5975 21 20.1488 21C21.7 21 23.1877 20.3777 24.2846 19.2701C25.3815 18.1625 25.9977 16.6602 25.9977 15.0938ZM22.8823 13.3178C23.1342 13.5721 23.1342 13.9904 22.8823 14.2447L19.9579 17.1979C19.706 17.4521 19.2917 17.4521 19.0399 17.1979L17.4152 15.5572C17.1634 15.3029 17.1634 14.8846 17.4152 14.6303C17.667 14.376 18.0813 14.376 18.3332 14.6303L19.4989 15.8074L21.9644 13.3178C22.2162 13.0635 22.6305 13.0635 22.8823 13.3178Z" fill="var(--fill-0, #6059FF)"/>
</g>
<defs>
<clipPath id="clip0_0_401">
<rect width="26" height="21" fill="white"/>
</clipPath>
</defs>
</svg>
