<svg preserveAspectRatio="none" width="100%" height="100%" overflow="visible" style="display: block;" viewBox="0 0 35 35" fill="none" xmlns="http://www.w3.org/2000/svg">
<g id="fa7-solid:house-signal">
<path id="Vector" d="M29.9633 16.625H28.875V24.5C28.875 26.4305 27.3055 28 25.375 28H17.8828C16.5703 22.9852 12.7695 18.9766 7.875 17.3742V16.625H6.78672C5.93906 16.625 5.25 15.9359 5.25 15.0883C5.25 14.6727 5.41953 14.2734 5.72031 13.9836L16.8711 3.23203C17.2758 2.84375 17.8117 2.625 18.375 2.625C18.9383 2.625 19.4742 2.84375 19.8789 3.23203L31.0297 13.9836C31.3305 14.2734 31.5 14.6727 31.5 15.0883C31.5 15.9359 30.8109 16.625 29.9633 16.625ZM17.0625 14C16.3352 14 15.75 14.5852 15.75 15.3125V17.9375C15.75 18.6648 16.3352 19.25 17.0625 19.25H19.6875C20.4148 19.25 21 18.6648 21 17.9375V15.3125C21 14.5852 20.4148 14 19.6875 14H17.0625ZM3.0625 19.25C10.068 19.25 15.75 24.932 15.75 31.9375C15.75 32.6648 15.1648 33.25 14.4375 33.25C13.7102 33.25 13.125 32.6648 13.125 31.9375C13.125 26.3812 8.61875 21.875 3.0625 21.875C2.33516 21.875 1.75 21.2898 1.75 20.5625C1.75 19.8352 2.33516 19.25 3.0625 19.25ZM3.5 29.75C4.46797 29.75 5.25 30.532 5.25 31.5C5.25 32.468 4.46797 33.25 3.5 33.25C2.53203 33.25 1.75 32.468 1.75 31.5C1.75 30.532 2.53203 29.75 3.5 29.75ZM1.75 25.8125C1.75 25.0852 2.33516 24.5 3.0625 24.5C7.16953 24.5 10.5 27.8305 10.5 31.9375C10.5 32.6648 9.91484 33.25 9.1875 33.25C8.46016 33.25 7.875 32.6648 7.875 31.9375C7.875 29.2797 5.72031 27.125 3.0625 27.125C2.33516 27.125 1.75 26.5398 1.75 25.8125Z" fill="var(--fill-0, #E87D1E)"/>
</g>
</svg>
