<svg preserveAspectRatio="none" width="100%" height="100%" overflow="visible" style="display: block;" viewBox="0 0 27 27" fill="none" xmlns="http://www.w3.org/2000/svg">
<g id="ion:grid">
<path id="Vector" d="M10.7578 12.6562H3.58594C3.08244 12.6562 2.59957 12.4562 2.24354 12.1002C1.88751 11.7442 1.6875 11.2613 1.6875 10.7578V3.58594C1.6875 3.08244 1.88751 2.59957 2.24354 2.24354C2.59957 1.88751 3.08244 1.6875 3.58594 1.6875H10.7578C11.2613 1.6875 11.7442 1.88751 12.1002 2.24354C12.4562 2.59957 12.6562 3.08244 12.6562 3.58594V10.7578C12.6562 11.2613 12.4562 11.7442 12.1002 12.1002C11.7442 12.4562 11.2613 12.6562 10.7578 12.6562ZM23.4141 12.6562H16.2422C15.7387 12.6562 15.2558 12.4562 14.8998 12.1002C14.5438 11.7442 14.3438 11.2613 14.3438 10.7578V3.58594C14.3438 3.08244 14.5438 2.59957 14.8998 2.24354C15.2558 1.88751 15.7387 1.6875 16.2422 1.6875H23.4141C23.9176 1.6875 24.4004 1.88751 24.7565 2.24354C25.1125 2.59957 25.3125 3.08244 25.3125 3.58594V10.7578C25.3125 11.2613 25.1125 11.7442 24.7565 12.1002C24.4004 12.4562 23.9176 12.6562 23.4141 12.6562ZM10.7578 25.3125H3.58594C3.08244 25.3125 2.59957 25.1125 2.24354 24.7565C1.88751 24.4004 1.6875 23.9176 1.6875 23.4141V16.2422C1.6875 15.7387 1.88751 15.2558 2.24354 14.8998C2.59957 14.5438 3.08244 14.3438 3.58594 14.3438H10.7578C11.2613 14.3438 11.7442 14.5438 12.1002 14.8998C12.4562 15.2558 12.6562 15.7387 12.6562 16.2422V23.4141C12.6562 23.9176 12.4562 24.4004 12.1002 24.7565C11.7442 25.1125 11.2613 25.3125 10.7578 25.3125ZM23.4141 25.3125H16.2422C15.7387 25.3125 15.2558 25.1125 14.8998 24.7565C14.5438 24.4004 14.3438 23.9176 14.3438 23.4141V16.2422C14.3438 15.7387 14.5438 15.2558 14.8998 14.8998C15.2558 14.5438 15.7387 14.3438 16.2422 14.3438H23.4141C23.9176 14.3438 24.4004 14.5438 24.7565 14.8998C25.1125 15.2558 25.3125 15.7387 25.3125 16.2422V23.4141C25.3125 23.9176 25.1125 24.4004 24.7565 24.7565C24.4004 25.1125 23.9176 25.3125 23.4141 25.3125Z" fill="var(--fill-0, white)"/>
</g>
</svg>
