<svg width="23" height="28" viewBox="0 0 23 28" fill="none" xmlns="http://www.w3.org/2000/svg">
<path d="M15.5022 13.3033V17.1158C15.5022 17.9735 15.4513 18.8611 15.0216 19.6035C13.9454 21.4633 11.9202 21.5341 10.7955 21.2626C12.9382 23.2737 15.3984 24.123 17.1856 24.4145C18.3958 24.6119 19.68 24.3346 20.5243 23.4453C22.0008 21.8901 22.415 19.5893 22.415 18.4078V13.2325C22.415 11.0307 21.855 8.36204 19.6973 7.92413C19.2896 7.84139 18.8911 7.83948 18.5095 7.89713C16.2156 8.24363 15.5022 10.9834 15.5022 13.3033Z" fill="#1A3047"/>
<path d="M10.6484 21.2238C10.6955 21.2373 10.7446 21.2503 10.7955 21.2626M10.7955 21.2626C11.9202 21.5341 13.9454 21.4633 15.0216 19.6035C15.4513 18.8611 15.5022 17.9735 15.5022 17.1158V13.3033C15.5022 10.9834 16.2156 8.24363 18.5095 7.89713C18.8911 7.83948 19.2896 7.84139 19.6973 7.92413C21.855 8.36204 22.415 11.0307 22.415 13.2325V18.4078C22.415 19.5893 22.0008 21.8901 20.5243 23.4453C19.68 24.3346 18.3958 24.6119 17.1856 24.4145C15.3984 24.123 12.9382 23.2737 10.7955 21.2626Z" stroke="#1A3047"/>
<path d="M0.5 13.6457V17.0057C0.5 19.0715 0.67129 21.2343 1.89546 22.8983C6.29513 28.8786 16.8465 27.4281 22.2682 25.6806C15.1496 26.6724 10.8348 23.751 8.68768 21.0009C7.5221 19.5079 7.24943 17.5644 7.21738 15.6706L7.18415 13.7062C7.14175 11.2005 5.6952 7.58493 3.22691 8.01842C0.721636 8.45841 0.5 11.1021 0.5 13.6457Z" fill="#1A3047"/>
<path d="M22.4153 25.6327C22.3667 25.6486 22.3177 25.6646 22.2682 25.6806M22.2682 25.6806C16.8465 27.4281 6.29513 28.8786 1.89546 22.8983C0.67129 21.2343 0.5 19.0715 0.5 17.0057V13.6457C0.5 11.1021 0.721636 8.45841 3.22691 8.01842C5.6952 7.58493 7.14175 11.2005 7.18415 13.7062L7.21738 15.6706C7.24943 17.5644 7.5221 19.5079 8.68768 21.0009C10.8348 23.751 15.1496 26.6724 22.2682 25.6806Z" stroke="#1A3047"/>
<ellipse cx="3.34201" cy="2.88231" rx="2.92721" ry="2.88231" fill="white"/>
<ellipse cx="18.7981" cy="2.88231" rx="2.92721" ry="2.88231" fill="white"/>
</svg>
