<svg width="155.67543029785156" height="128.00038146972656"
 viewBox="85.1973 96.4756 155.67543029785156 128.00038146972656" fill="none"
 xmlns="http://www.w3.org/2000/svg">
 <path
  d="M85.1973 138.312C90.5877 136.516 102.36 135.725 106.328 146.937C110.295 158.149 117.037 159.371 119.912 158.581"
  stroke="#E87D1E" stroke-width="3" stroke-linecap="round" />
 <path
  d="M206.158 159.83C211.549 158.033 223.321 157.243 227.289 168.455C231.256 179.667 237.998 180.889 240.873 180.098"
  stroke="#E87D1E" stroke-width="3" stroke-linecap="round" />
 <g filter="url(#filter0_d_714_1472)">
  <path
   d="M157.416 121.765C159.319 119.412 162.906 119.412 164.808 121.765L168.806 126.71C169.988 128.172 171.92 128.8 173.736 128.312L179.877 126.661C182.799 125.875 185.701 127.984 185.857 131.006L186.184 137.356C186.281 139.234 187.475 140.878 189.231 141.55L195.17 143.824C197.995 144.906 199.104 148.317 197.454 150.854L193.986 156.184C192.96 157.76 192.96 159.792 193.986 161.367L197.454 166.698C199.104 169.234 197.995 172.646 195.17 173.728L189.231 176.001C187.475 176.674 186.281 178.318 186.184 180.195L185.857 186.546C185.701 189.567 182.799 191.676 179.877 190.89L173.736 189.239C171.92 188.751 169.988 189.379 168.806 190.841L164.808 195.787C162.906 198.14 159.319 198.14 157.416 195.787L153.419 190.841C152.237 189.379 150.304 188.751 148.489 189.239L142.348 190.89C139.426 191.676 136.524 189.567 136.368 186.546L136.041 180.195C135.944 178.318 134.749 176.674 132.994 176.001L127.055 173.728C124.229 172.646 123.121 169.234 124.771 166.698L128.239 161.367C129.264 159.792 129.264 157.76 128.239 156.184L124.771 150.854C123.121 148.317 124.229 144.906 127.055 143.824L132.994 141.55C134.749 140.878 135.944 139.234 136.041 137.356L136.368 131.006C136.524 127.984 139.426 125.875 142.348 126.661L148.489 128.312C150.304 128.8 152.237 128.172 153.419 126.71L157.416 121.765Z"
   fill="#E87D1E" />
 </g>
 <path d="M171.48 151.646L157.223 165.903L150.742 159.423" stroke="white" stroke-width="5"
  stroke-linecap="round" stroke-linejoin="round" />
 <path
  d="M208.461 117.763C208.648 116.628 210.279 116.628 210.466 117.763L211.044 121.272L214.553 121.85C215.688 122.037 215.688 123.668 214.553 123.855L211.044 124.433L210.466 127.942C210.279 129.077 208.648 129.077 208.461 127.942L207.883 124.433L204.374 123.855C203.24 123.668 203.24 122.037 204.374 121.85L207.883 121.272L208.461 117.763Z"
  fill="#1A3047" />
 <path
  d="M113.318 184.094C113.496 183.017 115.045 183.017 115.223 184.094L115.772 187.428L119.105 187.977C120.183 188.155 120.183 189.704 119.105 189.882L115.772 190.431L115.223 193.765C115.045 194.842 113.496 194.842 113.318 193.765L112.769 190.431L109.435 189.882C108.358 189.704 108.358 188.155 109.435 187.977L112.769 187.428L113.318 184.094Z"
  fill="#1A3047" />
 <path
  d="M110.281 120.596C110.412 119.801 111.553 119.801 111.684 120.596L112.089 123.052L114.545 123.457C115.339 123.587 115.339 124.729 114.545 124.86L112.089 125.265L111.684 127.721C111.553 128.515 110.412 128.515 110.281 127.721L109.876 125.265L107.42 124.86C106.626 124.729 106.626 123.587 107.42 123.457L109.876 123.052L110.281 120.596Z"
  fill="#1A3047" />
 <path
  d="M214.171 195.761C214.302 194.967 215.444 194.967 215.575 195.761L215.979 198.217L218.436 198.622C219.23 198.752 219.23 199.894 218.436 200.025L215.979 200.43L215.575 202.886C215.444 203.68 214.302 203.68 214.171 202.886L213.767 200.43L211.31 200.025C210.516 199.894 210.516 198.752 211.31 198.622L213.767 198.217L214.171 195.761Z"
  fill="#1A3047" />
 <circle cx="210.911" cy="146.406" r="2.37616" fill="#F8961E" />
 <circle cx="150.745" cy="98.8518" r="2.37616" fill="#F8961E" />
 <circle cx="183.876" cy="222.1" r="2.37616" fill="#F8961E" />
 <circle cx="138.03" cy="207.623" r="1.4851" fill="#F8961E" />
 <defs>
  <filter id="filter0_d_714_1472" x="0" y="0" width="322.225" height="325.552"
   filterUnits="userSpaceOnUse" color-interpolation-filters="sRGB">
   <feFlood flood-opacity="0" result="BackgroundImageFix" />
   <feColorMatrix in="SourceAlpha" type="matrix" values="0 0 0 0 0 0 0 0 0 0 0 0 0 0 0 0 0 0 127 0"
    result="hardAlpha" />
   <feOffset dy="4" />
   <feGaussianBlur stdDeviation="62" />
   <feComposite in2="hardAlpha" operator="out" />
   <feColorMatrix type="matrix"
    values="0 0 0 0 0.219608 0 0 0 0 0.937255 0 0 0 0 0.490196 0 0 0 0.5 0" />
   <feBlend mode="normal" in2="BackgroundImageFix" result="effect1_dropShadow_714_1472" />
   <feBlend mode="normal" in="SourceGraphic" in2="effect1_dropShadow_714_1472" result="shape" />
  </filter>
 </defs>
</svg>
