<svg width="58" height="72" viewBox="0 0 58 72" fill="none" xmlns="http://www.w3.org/2000/svg">
<path d="M39.1356 28.9556V46.8723C39.1356 47.7174 39.0462 48.5688 38.7635 49.3652C36.3798 56.0807 30.2503 56.4047 27.0148 55.6116C33.807 62.0861 41.8379 63.9566 46.3505 64.1692C47.5917 64.2277 48.8284 63.9182 49.8565 63.2204C55.4731 59.4086 56.9381 51.7665 56.9381 48.1451V29.0838C56.9381 26.9076 56.305 24.6971 54.682 23.2473C49.8754 18.9535 44.9608 20.5065 41.69 22.9638C39.856 24.3416 39.1356 26.6618 39.1356 28.9556Z" fill="#1A3047"/>
<path d="M26.636 55.51C26.7572 55.5455 26.8836 55.5795 27.0148 55.6116M27.0148 55.6116C30.2503 56.4047 36.3798 56.0807 38.7635 49.3652C39.0462 48.5688 39.1356 47.7174 39.1356 46.8723V28.9556C39.1356 26.6618 39.856 24.3416 41.69 22.9638C44.9608 20.5065 49.8754 18.9535 54.682 23.2473C56.305 24.6971 56.9381 26.9076 56.9381 29.0838V48.1451C56.9381 51.7665 55.4731 59.4086 49.8565 63.2204C48.8283 63.9182 47.5917 64.2277 46.3505 64.1692C41.8379 63.9566 33.807 62.0861 27.0148 55.6116Z" stroke="#1A3047"/>
<path d="M0.5 32.3477V49.557C0.5 51.5929 0.759841 53.6512 1.58604 55.5119C10.7547 76.161 41.421 72.1188 56.5588 67.1636C35.2435 70.1796 23.6898 59.3597 19.3226 51.495C18.2485 49.5605 17.9049 47.3372 17.868 45.1248L17.6587 32.5602C17.5849 28.1328 16.3765 23.1725 12.2807 21.4897C10.0443 20.5708 7.90403 20.7048 6.03045 21.367C1.79382 22.8643 0.5 27.8543 0.5 32.3477Z" fill="#1A3047"/>
<path d="M56.9376 67.0383C56.8124 67.0801 56.6862 67.1219 56.5588 67.1636M56.5588 67.1636C41.421 72.1188 10.7547 76.161 1.58604 55.5119C0.759841 53.6512 0.5 51.5929 0.5 49.557V32.3477C0.5 27.8543 1.79382 22.8643 6.03045 21.367C7.90403 20.7048 10.0443 20.5708 12.2807 21.4897C16.3765 23.1725 17.5849 28.1328 17.6587 32.5602L17.868 45.1248C17.9049 47.3372 18.2485 49.5605 19.3226 51.495C23.6898 59.3597 35.2435 70.1796 56.5588 67.1636Z" stroke="#1A3047"/>
<circle cx="7.81935" cy="7.53834" r="7.53834" fill="#E87D1E"/>
<circle cx="47.6216" cy="7.53834" r="7.53834" fill="#E87D1E"/>
</svg>
