<svg width="24" height="24" viewBox="0 0 24 24" fill="none" xmlns="http://www.w3.org/2000/svg">
<path d="M12 3C10.8181 3 9.64778 3.23279 8.55585 3.68508C7.46392 4.13738 6.47177 4.80031 5.63604 5.63604C4.80031 6.47177 4.13738 7.46392 3.68508 8.55585C3.23279 9.64778 3 10.8181 3 12C3 13.1819 3.23279 14.3522 3.68508 15.4442C4.13738 16.5361 4.80031 17.5282 5.63604 18.364C6.47177 19.1997 7.46392 19.8626 8.55585 20.3149C9.64778 20.7672 10.8181 21 12 21C14.3869 21 16.6761 20.0518 18.364 18.364C20.0518 16.6761 21 14.3869 21 12C21 9.61305 20.0518 7.32387 18.364 5.63604C16.6761 3.94821 14.3869 3 12 3ZM1.5 12C1.5 9.21523 2.60625 6.54451 4.57538 4.57538C6.54451 2.60625 9.21523 1.5 12 1.5C14.7848 1.5 17.4555 2.60625 19.4246 4.57538C21.3938 6.54451 22.5 9.21523 22.5 12C22.5 14.7848 21.3938 17.4555 19.4246 19.4246C17.4555 21.3938 14.7848 22.5 12 22.5C9.21523 22.5 6.54451 21.3938 4.57538 19.4246C2.60625 17.4555 1.5 14.7848 1.5 12ZM12 18.375C14.8995 18.375 17.25 16.554 17.25 13.821C17.25 12.8145 16.434 12 15.429 12H8.5725C7.566 12 6.7515 12.816 6.7515 13.821C6.7515 16.5525 9.102 18.375 12.0015 18.375H12ZM12 10.875C12.3692 10.8751 12.7349 10.8025 13.0761 10.6613C13.4172 10.52 13.7273 10.313 13.9884 10.052C14.2496 9.79096 14.4568 9.48105 14.5982 9.13995C14.7396 8.79885 14.8124 8.43324 14.8125 8.064C14.8126 7.69476 14.74 7.32911 14.5988 6.98793C14.4575 6.64676 14.2505 6.33674 13.9895 6.07557C13.7285 5.81441 13.4186 5.60721 13.0775 5.46582C12.7364 5.32442 12.3707 5.2516 12.0015 5.2515C11.2558 5.2513 10.5405 5.54735 10.0131 6.07451C9.48563 6.60168 9.1892 7.31678 9.189 8.0625C9.1888 8.80822 9.48485 9.52348 10.012 10.0509C10.5392 10.5784 11.2543 10.8748 12 10.875Z" fill="white"/>
</svg>
