<svg width="35" height="35" viewBox="0 0 35 35" fill="none" xmlns="http://www.w3.org/2000/svg">
<g clip-path="url(#clip0_371_1175)">
<path d="M18.7246 20.9797L23.0348 25.3634L19.1173 23.1016L14.5645 18.5779L18.7246 20.9797Z" fill="#C94747"/>
<path d="M10.1406 8.62769L17.7675 13.0311L10.1617 26.2048L2.53477 21.8014L10.1406 8.62769Z" fill="#F9F3D9"/>
<path d="M17.7676 13.031L21.9277 15.4329L18.7252 20.9797L14.5651 18.5778L17.7676 13.031Z" fill="#DBB471"/>
<path d="M18.4887 6.97672L8.78769 7.84713L17.7666 13.0311L18.4887 6.97672Z" fill="#ED4C5C"/>
<path d="M20.8633 9.27124L21.9033 9.8717L20.3021 12.6451L19.262 12.0447L20.8633 9.27124Z" fill="#D0D0D0"/>
<path d="M21.9023 9.87158L22.5957 10.2719L20.7943 13.392L20.101 12.9917L21.9023 9.87158Z" fill="#94989B"/>
<path d="M18.4902 6.97656L23.315 16.2334L17.7681 13.031L18.4902 6.97656Z" fill="#C94747"/>
<path d="M20.916 8.37769L22.6494 9.37846L22.2491 10.0718L20.5157 9.07104L20.916 8.37769Z" fill="#D0D0D0"/>
<path d="M22.6504 9.37842L23.3437 9.77873L22.9434 10.4721L22.2501 10.0718L22.6504 9.37842Z" fill="#94989B"/>
<path d="M11.6836 12.1997L13.9023 13.4807L12.6213 15.6994L10.4026 14.4184L11.6836 12.1997Z" fill="#D6EEF0"/>
<path d="M11.5664 11.7622L9.96517 14.5356L12.7386 16.1369L14.3398 13.3634L11.5664 11.7622ZM13.9024 13.4807L13.3419 14.4514L12.3712 13.8909L12.9317 12.9202L13.9024 13.4807ZM12.6543 12.7601L12.0939 13.7308L11.1232 13.1704L11.6836 12.1997L12.6543 12.7601ZM10.4026 14.4184L10.9631 13.4477L11.9338 14.0081L11.3733 14.9788L10.4026 14.4184ZM11.6507 15.139L12.2111 14.1683L13.1818 14.7287L12.6214 15.6994L11.6507 15.139Z" fill="#89664C"/>
<path d="M17.9355 15.6238L19.5996 16.5845L18.1585 19.0806L16.4944 18.1199L17.9355 15.6238Z" fill="#D6EEF0"/>
<path d="M17.8764 15.4048L16.2752 18.1783L18.2166 19.2991L19.8178 16.5257L17.8764 15.4048ZM17.9936 15.8423L18.5483 16.1625L17.9879 17.1332L17.4332 16.813L17.9936 15.8423ZM16.7127 18.061L17.2731 17.0903L17.8278 17.4106L17.2673 18.3813L16.7127 18.061ZM18.0994 18.8617L17.5447 18.5414L18.1051 17.5707L18.6598 17.891L18.0994 18.8617ZM18.8199 17.6136L18.2652 17.2934L18.8257 16.3227L19.3803 16.6429L18.8199 17.6136ZM7.73285 19.7639L9.88224 21.0048L7.70056 24.7836L5.55117 23.5426L7.73285 19.7639ZM9.95982 20.31L10.5145 20.6303L10.1943 21.185L9.63957 20.8647L9.95982 20.31Z" fill="#89664C"/>
<path d="M7.17773 19.4436L7.73242 19.7638L5.55074 23.5426L4.99605 23.2224L7.17773 19.4436Z" fill="#594640"/>
<path d="M7.25586 18.749L9.95994 20.3102L9.63969 20.8649L6.93561 19.3037L7.25586 18.749Z" fill="#DBB471"/>
<path d="M8.37017 22.582C8.48504 22.6483 8.63194 22.609 8.69826 22.4941C8.76459 22.3792 8.72523 22.2323 8.61035 22.166C8.49547 22.0997 8.34858 22.139 8.28225 22.2539C8.21593 22.3688 8.25529 22.5157 8.37017 22.582Z" fill="#F9F3D9"/>
<path d="M0.835938 20.8206L18.8631 31.2286L18.0625 32.6153L0.0353212 22.2073L0.835938 20.8206Z" fill="#83BF4F"/>
<path d="M18.2168 22.5813L21.4409 24.4427L17.8581 30.6483L14.634 28.7868L18.2168 22.5813Z" fill="#DBB471"/>
<path d="M13.7441 19.9993L18.2163 22.5813L14.6335 28.7868L10.1614 26.2048L13.7441 19.9993Z" fill="#F9F3D9"/>
<path d="M14.5654 18.578L6.93846 14.1746L4.38445 14.5952L19.1182 23.1018L14.5654 18.578Z" fill="#ED4C5C"/>
<path d="M13.0547 22.2356L15.2734 23.5166L13.9924 25.7353L11.7737 24.4543L13.0547 22.2356Z" fill="#D6EEF0"/>
<path d="M12.9375 21.7981L11.3363 24.5715L14.1097 26.1727L15.7109 23.3993L12.9375 21.7981ZM15.2735 23.5165L14.713 24.4872L13.7423 23.9268L14.3028 22.9561L15.2735 23.5165ZM14.0254 22.796L13.465 23.7667L12.4943 23.2063L13.0547 22.2356L14.0254 22.796ZM11.7737 24.4543L12.3342 23.4836L13.3049 24.044L12.7444 25.0147L11.7737 24.4543ZM13.0218 25.1748L13.5822 24.2042L14.5529 24.7646L13.9925 25.7353L13.0218 25.1748Z" fill="#89664C"/>
<path d="M17.918 24.8589L19.582 25.8196L18.1409 28.3157L16.4769 27.355L17.918 24.8589Z" fill="#D6EEF0"/>
<path d="M17.8594 24.6401L16.2581 27.4136L18.1995 28.5344L19.8008 25.761L17.8594 24.6401ZM17.9766 25.0776L18.5313 25.3978L17.9708 26.3685L17.4162 26.0483L17.9766 25.0776ZM16.6956 27.2963L17.256 26.3256L17.8107 26.6459L17.2503 27.6166L16.6956 27.2963ZM18.0823 28.097L17.5276 27.7767L18.0881 26.806L18.6427 27.1263L18.0823 28.097ZM18.8029 26.8489L18.2482 26.5287L18.8086 25.558L19.3633 25.8782L18.8029 26.8489Z" fill="#89664C"/>
<path d="M18.793 31.1887L22.9531 33.5906L22.1525 34.9773L17.9924 32.5754L18.793 31.1887Z" fill="#699635"/>
<path d="M24.1016 22.2351L25.4883 23.0357L20.2843 32.0493L18.8976 31.2487L24.1016 22.2351Z" fill="#D3976E"/>
<path d="M25.4888 23.0358L24.9687 22.7356L24.8687 22.9089C24.4083 23.7063 24.131 23.5461 23.6706 24.3435C23.2103 25.1408 23.4876 25.301 23.0473 26.0637C22.5869 26.861 22.3096 26.7009 21.8492 27.4983C21.3889 28.2956 21.6662 28.4557 21.2259 29.2184C20.7655 30.0158 20.4882 29.8557 20.0478 30.6183C19.7676 31.1037 19.7169 31.3517 19.6461 31.6344L20.2701 31.9947C20.2848 32.0494 25.4888 23.0358 25.4888 23.0358Z" fill="#89664C"/>
<path d="M30.6738 11.6536C29.4747 12.2093 29.6581 10.0503 27.7774 10.9058C25.8968 11.7614 25.7109 13.3644 25.4825 14.4805C25.0056 16.7475 23.3827 16.5963 23.3287 18.6914C23.24 20.7665 21.5863 20.8286 22.6806 22.616C23.7749 24.4034 24.0584 22.071 25.0473 24.1211C26.0362 26.1712 27.325 24.4193 27.552 23.6258C27.9459 22.143 29.062 22.3714 29.9599 21.4568C31.5114 19.8103 30.5865 17.8896 32.1126 16.3671C33.5494 14.8392 34.3112 9.91705 30.6738 11.6536Z" fill="#83BF4F"/>
<path d="M32.0233 16.3617C33.1852 15.2299 33.889 12.1694 32.641 11.4489C32.641 11.4489 32.8325 13.0386 30.8532 13.7448C28.8739 14.451 30.6576 16.4053 28.9117 17.1076C27.1658 17.8098 28.3866 20.1787 27.0435 20.7438C25.3869 21.4514 23.9963 20.4174 23.4819 23.3098L23.4619 23.3445C23.9286 23.3367 24.3036 22.7673 24.9579 24.1158C25.9468 26.1659 27.2357 24.4139 27.4626 23.6205C27.8565 22.1376 28.9727 22.3661 29.8705 21.4515C31.4567 19.825 30.5318 17.9043 32.0233 16.3617Z" fill="#699635"/>
<path d="M30.6076 15.4517C30.3649 15.3116 30.8664 15.3238 31.0265 15.0464C31.1866 14.7691 30.9254 14.3409 31.168 14.481C31.4107 14.6211 31.5333 14.9693 31.3732 15.2466C31.213 15.5239 30.8849 15.6118 30.6076 15.4517ZM28.8097 20.0068C28.4284 19.7866 29.1979 19.8149 29.4181 19.4335C29.6382 19.0522 29.229 18.3999 29.6104 18.6201C29.9917 18.8403 30.1236 19.3324 29.9034 19.7137C29.6832 20.0951 29.1911 20.227 28.8097 20.0068ZM26.1442 23.1826C25.8668 23.0225 26.2843 22.9399 26.4444 22.6626C26.6045 22.3853 26.4673 21.9825 26.7446 22.1426C27.022 22.3027 27.1245 22.6855 26.9644 22.9628C26.8043 23.2402 26.4215 23.3427 26.1442 23.1826ZM27.4807 14.0624C27.758 14.2225 27.2713 14.2651 27.1111 14.5424C26.951 14.8197 27.1922 15.2826 26.8802 15.1025C26.5682 14.9223 26.5003 14.5595 26.6605 14.2822C26.8206 14.0049 27.2034 13.9023 27.4807 14.0624ZM29.7656 12.7469C30.147 12.967 29.4121 12.9588 29.192 13.3401C28.9718 13.7215 29.381 14.3738 28.965 14.1336C28.5837 13.9134 28.4518 13.4213 28.6719 13.0399C28.8921 12.6586 29.3496 12.5067 29.7656 12.7469Z" fill="#83BF4F"/>
<path d="M26.4099 17.8363C26.9992 18.1765 25.907 18.1469 25.5668 18.7362C25.2265 19.3256 25.7636 20.2366 25.209 19.9163C24.6196 19.5761 24.4291 18.8652 24.7694 18.2759C25.1097 17.6865 25.8205 17.496 26.4099 17.8363ZM27.8227 16.1097C28.1001 16.2698 27.6826 16.3524 27.5225 16.6297C27.3624 16.9071 27.4996 17.3099 27.2223 17.1497C26.9449 16.9896 26.8424 16.6068 27.0025 16.3295C27.1626 16.0521 27.5454 15.9496 27.8227 16.1097Z" fill="#699635"/>
<path d="M21.543 31.3896L21.6816 31.4697L21.0812 32.5097L20.9425 32.4297L21.543 31.3896Z" fill="#83BF4F"/>
<path d="M21.8516 30.1348L21.3912 30.9321C21.3111 31.0708 21.3351 31.2695 21.5084 31.3696L21.7858 31.5297L22.106 30.975C22.2915 30.5737 21.8516 30.1348 21.8516 30.1348Z" fill="#C94747"/>
<path d="M22.6504 30.5951L22.19 31.3925C22.11 31.5312 21.9259 31.6098 21.7526 31.5097L21.4752 31.3496L21.7955 30.7949C22.0156 30.4136 22.6504 30.5951 22.6504 30.5951Z" fill="#ED4C5C"/>
<path d="M23.5293 31.4729L23.668 31.553L22.6072 33.3904L22.4685 33.3103L23.5293 31.4729Z" fill="#83BF4F"/>
<path d="M23.8574 30.1833L23.3971 30.9807C23.317 31.1194 23.3409 31.3181 23.5143 31.4182L23.7916 31.5783L24.1119 31.0236C24.2774 30.6569 23.8574 30.1833 23.8574 30.1833Z" fill="#C94747"/>
<path d="M24.6562 30.6437L24.1959 31.4411C24.1158 31.5798 23.9318 31.6584 23.7584 31.5583L23.4811 31.3982L23.8013 30.8435C24.0015 30.4968 24.6562 30.6437 24.6562 30.6437Z" fill="#ED4C5C"/>
<path d="M23.1133 29.1523L22.6529 29.9497C22.5729 30.0884 22.5968 30.2871 22.7701 30.3872L23.0475 30.5473L23.3677 29.9926C23.5679 29.6459 23.1133 29.1523 23.1133 29.1523Z" fill="#F2B200"/>
<path d="M23.9453 29.6325L23.485 30.4299C23.4049 30.5685 23.2208 30.6472 23.0475 30.5471L22.7701 30.387L23.0904 29.8323C23.2905 29.4856 23.9453 29.6325 23.9453 29.6325Z" fill="#FFCE31"/>
<path d="M22.8184 30.4617L22.957 30.5417L21.636 32.8298L21.4973 32.7497L22.8184 30.4617Z" fill="#83BF4F"/>
<path d="M21.7637 28.9277L21.3033 29.7251C21.2233 29.8638 21.2819 30.0825 21.4205 30.1626L21.6632 30.3027L21.9634 29.7826C22.2036 29.3666 21.7637 28.9277 21.7637 28.9277Z" fill="#F2B200"/>
<path d="M22.5605 29.3881L22.1002 30.1855C22.0201 30.3241 21.8361 30.4028 21.6627 30.3027L21.3854 30.1426L21.6856 29.6226C21.9258 29.2065 22.5605 29.3881 22.5605 29.3881Z" fill="#FFCE31"/>
<path d="M21.4541 30.1826L21.5928 30.2626L20.4919 32.1693L20.3532 32.0893L21.4541 30.1826ZM18.3883 29.5681L18.527 29.6482L17.9265 30.6882L17.7878 30.6081L18.3883 29.5681Z" fill="#83BF4F"/>
<path d="M18.6621 28.2932L18.2018 29.0906C18.1217 29.2292 18.1456 29.428 18.319 29.528L18.5963 29.6882L18.9166 29.1335C19.1367 28.7521 18.6621 28.2932 18.6621 28.2932Z" fill="#C94747"/>
<path d="M19.4941 28.7736L19.0338 29.571C18.9537 29.7096 18.7697 29.7883 18.5963 29.6882L18.319 29.5281L18.6392 28.9734C18.8594 28.592 19.4941 28.7736 19.4941 28.7736Z" fill="#ED4C5C"/>
<path d="M20.375 29.6514L20.5137 29.7314L19.4529 31.5688L19.3142 31.4888L20.375 29.6514Z" fill="#83BF4F"/>
<path d="M20.668 28.342L20.2076 29.1394C20.1276 29.2781 20.1515 29.4768 20.3248 29.5769L20.6022 29.737L20.9224 29.1823C21.1226 28.8356 20.668 28.342 20.668 28.342Z" fill="#C94747"/>
<path d="M21.5 28.8222L21.0396 29.6196C20.9596 29.7582 20.7755 29.8369 20.6022 29.7368L20.3248 29.5767L20.6451 29.022C20.8452 28.6753 21.5 28.8222 21.5 28.8222Z" fill="#ED4C5C"/>
<path d="M19.957 27.3308L19.4967 28.1282C19.4166 28.2668 19.4406 28.4656 19.6139 28.5656L19.8912 28.7258L20.2115 28.1711C20.4116 27.8244 19.957 27.3308 19.957 27.3308Z" fill="#F2B200"/>
<path d="M20.7559 27.7912L20.2955 28.5886C20.2154 28.7272 20.0314 28.8058 19.858 28.7058L19.5807 28.5456L19.9009 27.991C20.1358 27.6643 20.7559 27.7912 20.7559 27.7912Z" fill="#FFCE31"/>
<path d="M19.6641 28.6404L19.8027 28.7204L18.4817 31.0085L18.343 30.9284L19.6641 28.6404Z" fill="#83BF4F"/>
<path d="M18.5742 27.0864L18.1139 27.8838C18.0338 28.0225 18.0577 28.2212 18.2311 28.3212L18.5084 28.4814L18.8087 27.9614C19.0488 27.5453 18.5742 27.0864 18.5742 27.0864Z" fill="#C94747"/>
<path d="M19.4062 27.5666L18.9459 28.3639C18.8658 28.5026 18.6818 28.5812 18.5084 28.4812L18.2311 28.321L18.5313 27.801C18.7715 27.385 19.4062 27.5666 19.4062 27.5666Z" fill="#ED4C5C"/>
<path d="M18.3008 28.3611L18.4395 28.4411L17.3386 30.3479L17.1999 30.2678L18.3008 28.3611Z" fill="#83BF4F"/>
</g>
<defs>
<clipPath id="clip0_371_1175">
<rect width="25.6197" height="25.6197" fill="white" transform="translate(12.8105) rotate(30)"/>
</clipPath>
</defs>
</svg>
