<svg width="57" height="57" viewBox="0 0 57 57" fill="none" xmlns="http://www.w3.org/2000/svg">
<g clip-path="url(#clip0_371_1133)">
<path d="M35.1085 47.0481L8.32954 31.5873L15.201 19.6855L35.8914 14.7703L41.9799 35.1463L35.1085 47.0481Z" fill="#E8EAF6"/>
<path d="M40.6066 32.3702L39.0347 26.5036L42.0409 21.2966L45.7602 23.4439L40.6066 32.3702ZM8.32888 31.5872L35.1078 47.0481L32.9605 50.7674L6.18154 35.3065L8.32888 31.5872Z" fill="#C5CAE9"/>
<path d="M36.6213 13.5058L13.7561 18.7523L14.2989 21.2477L34.8605 16.5557L41.0779 36.7085L43.5104 35.931L36.6213 13.5058Z" fill="#B71C1C"/>
<path d="M21.9805 28.5585L30.9068 33.7121L24.0353 45.6138L15.109 40.4602L21.9805 28.5585Z" fill="#D84315"/>
<path d="M28.9355 21.6644L33.3987 24.2412L30.8219 28.7044L26.3587 26.1276L28.9355 21.6644Z" fill="#01579B"/>
<path d="M25.8251 38.2173C25.6019 38.0885 25.3672 38.1513 25.2384 38.3745L24.3795 39.8622C24.2506 40.0854 24.3135 40.32 24.5367 40.4489C24.7598 40.5777 24.9945 40.5148 25.1233 40.2917L25.9823 38.804C26.1111 38.5808 26.0482 38.3461 25.8251 38.2173Z" fill="#FF8A65"/>
</g>
<defs>
<clipPath id="clip0_371_1133">
<rect width="41.2288" height="41.2288" fill="white" transform="translate(20.6152) rotate(30)"/>
</clipPath>
</defs>
</svg>
