<svg width="49" height="49" viewBox="0 0 49 49" fill="none" xmlns="http://www.w3.org/2000/svg">
<path d="M11.5707 11.2816C10.8081 11.4859 10.1579 11.9848 9.76314 12.6685C9.3684 13.3522 9.26143 14.1648 9.46576 14.9274L16.6566 41.764C16.7247 42.0182 16.891 42.235 17.1189 42.3665C17.3469 42.4981 17.6177 42.5338 17.8719 42.4657L37.0467 37.3278C38.632 36.903 39.5722 35.2746 39.1469 33.6874L35.5504 20.2652C35.3461 19.5026 34.8472 18.8524 34.1635 18.4577C33.4797 18.0629 32.6672 17.9559 31.9046 18.1603L29.0293 18.9307L26.7179 10.3047C26.5136 9.54207 26.0147 8.89188 25.3309 8.49714C24.6472 8.10239 23.8347 7.99542 23.0721 8.19975L11.5707 11.2816Z" fill="url(#paint0_linear_371_1140)"/>
<path d="M11.5707 11.2816C10.8081 11.4859 10.1579 11.9848 9.76314 12.6685C9.3684 13.3522 9.26143 14.1648 9.46576 14.9274L16.6566 41.764C16.7247 42.0182 16.891 42.235 17.1189 42.3665C17.3469 42.4981 17.6177 42.5338 17.8719 42.4657L37.0467 37.3278C38.632 36.903 39.5722 35.2746 39.1469 33.6874L35.5504 20.2652C35.3461 19.5026 34.8472 18.8524 34.1635 18.4577C33.4797 18.0629 32.6672 17.9559 31.9046 18.1603L29.0293 18.9307L26.7179 10.3047C26.5136 9.54207 26.0147 8.89188 25.3309 8.49714C24.6472 8.10239 23.8347 7.99542 23.0721 8.19975L11.5707 11.2816Z" fill="url(#paint1_radial_371_1140)"/>
<path d="M11.5707 11.2816C10.8081 11.4859 10.1579 11.9848 9.76314 12.6685C9.3684 13.3522 9.26143 14.1648 9.46576 14.9274L16.6566 41.764C16.7247 42.0182 16.891 42.235 17.1189 42.3665C17.3469 42.4981 17.6177 42.5338 17.8719 42.4657L37.0467 37.3278C38.632 36.903 39.5722 35.2746 39.1469 33.6874L35.5504 20.2652C35.3461 19.5026 34.8472 18.8524 34.1635 18.4577C33.4797 18.0629 32.6672 17.9559 31.9046 18.1603L29.0293 18.9307L26.7179 10.3047C26.5136 9.54207 26.0147 8.89188 25.3309 8.49714C24.6472 8.10239 23.8347 7.99542 23.0721 8.19975L11.5707 11.2816Z" fill="url(#paint2_radial_371_1140)"/>
<path d="M16.2784 19.2655C16.6597 19.1634 16.9848 18.9139 17.1822 18.572C17.3796 18.2302 17.4331 17.8239 17.3309 17.4426C17.2287 17.0613 16.9793 16.7362 16.6374 16.5389C16.2956 16.3415 15.8893 16.288 15.508 16.3902C15.1267 16.4923 14.8016 16.7418 14.6042 17.0836C14.4069 17.4255 14.3534 17.8318 14.4555 18.2131C14.5577 18.5944 14.8072 18.9195 15.149 19.1168C15.4909 19.3142 15.8971 19.3677 16.2784 19.2655Z" fill="url(#paint3_linear_371_1140)"/>
<path d="M24.0399 15.645C23.9377 15.2637 23.6883 14.9386 23.3464 14.7412C23.0045 14.5439 22.5983 14.4904 22.217 14.5926C21.8357 14.6947 21.5106 14.9442 21.3132 15.286C21.1158 15.6279 21.0624 16.0342 21.1645 16.4155C21.2667 16.7968 21.5161 17.1219 21.858 17.3192C22.1999 17.5166 22.6061 17.5701 22.9874 17.4679C23.3687 17.3657 23.6938 17.1163 23.8912 16.7744C24.0886 16.4326 24.142 16.0263 24.0399 15.645Z" fill="url(#paint4_linear_371_1140)"/>
<path d="M25.5809 21.3956C25.6831 21.7769 25.6296 22.1832 25.4322 22.525C25.2348 22.8669 24.9097 23.1164 24.5284 23.2185C24.1471 23.3207 23.7409 23.2672 23.399 23.0698C23.0572 22.8725 22.8077 22.5474 22.7055 22.1661C22.6034 21.7848 22.6569 21.3785 22.8542 21.0367C23.0516 20.6948 23.3767 20.4453 23.758 20.3432C24.1393 20.241 24.5456 20.2945 24.8874 20.4919C25.2293 20.6892 25.4787 21.0143 25.5809 21.3956Z" fill="url(#paint5_linear_371_1140)"/>
<path d="M18.8719 23.1934C18.7697 22.8121 18.5203 22.487 18.1784 22.2896C17.8366 22.0922 17.4303 22.0387 17.049 22.1409C16.6677 22.2431 16.3426 22.4925 16.1452 22.8344C15.9479 23.1762 15.8944 23.5825 15.9966 23.9638C16.0987 24.3451 16.3482 24.6702 16.69 24.8676C17.0319 25.0649 17.4382 25.1184 17.8195 25.0163C18.2008 24.9141 18.5258 24.6646 18.7232 24.3228C18.9206 23.9809 18.9741 23.5746 18.8719 23.1934Z" fill="url(#paint6_linear_371_1140)"/>
<path d="M20.4129 28.9441C20.5151 29.3254 20.4616 29.7316 20.2642 30.0735C20.0669 30.4154 19.7418 30.6648 19.3605 30.767C18.9792 30.8692 18.5729 30.8157 18.231 30.6183C17.8892 30.4209 17.6397 30.0958 17.5376 29.7145C17.4354 29.3332 17.4889 28.927 17.6863 28.5851C17.8836 28.2433 18.2087 27.9938 18.59 27.8916C18.9713 27.7895 19.3776 27.8429 19.7194 28.0403C20.0613 28.2377 20.3108 28.5628 20.4129 28.9441Z" fill="url(#paint7_linear_371_1140)"/>
<path d="M34.541 31.8354L40.2917 30.2945L42.3463 37.9622L36.5955 39.5031L34.541 31.8354Z" fill="url(#paint8_linear_371_1140)"/>
<path d="M30.9438 33.7445C30.7938 33.1847 30.895 32.5885 31.2229 32.1103L35.3961 26.016C35.5299 25.8205 35.7293 25.6792 35.9582 25.6179C36.1871 25.5566 36.4303 25.5792 36.644 25.6816L43.3033 28.8734C43.8245 29.1241 44.2121 29.5893 44.3626 30.151L45.9241 35.9784C45.9922 36.2326 45.9565 36.5034 45.825 36.7313C45.6934 36.9592 45.4766 37.1255 45.2224 37.1936L41.3881 38.219L40.104 33.4267C40.0359 33.1725 39.8696 32.9558 39.6417 32.8242C39.4138 32.6926 39.143 32.657 38.8888 32.7251L36.9719 33.2387C36.7177 33.3068 36.5009 33.4731 36.3694 33.701C36.2378 33.9289 36.2021 34.1998 36.2702 34.454L37.5543 39.2462L33.7205 40.2735C33.4663 40.3416 33.1955 40.306 32.9676 40.1744C32.7396 40.0428 32.5733 39.8261 32.5052 39.5719L30.9438 33.7445Z" fill="url(#paint9_linear_371_1140)"/>
<path fill-rule="evenodd" clip-rule="evenodd" d="M33.6642 24.5899C34.0656 23.9972 34.6671 23.569 35.3586 23.3837C36.05 23.1984 36.7851 23.2685 37.429 23.5811L45.1287 27.32C45.3045 27.4055 45.4619 27.5248 45.5916 27.6711C45.7214 27.8174 45.8211 27.9878 45.8851 28.1726C45.949 28.3574 45.9759 28.553 45.9642 28.7482C45.9525 28.9434 45.9025 29.1344 45.8171 29.3103C45.7316 29.4862 45.6123 29.6435 45.466 29.7733C45.3197 29.9031 45.1493 30.0028 44.9645 30.0667C44.7797 30.1306 44.5841 30.1575 44.3889 30.1458C44.1937 30.1342 44.0027 30.0842 43.8268 29.9987L36.1286 26.2574L31.3324 33.3466C31.111 33.6734 30.7689 33.899 30.3812 33.9735C29.9936 34.0481 29.5921 33.9657 29.2653 33.7443C28.9384 33.5229 28.7129 33.1808 28.6383 32.7931C28.5637 32.4055 28.6462 32.004 28.8675 31.6772L33.6642 24.5899Z" fill="url(#paint10_linear_371_1140)"/>
<defs>
<linearGradient id="paint0_linear_371_1140" x1="8.95213" y1="13.0105" x2="45.7226" y2="33.2547" gradientUnits="userSpaceOnUse">
<stop stop-color="#29C3FF"/>
<stop offset="1" stop-color="#2764E7"/>
</linearGradient>
<radialGradient id="paint1_radial_371_1140" cx="0" cy="0" r="1" gradientUnits="userSpaceOnUse" gradientTransform="translate(33.652 36.1829) rotate(75) scale(6.94584 4.58922)">
<stop stop-color="#4A43CB"/>
<stop offset="0.914" stop-color="#4A43CB" stop-opacity="0"/>
</radialGradient>
<radialGradient id="paint2_radial_371_1140" cx="0" cy="0" r="1" gradientTransform="matrix(-6.82836 9.02052 -4.69891 -3.55696 35.9449 29.4049)" gradientUnits="userSpaceOnUse">
<stop stop-color="#4A43CB"/>
<stop offset="0.914" stop-color="#4A43CB" stop-opacity="0"/>
</radialGradient>
<linearGradient id="paint3_linear_371_1140" x1="16.2303" y1="14.4852" x2="28.4894" y2="29.1755" gradientUnits="userSpaceOnUse">
<stop stop-color="#FDFDFD"/>
<stop offset="1" stop-color="#B3E0FF"/>
</linearGradient>
<linearGradient id="paint4_linear_371_1140" x1="16.2301" y1="14.4853" x2="28.4893" y2="29.1756" gradientUnits="userSpaceOnUse">
<stop stop-color="#FDFDFD"/>
<stop offset="1" stop-color="#B3E0FF"/>
</linearGradient>
<linearGradient id="paint5_linear_371_1140" x1="16.2302" y1="14.4852" x2="28.4894" y2="29.1755" gradientUnits="userSpaceOnUse">
<stop stop-color="#FDFDFD"/>
<stop offset="1" stop-color="#B3E0FF"/>
</linearGradient>
<linearGradient id="paint6_linear_371_1140" x1="16.2304" y1="14.4852" x2="28.4896" y2="29.1755" gradientUnits="userSpaceOnUse">
<stop stop-color="#FDFDFD"/>
<stop offset="1" stop-color="#B3E0FF"/>
</linearGradient>
<linearGradient id="paint7_linear_371_1140" x1="16.2305" y1="14.4852" x2="28.4897" y2="29.1755" gradientUnits="userSpaceOnUse">
<stop stop-color="#FDFDFD"/>
<stop offset="1" stop-color="#B3E0FF"/>
</linearGradient>
<linearGradient id="paint8_linear_371_1140" x1="37.4164" y1="31.065" x2="34.609" y2="40.8839" gradientUnits="userSpaceOnUse">
<stop stop-color="#944600"/>
<stop offset="1" stop-color="#CD8E02"/>
</linearGradient>
<linearGradient id="paint9_linear_371_1140" x1="28.8935" y1="27.9022" x2="44.4198" y2="37.1272" gradientUnits="userSpaceOnUse">
<stop stop-color="#FFD394"/>
<stop offset="1" stop-color="#FFB357"/>
</linearGradient>
<linearGradient id="paint10_linear_371_1140" x1="35.5225" y1="20.7061" x2="36.8858" y2="31.4373" gradientUnits="userSpaceOnUse">
<stop stop-color="#FF921F"/>
<stop offset="1" stop-color="#EB4824"/>
</linearGradient>
</defs>
</svg>
