<svg width="53" height="53" viewBox="0 0 53 53" fill="none" xmlns="http://www.w3.org/2000/svg">
<path d="M25.9991 15.1662C28.1693 14.5841 30.4513 14.5586 32.6339 15.0922C34.8166 15.6258 36.8294 16.7012 38.4862 18.2189C40.1431 19.7367 41.3904 21.6477 42.1128 23.7753C42.8353 25.903 43.0095 28.1784 42.6193 30.3912L45.3821 35.9835C45.4793 36.1806 45.5265 36.3986 45.5193 36.6183C45.5121 36.8379 45.4509 37.0524 45.341 37.2427C45.2311 37.433 45.076 37.5933 44.8893 37.7094C44.7027 37.8254 44.4903 37.8936 44.271 37.9079L38.0491 38.3108C36.5166 39.5949 34.7154 40.5187 32.7784 41.0142C30.8413 41.5096 28.8178 41.5639 26.8569 41.1732C24.8961 40.7826 23.0479 39.9568 21.4486 38.7568C19.8493 37.5568 18.5398 36.0132 17.6165 34.2397C16.6931 32.4663 16.1796 30.5082 16.1137 28.5099C16.0478 26.5116 16.4312 24.524 17.2356 22.6935C18.0401 20.8631 19.2451 19.2366 20.7618 17.9338C22.2785 16.631 24.0683 15.6853 25.9991 15.1662Z" fill="url(#paint0_radial_371_1153)"/>
<path d="M19.4527 11.387C17.2822 11.968 15.2932 13.0869 13.6698 14.6403C12.0463 16.1937 10.8409 18.1315 10.1649 20.2743C9.48889 22.4171 9.36421 24.6958 9.80237 26.8996C10.2405 29.1034 11.2274 31.1611 12.6716 32.8824L13.0752 39.1068C13.0895 39.3261 13.1577 39.5385 13.2738 39.7251C13.3898 39.9118 13.5501 40.0669 13.7404 40.1768C13.9307 40.2867 14.1452 40.3479 14.3649 40.3551C14.5845 40.3623 14.8025 40.3151 14.9996 40.2179L20.5894 37.4558C22.5586 37.8017 24.5804 37.7011 26.5056 37.1616C28.4309 36.6222 30.2105 35.6575 31.7133 34.3387C33.2161 33.0199 34.4038 31.3807 35.1888 29.5418C35.9738 27.703 36.3362 25.7114 36.2491 23.7139C36.162 21.7164 35.6277 19.7639 34.6856 18.0003C33.7435 16.2368 32.4177 14.7071 30.8058 13.5241C29.1939 12.3412 27.337 11.535 25.3721 11.1652C23.4072 10.7953 21.3844 10.8711 19.4527 11.387Z" fill="url(#paint1_linear_371_1153)"/>
<path d="M23.0381 31.1783C22.9712 30.9635 22.9484 30.7374 22.9711 30.5136C22.9937 30.2898 23.0614 30.0729 23.1699 29.8759C23.2785 29.6788 23.4257 29.5058 23.6028 29.3671C23.7799 29.2283 23.9832 29.1268 24.2005 29.0686C24.4178 29.0104 24.6446 28.9967 24.8673 29.0282C25.09 29.0598 25.3041 29.1361 25.4966 29.2524C25.6891 29.3688 25.8562 29.5228 25.9877 29.7053C26.1192 29.8878 26.2125 30.095 26.262 30.3145C26.3767 30.7423 26.3166 31.1982 26.0952 31.5818C25.8737 31.9654 25.5089 32.2453 25.081 32.36C24.6532 32.4746 24.1973 32.4146 23.8137 32.1931C23.4301 31.9717 23.1501 31.6069 23.0355 31.179" fill="url(#paint2_linear_371_1153)"/>
<path d="M17.4122 22.8727C16.6 19.9448 18.1387 17.2723 20.8438 16.5474C23.505 15.8344 26.2145 17.4489 26.978 20.2985C27.3826 21.8085 27.0504 22.7884 26.0105 24.2041L25.4435 24.948C24.9434 25.6215 24.8043 25.9492 24.8635 26.3456L24.9404 26.7566C24.968 27.0893 24.87 27.4203 24.6657 27.6844C24.4614 27.9485 24.1657 28.1266 23.8367 28.1835C23.5076 28.2404 23.1693 28.1721 22.8881 27.992C22.607 27.8119 22.4034 27.533 22.3176 27.2104C21.9227 25.7365 22.2483 24.7833 23.2743 23.388L23.8431 22.6407C24.4307 21.8498 24.5358 21.509 24.3961 20.9876C24.0109 19.5498 22.7563 18.8015 21.5354 19.1287C20.2629 19.4696 19.5713 20.6675 19.9872 22.1579C20.0343 22.3269 20.0477 22.5035 20.0265 22.6777C20.0054 22.8519 19.9501 23.0202 19.8639 23.1731C19.6898 23.4817 19.4002 23.7086 19.0588 23.8037C18.7174 23.8989 18.3522 23.8545 18.0436 23.6804C17.7349 23.5063 17.5074 23.2141 17.4122 22.8727Z" fill="url(#paint3_linear_371_1153)"/>
<defs>
<radialGradient id="paint0_radial_371_1153" cx="0" cy="0" r="1" gradientUnits="userSpaceOnUse" gradientTransform="translate(21.8677 23.6578) rotate(34.238) scale(18.8344 18.8504)">
<stop offset="0.63" stop-color="#3D35B1"/>
<stop offset="0.85" stop-color="#6553C9"/>
<stop offset="1" stop-color="#7660D3"/>
</radialGradient>
<linearGradient id="paint1_linear_371_1153" x1="6.54663" y1="14.8452" x2="39.2751" y2="33.741" gradientUnits="userSpaceOnUse">
<stop stop-color="#0FAFFF"/>
<stop offset="1" stop-color="#2764E7"/>
</linearGradient>
<linearGradient id="paint2_linear_371_1153" x1="16.9721" y1="17.8838" x2="25.512" y2="33.0496" gradientUnits="userSpaceOnUse">
<stop stop-color="#FDFDFD"/>
<stop offset="1" stop-color="#CCEAFF"/>
</linearGradient>
<linearGradient id="paint3_linear_371_1153" x1="16.9718" y1="17.8837" x2="25.5117" y2="33.0495" gradientUnits="userSpaceOnUse">
<stop stop-color="#FDFDFD"/>
<stop offset="1" stop-color="#CCEAFF"/>
</linearGradient>
</defs>
</svg>
