<svg width="56" height="56" viewBox="0 0 56 56" fill="none" xmlns="http://www.w3.org/2000/svg">
<g clip-path="url(#clip0_371_1169)">
<path d="M32.6513 32.6887L32.7616 33.9096L29.8499 35.2564L30.1425 38.4486L27.2298 39.7918L18.2784 34.6252L13.3997 34.9751L14.1178 37.6548L8.75839 39.0908L4.45028 23.0127L9.80964 21.5767L10.5277 24.2564L14.7545 22.1664L20.5005 17.7547L24.795 20.2342L27.0161 16.9662L30.3539 16.0719L36.4313 17.3155L41.1367 17.012L40.6581 15.2256L46.0174 13.7895L50.3256 29.8676L44.9662 31.3037L44.2482 28.624L40.9146 30.4746L32.6513 32.6887Z" fill="white"/>
<path d="M46.7371 16.4693L41.3777 17.9054L44.9678 31.3038L50.3272 29.8677L46.7371 16.4693ZM10.5293 24.2564L5.16992 25.6925L8.76002 39.0909L14.1194 37.6549L10.5293 24.2564Z" fill="#BBD8FF"/>
<path d="M30.8983 21.6706L23.4587 26.5361L21.3438 25.315L27.0195 16.9657L30.3555 16.0719L36.4328 17.3155L41.1383 17.012L44.2497 28.624L40.9162 30.4746L32.6511 32.6892" stroke="#092F63" stroke-linecap="round" stroke-linejoin="round"/>
<path d="M13.4012 34.975L18.2799 34.6251L27.2313 39.7917L30.144 38.4485L29.8508 35.2545L32.7626 33.9077L32.4717 30.715L35.3826 29.3723L35.0913 26.1777L29.2042 22.7789M24.7965 20.234L20.5025 17.7564L14.7559 22.1663L10.5291 24.2562M9.81111 21.5766L4.45174 23.0126L8.75986 39.0907L14.1192 37.6547L9.81111 21.5766ZM46.0189 13.7894L40.6595 15.2255L44.9676 31.3036L50.327 29.8675L46.0189 13.7894Z" stroke="#092F63" stroke-linejoin="round"/>
</g>
<defs>
<clipPath id="clip0_371_1169">
<rect width="45.2933" height="45.2933" fill="white" transform="translate(0 11.7228) rotate(-15)"/>
</clipPath>
</defs>
</svg>
