<svg width="52" height="52" viewBox="0 0 52 52" fill="none" xmlns="http://www.w3.org/2000/svg">
<g clip-path="url(#clip0_371_1159)">
<path d="M24.949 26.1621L29.8735 7.78367C29.9133 7.6348 29.9925 7.49941 30.1027 7.39171C30.213 7.284 30.3501 7.20796 30.4999 7.17155C30.6496 7.13515 30.8064 7.13973 30.9538 7.18481C31.1011 7.2299 31.2337 7.31383 31.3374 7.42778L39.5729 16.49C39.6694 16.5967 39.7376 16.7257 39.7716 16.8654C39.8055 17.0052 39.804 17.1512 39.7672 17.2902L36.5548 29.2792" fill="#E3E3E3"/>
<path d="M24.949 26.1621L29.8735 7.78367C29.9133 7.6348 29.9925 7.49941 30.1027 7.39171C30.213 7.284 30.3501 7.20796 30.4999 7.17155C30.6496 7.13515 30.8064 7.13973 30.9538 7.18481C31.1011 7.2299 31.2337 7.31383 31.3374 7.42778L39.5729 16.49C39.6694 16.5967 39.7376 16.7257 39.7716 16.8654C39.8055 17.0052 39.804 17.1512 39.7672 17.2902L36.5548 29.2792" stroke="#191919" stroke-linecap="round" stroke-linejoin="round"/>
<path d="M13.3385 23.0548L15.3384 15.5911C15.3973 15.3712 15.5412 15.1837 15.7383 15.0699C15.9355 14.956 16.1698 14.9252 16.3897 14.9841L27.1699 17.8727L24.9483 26.1638" fill="#B2B2B2"/>
<path d="M13.3371 23.0548L15.337 15.591C15.3959 15.3711 15.5398 15.1836 15.7369 15.0698C15.9341 14.956 16.1684 14.9251 16.3883 14.9841L27.1685 17.8726L24.9469 26.1638M38.5143 15.3272L40.006 9.76004M28.0571 14.5561L31.3736 15.4448M26.7237 19.5325L31.6984 20.8655M14.2258 19.7383L19.2021 21.0717" stroke="#191919" stroke-linecap="round" stroke-linejoin="round"/>
<path d="M33.7178 34.5556C33.4308 34.7889 33.2237 35.1057 33.1211 35.4614L31.2726 42.3599L24.3747 41.8984L26.6322 40.903C26.9083 40.7725 27.1234 40.5406 27.2327 40.2555C27.3421 39.9704 27.3373 39.6541 27.2193 39.3724L24.9777 35.0037L23.6879 35.1727C23.4188 35.2071 23.1456 35.1872 22.8843 35.1141C22.6231 35.0409 22.3792 34.9161 22.1671 34.747C21.8793 34.5216 21.6567 34.2238 21.522 33.884C21.3873 33.5443 21.3454 33.1748 21.4006 32.8135C21.4559 32.4522 21.6062 32.1121 21.8362 31.8281C22.0662 31.5441 22.3676 31.3263 22.7095 31.1972C22.8066 31.1685 22.9015 31.141 23.0152 31.1186L26.5002 30.4521C26.9315 30.3542 27.3807 30.3668 27.8058 30.4826C28.1286 30.5764 28.4294 30.716 28.7082 30.9014L33.7178 34.5556Z" fill="#FFDDA1" stroke="#191919" stroke-linecap="round" stroke-linejoin="round"/>
<path d="M27.0943 34.7348L24.9786 35.0036" stroke="#191919" stroke-linecap="round" stroke-linejoin="round"/>
<path d="M26.6329 40.903L24.3771 41.8988L19.5805 44.0076C19.3047 44.1319 18.9914 44.144 18.7069 44.0412C18.4224 43.9384 18.1891 43.7288 18.0566 43.4569L14.9784 39.4863L12.6596 38.8649L14.8812 30.5738L20.1447 29.8346C20.5685 29.7899 20.9968 29.8512 21.391 30.0129C21.7853 30.1746 22.1333 30.4317 22.4036 30.761L22.7114 31.1993C22.3691 31.3282 22.0672 31.546 21.8369 31.8301C21.6066 32.1143 21.456 32.4546 21.4008 32.8162C21.3455 33.1778 21.3875 33.5476 21.5224 33.8875C21.6573 34.2275 21.8803 34.5255 22.1685 34.7508C22.3808 34.9202 22.625 35.0452 22.8865 35.1185C23.1481 35.1917 23.4217 35.2116 23.6911 35.177L24.9796 35.0058L27.2212 39.3745C27.3405 39.656 27.346 39.9728 27.2365 40.2583C27.127 40.5438 26.9111 40.7756 26.6341 40.9051" fill="#FFDDA1"/>
<path d="M26.6329 40.903L24.3771 41.8988L19.5805 44.0076C19.3047 44.1319 18.9914 44.144 18.7069 44.0412C18.4224 43.9384 18.1891 43.7288 18.0566 43.4569L14.9784 39.4863L12.6596 38.8649L14.8812 30.5738L20.1447 29.8346C20.5685 29.7899 20.9968 29.8512 21.391 30.0129C21.7853 30.1746 22.1333 30.4317 22.4036 30.761L22.7114 31.1993C22.3691 31.3282 22.0672 31.546 21.8369 31.8301C21.6066 32.1143 21.456 32.4546 21.4008 32.8162C21.3455 33.1778 21.3875 33.5476 21.5224 33.8875C21.6573 34.2275 21.8803 34.5255 22.1685 34.7508C22.3808 34.9202 22.625 35.0452 22.8865 35.1185C23.1481 35.1917 23.4217 35.2116 23.6911 35.177L24.9796 35.0058L27.2212 39.3745C27.3405 39.656 27.346 39.9728 27.2365 40.2583C27.127 40.5438 26.9111 40.7756 26.6341 40.9051" stroke="#191919" stroke-linecap="round" stroke-linejoin="round"/>
<path d="M14.88 30.5733L12.6584 38.8644C12.6002 39.0824 12.4996 39.2868 12.3625 39.4658C12.2253 39.6449 12.0541 39.7952 11.8588 39.9081C11.6635 40.021 11.4478 40.0943 11.2242 40.1238C11.0005 40.1533 10.7733 40.1384 10.5554 40.08L8.06801 39.4136C7.95898 39.3843 7.85679 39.3339 7.76728 39.2652C7.67777 39.1964 7.6027 39.1107 7.54636 39.0129C7.49003 38.915 7.45354 38.8071 7.43898 38.6952C7.42441 38.5832 7.43207 38.4695 7.46151 38.3606L10.1274 28.4112C10.1864 28.1913 10.3302 28.0038 10.5274 27.89C10.7245 27.7762 10.9588 27.7453 11.1787 27.8042L13.6644 28.4703C13.8824 28.5282 14.087 28.6286 14.2662 28.7658C14.4454 28.9029 14.5957 29.0741 14.7087 29.2695C14.8216 29.4648 14.8949 29.6806 14.9243 29.9043C14.9536 30.128 14.9386 30.3554 14.88 30.5733ZM38.3191 35.9651L35.6527 45.9162C35.5921 46.1352 35.4476 46.3215 35.2506 46.4347C35.0536 46.5479 34.8199 46.5789 34.6002 46.521L32.1128 45.8545C31.673 45.7367 31.2981 45.449 31.0704 45.0547C30.8428 44.6603 30.7811 44.1918 30.8989 43.752L33.1205 35.4608C33.2231 35.1051 33.4303 34.7884 33.7189 34.5555L33.7359 34.5601C33.9408 34.393 34.1828 34.2774 34.4415 34.2229C34.7002 34.1684 34.9682 34.1767 35.2231 34.2469L37.7104 34.9134C37.9303 34.9723 38.1178 35.1162 38.2316 35.3133C38.3454 35.5105 38.3763 35.7448 38.3174 35.9647" fill="#66E1FF"/>
<path d="M38.3191 35.9651L35.6527 45.9162C35.5921 46.1352 35.4476 46.3215 35.2506 46.4347C35.0536 46.5479 34.8199 46.5789 34.6002 46.521L32.1128 45.8545C31.673 45.7367 31.2981 45.449 31.0704 45.0547C30.8428 44.6603 30.7811 44.1918 30.8989 43.752L33.1205 35.4608C33.2231 35.1051 33.4303 34.7884 33.7189 34.5555L33.7359 34.5601C33.9408 34.393 34.1828 34.2774 34.4415 34.2229C34.7002 34.1684 34.9682 34.1767 35.2231 34.2469L37.7104 34.9134C37.9303 34.9723 38.1178 35.1162 38.2316 35.3133C38.3454 35.5105 38.3763 35.7448 38.3174 35.9647M14.88 30.5733L12.6584 38.8644C12.6002 39.0824 12.4996 39.2868 12.3625 39.4658C12.2253 39.6449 12.0541 39.7952 11.8588 39.9081C11.6635 40.021 11.4478 40.0943 11.2242 40.1238C11.0005 40.1533 10.7733 40.1384 10.5554 40.08L8.06801 39.4136C7.95898 39.3843 7.85679 39.3339 7.76728 39.2652C7.67777 39.1964 7.6027 39.1107 7.54636 39.0129C7.49003 38.915 7.45354 38.8071 7.43898 38.6952C7.42441 38.5832 7.43207 38.4695 7.46151 38.3606L10.1274 28.4112C10.1864 28.1913 10.3302 28.0038 10.5274 27.89C10.7245 27.7762 10.9588 27.7453 11.1787 27.8042L13.6644 28.4703C13.8824 28.5282 14.087 28.6286 14.2662 28.7658C14.4454 28.9029 14.5957 29.0741 14.7087 29.2695C14.8216 29.4648 14.8949 29.6806 14.9243 29.9043C14.9536 30.128 14.9386 30.3554 14.88 30.5733Z" stroke="#191919" stroke-linecap="round" stroke-linejoin="round"/>
</g>
<defs>
<clipPath id="clip0_371_1159">
<rect width="42.3013" height="42.3013" fill="white" transform="translate(10.9492) rotate(15)"/>
</clipPath>
</defs>
</svg>
