<svg preserveAspectRatio="none" width="100%" height="100%" overflow="visible" style="display: block;" viewBox="0 0 335.058 70.3231" fill="none" xmlns="http://www.w3.org/2000/svg">
<path id="Line" d="M0.500005 63.7988L33.4799 26.6393C36.8952 22.2956 46.1252 16.2143 55.7233 26.6393C67.721 39.6705 72.5375 39.0046 79.7185 31.5854C86.8996 24.1662 89.8771 25.3077 96.3575 26.6393C102.838 27.9709 114.398 30.8245 119.127 26.6393C122.91 23.2911 129.927 16.1129 132.963 12.9423C135.766 9.20094 143.437 3.96307 151.704 12.9423C159.971 21.9215 181.654 44.8387 191.463 55.1748C193.856 58.0918 200.22 62.1755 206.525 55.1748C212.831 48.1742 237.41 21.3128 248.911 8.75722C252.239 4.82567 260.015 -2.12429 264.499 1.52824C270.104 6.09391 272.03 5.71355 271.68 17.1277C271.33 28.5419 274.833 35.7709 282.714 35.9611C290.596 36.1513 301.981 32.5369 308.111 40.3365C313.015 46.5763 327.786 62.5942 334.558 69.8231" stroke="var(--stroke-0, #E87D1E)" stroke-linecap="round" stroke-linejoin="round"/>
</svg>
