<svg preserveAspectRatio="none" width="100%" height="100%" overflow="visible" style="display: block;" viewBox="0 0 337 139.601" fill="none" xmlns="http://www.w3.org/2000/svg">
<g id="Gradient" opacity="0.33" style="mix-blend-mode:multiply">
<path d="M33.2703 26.1394L0 63.2989V139.601H337V69.3232C330.168 62.0943 315.267 46.0764 310.32 39.8367C304.136 32.037 292.651 35.6515 284.7 35.4612C276.749 35.271 273.215 28.042 273.568 16.6278C273.922 5.21368 271.978 5.59404 266.324 1.02837C261.801 -2.62416 253.956 4.3258 250.599 8.25734C238.996 20.8129 214.201 47.6743 207.84 54.675C201.479 61.6757 195.059 57.5919 192.644 54.675C182.75 44.3388 160.875 21.4216 152.536 12.4424C144.196 3.46319 136.457 8.70107 133.63 12.4424C130.567 15.613 123.488 22.7913 119.671 26.1394C114.901 30.3246 103.239 27.4711 96.7017 26.1394C90.1642 24.8078 87.1605 23.6663 79.9162 31.0855C72.6719 38.5048 67.8129 39.1706 55.7097 26.1394C46.027 15.7145 36.7157 21.7957 33.2703 26.1394Z" fill="url(#paint0_linear_0_307)"/>
</g>
<defs>
<linearGradient id="paint0_linear_0_307" x1="168.5" y1="61.8864" x2="168.5" y2="139.601" gradientUnits="userSpaceOnUse">
<stop stop-color="#F6BA85"/>
<stop offset="0.46679" stop-color="#FFDCBB"/>
<stop offset="1" stop-color="#E5EAFC" stop-opacity="0.31"/>
</linearGradient>
</defs>
</svg>
