<svg preserveAspectRatio="none" width="100%" height="100%" overflow="visible" style="display: block;" viewBox="0 0 113.379 125.998" fill="none" xmlns="http://www.w3.org/2000/svg">
<path id="Combined shape 16535" fill-rule="evenodd" clip-rule="evenodd" d="M48.7955 72.8975C46.6269 72.8975 44.5131 74.3675 43.7989 76.4151C43.5955 76.9983 43.4506 77.4188 43.4535 77.425L44.4863 79.0419C45.4266 80.514 47.0527 81.4048 48.7994 81.4048H48.9779C50.6135 81.4048 52.136 80.5707 53.0165 79.1923L53.2588 78.8129C53.824 77.9282 54.0532 77.1532 53.7069 76.1622C53.1021 74.4313 51.2153 72.8955 49.3818 72.8972C49.1878 72.8974 48.9916 72.8975 48.7955 72.8975ZM29.0719 44.5552C30.0215 45.8351 30.8269 47.2256 31.3726 48.7229C34.7983 58.1226 40.6779 65.0038 48.7994 65.0038C56.1311 65.0038 61.8087 59.0448 65.3898 50.579C66.4899 47.9784 67.9683 45.5515 69.4774 43.165C70.7216 41.1974 71.3981 39.3958 71.6978 37.7835C72.5751 33.064 71.2555 27.9943 71.222 23.194C71.118 8.27447 60.9188 0 48.1567 0C22.0309 0 26.2523 31.2239 26.3479 31.908C26.3506 31.9271 26.3624 31.9216 26.3817 31.9235C26.4096 31.9262 26.4257 31.9535 26.4154 31.9796C25.3412 34.6882 24.977 39.0359 29.0719 44.5552ZM37.9242 27.5198C38.7454 26.5467 40.5007 27.3817 40.1989 28.6187C39.9834 29.5019 40.8307 30.2724 41.6864 29.9652C49.3195 27.2253 50.5101 25.6508 51.8841 24.5484C52.4558 24.0912 52.9956 23.631 53.502 23.1749C54.6563 22.1353 56.5638 22.4021 57.5918 23.5667C57.7089 23.7028 57.8355 23.585 57.9652 23.295C58.8719 21.2672 61.8009 20.6128 62.2902 22.7795C63.2071 26.8218 65.103 31.6053 64.5475 35.7129C62.8248 48.4514 57.1217 59.8962 48.7994 59.8962C40.1363 59.8962 34.3148 47.4981 32.8548 34.1458C32.7285 32.9904 33.5935 31.7967 34.4948 31.0627C35.5594 30.1957 36.7888 28.865 37.9242 27.5198ZM94.6274 58.0533C96.3936 58.0533 97.4646 56.7564 97.4646 55.1553C97.4267 53.5123 96.3936 52.2575 94.7037 52.2575C93.0138 52.2575 91.8951 53.5123 91.8951 55.1553C91.8903 56.7564 92.9615 58.0533 94.6274 58.0533ZM94.68 91.28C81.7412 91.28 71.2112 79.672 71.2112 65.4034C71.2112 64.5474 70.8086 63.7648 70.0154 63.4427L67.1138 62.2641C65.7973 61.7293 64.2992 62.3885 63.8041 63.7204L63.6802 64.0537C63.2746 65.1447 63.8094 66.3605 64.8878 66.7987C65.8987 67.2095 66.4425 68.3117 66.1534 69.3639L60.74 89.0644C59.3479 94.1306 51.9288 93.3238 51.6582 88.0768L51.5675 86.3179C51.4915 84.8442 50.2745 83.6884 48.7989 83.6884C47.3238 83.6884 46.1069 84.8437 46.0304 86.3169L45.943 87.9995C45.6753 93.1552 38.3855 93.9465 37.0177 88.9685L31.5897 69.2142C31.3135 68.2091 31.8346 67.1565 32.8014 66.7668C33.8355 66.35 34.3477 65.1839 33.955 64.1404L33.795 63.7152C33.2965 62.3902 31.8038 61.7367 30.4921 62.2691L19.7563 66.6265L19.5896 66.7051C19.4232 66.7942 6.91278 73.3569 1.43354 89.2535C1.06574 90.3197 0.730095 91.4294 0.432107 92.5831C-0.804857 97.3718 0.678051 102.426 4.05962 106.035C15.626 118.381 31.3882 125.988 48.7615 125.998H48.8566C49.9371 125.998 51.0035 125.966 52.0746 125.903H52.1461C69.8021 124.903 85.5802 116.062 96.6593 102.468C97.862 100.992 98.4111 99.0822 98.107 97.2029C97.8699 95.7369 97.5663 94.3368 97.2164 92.9884C96.9229 91.8577 95.8481 91.28 94.68 91.28ZM78.6613 104.968C78.6613 105.5 78.348 105.985 77.855 106.186C72.6256 108.315 67.363 108.704 64.2707 108.704C63.9198 108.704 63.5973 108.699 63.3058 108.689C62.5107 108.665 61.8952 107.998 61.8952 107.202C61.8952 106.321 62.6407 105.654 63.5204 105.699C66.1637 105.833 71.5987 105.784 76.588 103.676C77.5381 103.274 78.6613 103.936 78.6613 104.968ZM94.68 44.7764C84.3498 44.7764 75.9717 54.0109 75.9717 65.4034C75.9717 76.795 84.3498 86.0298 94.68 86.0298C105.01 86.0298 113.379 76.795 113.379 65.4034C113.379 54.0109 105.01 44.7764 94.68 44.7764ZM94.68 81.4786C86.6301 81.4786 80.0988 74.2859 80.0988 65.4034C80.0988 56.5199 86.6253 49.328 94.68 49.328C102.734 49.328 109.251 56.5199 109.251 65.4034C109.251 74.2859 102.734 81.4786 94.68 81.4786ZM97.2934 62.9724C97.2934 61.5198 96.1159 60.3423 94.6633 60.3423H92.0385C92.0356 60.3423 92.0332 60.3446 92.0332 60.3475C92.0332 60.3504 92.0309 60.3527 92.028 60.3527H91.0573C90.5183 60.3527 90.0814 60.7897 90.0814 61.3287V62.7476C90.0814 63.2866 90.5183 63.7235 91.0573 63.7235C91.5963 63.7235 92.0332 64.1605 92.0332 64.6995V74.7234C92.0332 75.2966 91.5686 75.7613 90.9954 75.7613C90.4222 75.7613 89.9576 76.2259 89.9576 76.7991V77.9418C89.9576 78.515 90.4222 78.9797 90.9954 78.9797H92.0202C92.0274 78.9797 92.0332 78.9855 92.0332 78.9927C92.0332 78.9999 92.0391 79.0057 92.0463 79.0057H97.2804C97.2876 79.0057 97.2934 78.9999 97.2934 78.9927C97.2934 78.9855 97.2993 78.9797 97.3065 78.9797H98.1527C98.6272 78.9797 99.0119 78.595 99.0119 78.1204V76.6205C99.0119 76.146 98.6272 75.7613 98.1527 75.7613C97.6781 75.7613 97.2934 75.3766 97.2934 74.902V62.9724Z" fill="var(--fill-0, #E87D1E)"/>
</svg>
