<svg width="139" height="172" viewBox="0 0 139 172" fill="none" xmlns="http://www.w3.org/2000/svg">
<path d="M94.7747 64.6179V114.343C94.7747 115.201 94.6696 116.066 94.4219 116.887C89.0658 134.64 73.3665 135.538 65.2091 133.569C83.2495 150.502 104.872 154.323 115.097 154.17C116.323 154.151 117.528 153.839 118.604 153.251C134.227 144.71 138.199 124.806 138.199 115.635V65.1937C138.199 62.992 137.492 60.8129 136.029 59.1673C121.249 42.5394 105.388 50.3915 97.2044 58.3925C95.5457 60.0143 94.7747 62.298 94.7747 64.6179Z" fill="white"/>
<path d="M64.2852 133.325C64.5808 133.41 64.8891 133.492 65.2091 133.569M65.2091 133.569C73.3665 135.538 89.0658 134.64 94.4219 116.887C94.6696 116.066 94.7747 115.201 94.7747 114.343V64.6179C94.7747 62.298 95.5457 60.0143 97.2044 58.3925C105.388 50.3915 121.249 42.5394 136.029 59.1673C137.492 60.8129 138.199 62.992 138.199 65.1937V115.635C138.199 124.806 134.227 144.71 118.604 153.251C117.528 153.839 116.323 154.151 115.097 154.169C104.872 154.323 83.2495 150.502 65.2091 133.569Z" stroke="white"/>
<path d="M0.533203 68.0522V123.287C0.533203 125.352 0.840411 127.443 1.56082 129.38C21.6702 183.423 99.3989 173.522 137.274 161.314C81.3428 169.107 52.9659 138.443 44.3246 119.528C43.3919 117.487 43.0144 115.261 42.9764 113.017L42.2268 68.7106C42.151 64.2333 40.7058 59.7618 37.3605 56.7849C25.1385 45.9088 13.0697 50.0836 5.51248 56.1009C1.95684 58.932 0.533203 63.5071 0.533203 68.0522Z" fill="white"/>
<path d="M138.198 161.013C137.893 161.114 137.585 161.214 137.274 161.314M137.274 161.314C99.3989 173.522 21.6702 183.423 1.56082 129.38C0.840411 127.443 0.533203 125.352 0.533203 123.287V68.0522C0.533203 63.5071 1.95684 58.932 5.51248 56.1009C13.0697 50.0836 25.1385 45.9088 37.3605 56.7849C40.7058 59.7618 42.151 64.2333 42.2268 68.7106L42.9764 113.017C43.0144 115.261 43.3919 117.487 44.3246 119.528C52.9659 138.443 81.3428 169.107 137.274 161.314Z" stroke="white"/>
<ellipse cx="18.3878" cy="18.1058" rx="18.3878" ry="18.1058" fill="#E87D1E"/>
<ellipse cx="115.478" cy="18.1058" rx="18.3878" ry="18.1058" fill="#E87D1E"/>
</svg>
