<svg width="44" height="44" viewBox="0 0 44 44" fill="none" xmlns="http://www.w3.org/2000/svg">
<path d="M14.2993 3.6665H29.6993C35.566 3.6665 40.3327 8.43317 40.3327 14.2998V29.6998C40.3327 32.52 39.2124 35.2246 37.2183 37.2187C35.2241 39.2129 32.5195 40.3332 29.6993 40.3332H14.2993C8.43268 40.3332 3.66602 35.5665 3.66602 29.6998V14.2998C3.66602 11.4797 4.78631 8.77507 6.78045 6.78094C8.77458 4.7868 11.4792 3.6665 14.2993 3.6665ZM13.9327 7.33317C12.1823 7.33317 10.5035 8.02853 9.26578 9.26627C8.02804 10.504 7.33268 12.1827 7.33268 13.9332V30.0665C7.33268 33.7148 10.2843 36.6665 13.9327 36.6665H30.066C31.8164 36.6665 33.4952 35.9711 34.7329 34.7334C35.9707 33.4957 36.666 31.8169 36.666 30.0665V13.9332C36.666 10.2848 33.7143 7.33317 30.066 7.33317H13.9327ZM31.6243 10.0832C32.2321 10.0832 32.815 10.3246 33.2448 10.7544C33.6746 11.1842 33.916 11.767 33.916 12.3748C33.916 12.9826 33.6746 13.5655 33.2448 13.9953C32.815 14.4251 32.2321 14.6665 31.6243 14.6665C31.0166 14.6665 30.4337 14.4251 30.0039 13.9953C29.5741 13.5655 29.3327 12.9826 29.3327 12.3748C29.3327 11.767 29.5741 11.1842 30.0039 10.7544C30.4337 10.3246 31.0166 10.0832 31.6243 10.0832ZM21.9993 12.8332C24.4305 12.8332 26.7621 13.7989 28.4812 15.518C30.2002 17.2371 31.166 19.5687 31.166 21.9998C31.166 24.431 30.2002 26.7626 28.4812 28.4816C26.7621 30.2007 24.4305 31.1665 21.9993 31.1665C19.5682 31.1665 17.2366 30.2007 15.5175 28.4816C13.7985 26.7626 12.8327 24.431 12.8327 21.9998C12.8327 19.5687 13.7985 17.2371 15.5175 15.518C17.2366 13.7989 19.5682 12.8332 21.9993 12.8332ZM21.9993 16.4998C20.5407 16.4998 19.1417 17.0793 18.1103 18.1107C17.0788 19.1422 16.4993 20.5411 16.4993 21.9998C16.4993 23.4585 17.0788 24.8575 18.1103 25.8889C19.1417 26.9204 20.5407 27.4998 21.9993 27.4998C23.458 27.4998 24.857 26.9204 25.8884 25.8889C26.9199 24.8575 27.4993 23.4585 27.4993 21.9998C27.4993 20.5411 26.9199 19.1422 25.8884 18.1107C24.857 17.0793 23.458 16.4998 21.9993 16.4998Z" fill="white"/>
</svg>
