<svg width="26" height="26" viewBox="0 0 26 26" fill="none" xmlns="http://www.w3.org/2000/svg">
<path d="M11.375 7.85425C11.2313 7.85425 11.0936 7.91132 10.992 8.0129C10.8904 8.11448 10.8333 8.25226 10.8333 8.39591C10.8333 8.53957 10.8904 8.67735 10.992 8.77893C11.0936 8.88051 11.2313 8.93758 11.375 8.93758H14.625C14.7687 8.93758 14.9064 8.88051 15.008 8.77893C15.1096 8.67735 15.1667 8.53957 15.1667 8.39591C15.1667 8.25226 15.1096 8.11448 15.008 8.0129C14.9064 7.91132 14.7687 7.85425 14.625 7.85425H11.375ZM10.2917 13.8126C10.2917 14.0999 10.1775 14.3754 9.97437 14.5786C9.7712 14.7818 9.49565 14.8959 9.20833 14.8959C8.92102 14.8959 8.64547 14.7818 8.4423 14.5786C8.23914 14.3754 8.125 14.0999 8.125 13.8126C8.125 13.5253 8.23914 13.2497 8.4423 13.0465C8.64547 12.8434 8.92102 12.7292 9.20833 12.7292C9.49565 12.7292 9.7712 12.8434 9.97437 13.0465C10.1775 13.2497 10.2917 13.5253 10.2917 13.8126ZM10.2917 17.6042C10.2917 17.8916 10.1775 18.1671 9.97437 18.3703C9.7712 18.5734 9.49565 18.6876 9.20833 18.6876C8.92102 18.6876 8.64547 18.5734 8.4423 18.3703C8.23914 18.1671 8.125 17.8916 8.125 17.6042C8.125 17.3169 8.23914 17.0414 8.4423 16.8382C8.64547 16.6351 8.92102 16.5209 9.20833 16.5209C9.49565 16.5209 9.7712 16.6351 9.97437 16.8382C10.1775 17.0414 10.2917 17.3169 10.2917 17.6042ZM13 14.8959C13.2873 14.8959 13.5629 14.7818 13.766 14.5786C13.9692 14.3754 14.0833 14.0999 14.0833 13.8126C14.0833 13.5253 13.9692 13.2497 13.766 13.0465C13.5629 12.8434 13.2873 12.7292 13 12.7292C12.7127 12.7292 12.4371 12.8434 12.234 13.0465C12.0308 13.2497 11.9167 13.5253 11.9167 13.8126C11.9167 14.0999 12.0308 14.3754 12.234 14.5786C12.4371 14.7818 12.7127 14.8959 13 14.8959ZM14.0833 17.6042C14.0833 17.8916 13.9692 18.1671 13.766 18.3703C13.5629 18.5734 13.2873 18.6876 13 18.6876C12.7127 18.6876 12.4371 18.5734 12.234 18.3703C12.0308 18.1671 11.9167 17.8916 11.9167 17.6042C11.9167 17.3169 12.0308 17.0414 12.234 16.8382C12.4371 16.6351 12.7127 16.5209 13 16.5209C13.2873 16.5209 13.5629 16.6351 13.766 16.8382C13.9692 17.0414 14.0833 17.3169 14.0833 17.6042ZM16.7917 14.8959C17.079 14.8959 17.3545 14.7818 17.5577 14.5786C17.7609 14.3754 17.875 14.0999 17.875 13.8126C17.875 13.5253 17.7609 13.2497 17.5577 13.0465C17.3545 12.8434 17.079 12.7292 16.7917 12.7292C16.5043 12.7292 16.2288 12.8434 16.0256 13.0465C15.8225 13.2497 15.7083 13.5253 15.7083 13.8126C15.7083 14.0999 15.8225 14.3754 16.0256 14.5786C16.2288 14.7818 16.5043 14.8959 16.7917 14.8959Z" fill="#151515"/>
<path fill-rule="evenodd" clip-rule="evenodd" d="M8.66667 3.79175C8.81033 3.79175 8.9481 3.84882 9.04968 3.9504C9.15127 4.05198 9.20833 4.18976 9.20833 4.33341V5.41675H16.7917V4.33341C16.7917 4.18976 16.8487 4.05198 16.9503 3.9504C17.0519 3.84882 17.1897 3.79175 17.3333 3.79175C17.477 3.79175 17.6148 3.84882 17.7164 3.9504C17.8179 4.05198 17.875 4.18976 17.875 4.33341V5.42C18.1401 5.42216 18.3762 5.43155 18.5835 5.44816C18.9789 5.48066 19.3256 5.54891 19.6463 5.71141C20.1557 5.9713 20.5698 6.3858 20.8292 6.8955C20.9928 7.21616 21.0611 7.56283 21.0936 7.95716C21.125 8.34175 21.125 8.81516 21.125 9.40233V17.6812C21.125 18.2683 21.125 18.7428 21.0936 19.1252C21.0611 19.5207 20.9928 19.8673 20.8292 20.188C20.5696 20.6973 20.1556 21.1114 19.6463 21.371C19.3256 21.5346 18.9789 21.6028 18.5846 21.6353C18.2 21.6667 17.7266 21.6667 17.1405 21.6667H8.86058C8.27342 21.6667 7.79892 21.6667 7.4165 21.6353C7.02108 21.6028 6.67442 21.5346 6.35375 21.371C5.84405 21.1116 5.42955 20.6975 5.16967 20.188C5.00717 19.8673 4.93892 19.5207 4.90642 19.1263C4.875 18.7417 4.875 18.2672 4.875 17.6801V9.40342C4.875 8.88883 4.875 8.46308 4.89667 8.10666L4.90642 7.95933C4.93892 7.56392 5.00717 7.21725 5.16967 6.89658C5.42937 6.38671 5.84388 5.9722 6.35375 5.7125C6.67442 5.55 7.02108 5.48175 7.41542 5.44925C7.62414 5.43264 7.86067 5.42325 8.125 5.42108V4.33341C8.125 4.18976 8.18207 4.05198 8.28365 3.9504C8.38523 3.84882 8.52301 3.79175 8.66667 3.79175ZM8.125 7.04175V6.50333C7.91787 6.50504 7.71085 6.51335 7.50425 6.52825C7.17708 6.55425 6.98858 6.60408 6.84558 6.67666C6.53955 6.83251 6.29076 7.0813 6.13492 7.38733C6.06233 7.53033 6.0125 7.71883 5.9865 8.046C5.95833 8.38075 5.95833 8.80975 5.95833 9.42508V10.0209H20.0417V9.42508C20.0417 8.80975 20.0417 8.38075 20.0135 8.046C19.9875 7.71883 19.9377 7.53033 19.8651 7.38733C19.7092 7.0813 19.4605 6.83251 19.1544 6.67666C19.0114 6.60408 18.8229 6.55425 18.4958 6.52825C18.2892 6.51335 18.0821 6.50504 17.875 6.50333V7.04175C17.875 7.18541 17.8179 7.32318 17.7164 7.42476C17.6148 7.52635 17.477 7.58341 17.3333 7.58341C17.1897 7.58341 17.0519 7.52635 16.9503 7.42476C16.8487 7.32318 16.7917 7.18541 16.7917 7.04175V6.50008H9.20833V7.04175C9.20833 7.18541 9.15127 7.32318 9.04968 7.42476C8.9481 7.52635 8.81033 7.58341 8.66667 7.58341C8.52301 7.58341 8.38523 7.52635 8.28365 7.42476C8.18207 7.32318 8.125 7.18541 8.125 7.04175ZM20.0417 11.1042H5.95833V17.6584C5.95833 18.2737 5.95833 18.7038 5.9865 19.0375C6.0125 19.3647 6.06233 19.5532 6.13492 19.6962C6.29076 20.0022 6.53955 20.251 6.84558 20.4068C6.98858 20.4794 7.17708 20.5292 7.50425 20.5553C7.839 20.5834 8.268 20.5834 8.88333 20.5834H17.1167C17.732 20.5834 18.1621 20.5834 18.4958 20.5553C18.8229 20.5292 19.0114 20.4794 19.1544 20.4068C19.4605 20.251 19.7092 20.0022 19.8651 19.6962C19.9377 19.5532 19.9875 19.3647 20.0135 19.0375C20.0417 18.7038 20.0417 18.2737 20.0417 17.6584V11.1042Z" fill="#151515"/>
</svg>
