<svg width="40" height="40" viewBox="0 0 40 40" fill="none" xmlns="http://www.w3.org/2000/svg">
<path d="M21.25 33.75V26.25H26.25L20 18.75L13.75 26.25H18.75V33.75H12.5V33.6875C12.2891 33.6992 12.0898 33.75 11.875 33.75C9.3886 33.75 7.00403 32.7623 5.24587 31.0041C3.48772 29.246 2.5 26.8614 2.5 24.375C2.50324 22.0798 3.35186 19.8662 4.88377 18.157C6.41568 16.4479 8.52352 15.3629 10.8047 15.1094C11.2149 12.9704 12.357 11.0409 14.035 9.65234C15.7129 8.26378 17.822 7.50277 20 7.5C22.1787 7.50186 24.2887 8.26246 25.9674 9.6511C27.6462 11.0397 28.7889 12.9697 29.1992 15.1094C31.479 15.3647 33.5849 16.4504 35.1152 18.1594C36.6455 19.8684 37.4931 22.081 37.4961 24.375C37.4961 26.8614 36.5084 29.246 34.7502 31.0041C32.9921 32.7623 30.6075 33.75 28.1211 33.75C27.9141 33.75 27.7109 33.6992 27.4961 33.6875V33.75H21.25Z" fill="#1A3047"/>
</svg>
