<svg width="34" height="34" viewBox="0 0 34 34" fill="none" xmlns="http://www.w3.org/2000/svg">
<path d="M5.66602 6.37467C5.66602 5.43537 6.03915 4.53453 6.70335 3.87034C7.36754 3.20615 8.26837 2.83301 9.20768 2.83301H25.4993C25.9644 2.83301 26.425 2.92462 26.8547 3.1026C27.2844 3.28059 27.6748 3.54146 28.0037 3.87034C28.3326 4.19921 28.5934 4.58964 28.7714 5.01934C28.9494 5.44903 29.041 5.90958 29.041 6.37467V26.5622C29.041 26.844 28.9291 27.1142 28.7298 27.3135C28.5306 27.5127 28.2603 27.6247 27.9785 27.6247H7.79102C7.79102 28.0004 7.94027 28.3607 8.20595 28.6264C8.47162 28.8921 8.83196 29.0413 9.20768 29.0413H27.9785C28.2603 29.0413 28.5306 29.1533 28.7298 29.3525C28.9291 29.5518 29.041 29.822 29.041 30.1038C29.041 30.3856 28.9291 30.6559 28.7298 30.8551C28.5306 31.0544 28.2603 31.1663 27.9785 31.1663H9.20768C8.26837 31.1663 7.36754 30.7932 6.70335 30.129C6.03915 29.4648 5.66602 28.564 5.66602 27.6247V6.37467ZM17.3535 11.333C17.7292 11.333 18.0896 11.1838 18.3552 10.9181C18.6209 10.6524 18.7702 10.2921 18.7702 9.91634C18.7702 9.54062 18.6209 9.18028 18.3552 8.91461C18.0896 8.64893 17.7292 8.49967 17.3535 8.49967C16.9778 8.49967 16.6175 8.64893 16.3518 8.91461C16.0861 9.18028 15.9368 9.54062 15.9368 9.91634C15.9368 10.2921 16.0861 10.6524 16.3518 10.9181C16.6175 11.1838 16.9778 11.333 17.3535 11.333ZM16.291 13.8122V20.8955C16.291 21.1773 16.403 21.4475 16.6022 21.6468C16.8015 21.8461 17.0717 21.958 17.3535 21.958C17.6353 21.958 17.9056 21.8461 18.1048 21.6468C18.3041 21.4475 18.416 21.1773 18.416 20.8955V13.8122C18.416 13.5304 18.3041 13.2601 18.1048 13.0609C17.9056 12.8616 17.6353 12.7497 17.3535 12.7497C17.0717 12.7497 16.8015 12.8616 16.6022 13.0609C16.403 13.2601 16.291 13.5304 16.291 13.8122Z" fill="#1A3047"/>
</svg>
