<svg width="34" height="34" viewBox="0 0 34 34" fill="none" xmlns="http://www.w3.org/2000/svg">
<path d="M31.2794 9.51973H23.1194V6.81605C23.1194 4.87737 21.8675 2.71973 19.9309 2.71973H13.4083C11.4696 2.71973 10.1994 4.87737 10.1994 6.81605V9.51973H2.71938C1.97137 9.51973 1.35938 10.1317 1.35938 10.8797V30.5997C1.35938 31.3477 1.97137 31.9597 2.71938 31.9597H31.2794C32.0274 31.9597 32.6394 31.3477 32.6394 30.5997V10.8797C32.6394 10.1317 32.0274 9.51973 31.2794 9.51973ZM20.3994 29.9197H12.9194V29.1942C12.9194 29.1785 13.3362 29.1581 13.5355 29.1343C13.7347 29.1105 13.9095 29.0704 14.0529 29.0146C14.3079 28.9188 14.5935 28.7814 14.6976 28.6026C14.8016 28.4237 14.9594 28.1857 14.9594 27.8913V20.9349C14.9594 20.6561 14.7907 20.4106 14.6629 20.1998C14.5351 19.989 14.3236 19.819 14.1325 19.6918C13.989 19.596 13.8884 19.5048 13.5973 19.4171C13.3063 19.3294 12.9194 19.273 12.9194 19.2492V18.3767L18.4784 18.066L18.3594 18.2448V27.7356C18.3594 28.0144 18.5743 28.2517 18.6939 28.4468C18.8136 28.642 19.0625 28.7875 19.2855 28.8834C19.4447 28.9548 19.6153 29.0187 19.8071 29.0745C19.9989 29.1302 20.3994 29.1697 20.3994 29.1942V29.9197ZM14.0203 13.7622C14.0203 13.1566 14.2533 12.6387 14.7193 12.2084C15.4184 11.5631 15.7414 11.5631 16.3867 11.5631C17.032 11.5631 17.5862 11.778 18.0479 12.2084C18.5097 12.6389 18.7415 13.157 18.7415 13.7622C18.7415 14.3674 18.5083 14.8836 18.0425 15.3099C17.5767 15.7363 17.0245 15.9491 16.3867 15.9491C15.7411 15.9491 15.1854 15.7361 14.7193 15.3099C14.0203 14.6707 14.0203 14.3681 14.0203 13.7622ZM21.0794 9.51973H12.2394V6.81605C12.2394 6.09049 12.9738 4.75973 13.6993 4.75973H19.1747C19.8989 4.75973 21.0794 6.09049 21.0794 6.81605V9.51973Z" fill="#1A3047"/>
</svg>
