<svg width="34" height="34" viewBox="0 0 34 34" fill="none" xmlns="http://www.w3.org/2000/svg">
<path d="M16.9993 5.66699C18.5022 5.66699 19.9436 6.26401 21.0063 7.32672C22.069 8.38943 22.666 9.83077 22.666 11.3337C22.666 12.8366 22.069 14.2779 21.0063 15.3406C19.9436 16.4033 18.5022 17.0003 16.9993 17.0003C15.4965 17.0003 14.0551 16.4033 12.9924 15.3406C11.9297 14.2779 11.3327 12.8366 11.3327 11.3337C11.3327 9.83077 11.9297 8.38943 12.9924 7.32672C14.0551 6.26401 15.4965 5.66699 16.9993 5.66699ZM16.9993 19.8337C23.261 19.8337 28.3327 22.3695 28.3327 25.5003V28.3337H5.66602V25.5003C5.66602 22.3695 10.7377 19.8337 16.9993 19.8337Z" fill="#1A3047"/>
</svg>
