<svg width="34" height="34" viewBox="0 0 34 34" fill="none" xmlns="http://www.w3.org/2000/svg">
<path d="M17 2.83301C20.3815 2.83301 23.6245 4.17631 26.0156 6.5674C28.4067 8.95848 29.75 12.2015 29.75 15.583C29.75 19.9378 27.3757 23.5022 24.8738 26.0593C23.6239 27.323 22.26 28.4688 20.7995 29.4819L20.196 29.8928L19.9127 30.0812L19.3786 30.4212L18.9026 30.7116L18.3132 31.0544C17.9132 31.2827 17.4606 31.4028 17 31.4028C16.5394 31.4028 16.0868 31.2827 15.6867 31.0544L15.0974 30.7116L14.3608 30.2583L14.0887 30.0812L13.5079 29.6944C11.9323 28.6284 10.4648 27.4109 9.12617 26.0593C6.62433 23.5008 4.25 19.9378 4.25 15.583C4.25 12.2015 5.5933 8.95848 7.98439 6.5674C10.3755 4.17631 13.6185 2.83301 17 2.83301ZM17 11.333C16.4419 11.333 15.8892 11.4429 15.3736 11.6565C14.858 11.8701 14.3894 12.1832 13.9948 12.5778C13.6001 12.9725 13.2871 13.441 13.0735 13.9566C12.8599 14.4722 12.75 15.0249 12.75 15.583C12.75 16.1411 12.8599 16.6938 13.0735 17.2094C13.2871 17.725 13.6001 18.1936 13.9948 18.5882C14.3894 18.9829 14.858 19.2959 15.3736 19.5095C15.8892 19.7231 16.4419 19.833 17 19.833C18.1272 19.833 19.2082 19.3852 20.0052 18.5882C20.8022 17.7912 21.25 16.7102 21.25 15.583C21.25 14.4558 20.8022 13.3748 20.0052 12.5778C19.2082 11.7808 18.1272 11.333 17 11.333Z" fill="#1A3047"/>
</svg>
