<svg width="20" height="20" viewBox="0 0 20 20" fill="none" xmlns="http://www.w3.org/2000/svg">
<g clip-path="url(#clip0_674_1368)">
<path fill-rule="evenodd" clip-rule="evenodd" d="M10.5883 13.0893C10.432 13.2455 10.2201 13.3333 9.99915 13.3333C9.77818 13.3333 9.56625 13.2455 9.40998 13.0893L4.69581 8.37512C4.61622 8.29825 4.55274 8.2063 4.50906 8.10463C4.46539 8.00296 4.4424 7.89361 4.44144 7.78296C4.44048 7.67231 4.46156 7.56258 4.50346 7.46016C4.54536 7.35775 4.60724 7.2647 4.68548 7.18646C4.76373 7.10822 4.85677 7.04634 4.95918 7.00444C5.0616 6.96254 5.17133 6.94145 5.28198 6.94241C5.39263 6.94338 5.50198 6.96636 5.60365 7.01004C5.70532 7.05371 5.79727 7.1172 5.87415 7.19679L9.99915 11.3218L14.1241 7.19679C14.2813 7.04499 14.4918 6.961 14.7103 6.96289C14.9288 6.96479 15.1378 7.05243 15.2923 7.20694C15.4468 7.36145 15.5345 7.57046 15.5364 7.78896C15.5383 8.00745 15.4543 8.21795 15.3025 8.37512L10.5883 13.0893Z" fill="#181818"/>
</g>
<defs>
<clipPath id="clip0_674_1368">
<rect width="20" height="20" fill="white"/>
</clipPath>
</defs>
</svg>
