<svg preserveAspectRatio="none" width="100%" height="100%" overflow="visible" style="display: block;" viewBox="0 0 17.4167 17" fill="none" xmlns="http://www.w3.org/2000/svg">
<g id="Group">
<path id="Vector" d="M0.375 8.29167C0.375 5.14917 0.375 3.5775 1.35167 2.60167C2.32833 1.62583 3.89917 1.625 7.04167 1.625H10.375C13.5175 1.625 15.0892 1.625 16.065 2.60167C17.0408 3.57833 17.0417 5.14917 17.0417 8.29167V9.95833C17.0417 13.1008 17.0417 14.6725 16.065 15.6483C15.0883 16.6242 13.5175 16.625 10.375 16.625H7.04167C3.89917 16.625 2.3275 16.625 1.35167 15.6483C0.375833 14.6717 0.375 13.1008 0.375 9.95833V8.29167Z" stroke="var(--stroke-0, #222222)" stroke-width="0.75"/>
<path id="Vector_2" d="M4.54167 1.625V0.375M12.875 1.625V0.375M0.791667 5.79167H16.625" stroke="var(--stroke-0, #222222)" stroke-width="0.75" stroke-linecap="round"/>
<path id="Vector_3" d="M13.7083 12.4583C13.7083 12.6793 13.6205 12.8913 13.4643 13.0476C13.308 13.2039 13.096 13.2917 12.875 13.2917C12.654 13.2917 12.442 13.2039 12.2857 13.0476C12.1295 12.8913 12.0417 12.6793 12.0417 12.4583C12.0417 12.2373 12.1295 12.0254 12.2857 11.8691C12.442 11.7128 12.654 11.625 12.875 11.625C13.096 11.625 13.308 11.7128 13.4643 11.8691C13.6205 12.0254 13.7083 12.2373 13.7083 12.4583ZM13.7083 9.125C13.7083 9.34601 13.6205 9.55798 13.4643 9.71426C13.308 9.87054 13.096 9.95833 12.875 9.95833C12.654 9.95833 12.442 9.87054 12.2857 9.71426C12.1295 9.55798 12.0417 9.34601 12.0417 9.125C12.0417 8.90399 12.1295 8.69203 12.2857 8.53574C12.442 8.37946 12.654 8.29167 12.875 8.29167C13.096 8.29167 13.308 8.37946 13.4643 8.53574C13.6205 8.69203 13.7083 8.90399 13.7083 9.125ZM9.54167 12.4583C9.54167 12.6793 9.45387 12.8913 9.29759 13.0476C9.14131 13.2039 8.92935 13.2917 8.70833 13.2917C8.48732 13.2917 8.27536 13.2039 8.11908 13.0476C7.9628 12.8913 7.875 12.6793 7.875 12.4583C7.875 12.2373 7.9628 12.0254 8.11908 11.8691C8.27536 11.7128 8.48732 11.625 8.70833 11.625C8.92935 11.625 9.14131 11.7128 9.29759 11.8691C9.45387 12.0254 9.54167 12.2373 9.54167 12.4583ZM9.54167 9.125C9.54167 9.34601 9.45387 9.55798 9.29759 9.71426C9.14131 9.87054 8.92935 9.95833 8.70833 9.95833C8.48732 9.95833 8.27536 9.87054 8.11908 9.71426C7.9628 9.55798 7.875 9.34601 7.875 9.125C7.875 8.90399 7.9628 8.69203 8.11908 8.53574C8.27536 8.37946 8.48732 8.29167 8.70833 8.29167C8.92935 8.29167 9.14131 8.37946 9.29759 8.53574C9.45387 8.69203 9.54167 8.90399 9.54167 9.125ZM5.375 12.4583C5.375 12.6793 5.2872 12.8913 5.13092 13.0476C4.97464 13.2039 4.76268 13.2917 4.54167 13.2917C4.32065 13.2917 4.10869 13.2039 3.95241 13.0476C3.79613 12.8913 3.70833 12.6793 3.70833 12.4583C3.70833 12.2373 3.79613 12.0254 3.95241 11.8691C4.10869 11.7128 4.32065 11.625 4.54167 11.625C4.76268 11.625 4.97464 11.7128 5.13092 11.8691C5.2872 12.0254 5.375 12.2373 5.375 12.4583ZM5.375 9.125C5.375 9.34601 5.2872 9.55798 5.13092 9.71426C4.97464 9.87054 4.76268 9.95833 4.54167 9.95833C4.32065 9.95833 4.10869 9.87054 3.95241 9.71426C3.79613 9.55798 3.70833 9.34601 3.70833 9.125C3.70833 8.90399 3.79613 8.69203 3.95241 8.53574C4.10869 8.37946 4.32065 8.29167 4.54167 8.29167C4.76268 8.29167 4.97464 8.37946 5.13092 8.53574C5.2872 8.69203 5.375 8.90399 5.375 9.125Z" fill="var(--fill-0, #222222)"/>
</g>
</svg>
