<svg preserveAspectRatio="none" width="100%" height="100%" overflow="visible" style="display: block;" viewBox="0 0 94 94" fill="none" xmlns="http://www.w3.org/2000/svg">
<g id="ic:round-contact-phone">
<path id="Vector" d="M86.1667 11.75H7.83333C3.525 11.75 0 15.275 0 19.5833V74.4167C0 78.725 3.525 82.25 7.83333 82.25H86.1667C90.475 82.25 93.9608 78.725 93.9608 74.4167L94 19.5833C94 15.275 90.475 11.75 86.1667 11.75ZM31.3333 23.5C37.835 23.5 43.0833 28.7483 43.0833 35.25C43.0833 41.7517 37.835 47 31.3333 47C24.8317 47 19.5833 41.7517 19.5833 35.25C19.5833 28.7483 24.8317 23.5 31.3333 23.5ZM54.8333 70.5H7.83333V66.5833C7.83333 58.75 23.5 54.4417 31.3333 54.4417C39.1667 54.4417 54.8333 58.75 54.8333 66.5833V70.5ZM69.9125 54.8333H75.3567C75.9833 54.8333 76.5317 55.1075 76.9233 55.6167L81.2317 61.2958C81.8192 62.0792 81.7408 63.1758 81.0358 63.8417L75.7092 69.1683C75.0042 69.8733 73.8292 69.9517 73.085 69.325C68.6034 65.5148 65.3582 60.4562 63.7633 54.7942C62.3017 49.6875 62.3017 44.2733 63.7633 39.1667C65.345 33.4987 68.5925 28.4364 73.085 24.6358C73.8683 23.97 75.0042 24.0875 75.7092 24.7925L81.0358 30.1192C81.7408 30.8242 81.8192 31.9208 81.2317 32.665L76.9233 38.3442C76.7454 38.5921 76.5098 38.793 76.2368 38.9294C75.9639 39.0659 75.6618 39.1339 75.3567 39.1275H69.9125C69.0508 41.595 68.5417 44.2192 68.5417 46.9608C68.5417 49.7025 69.0508 52.3658 69.9125 54.8333Z" fill="var(--fill-0, #E87D1E)"/>
</g>
</svg>
