<svg preserveAspectRatio="none" width="100%" height="100%" overflow="visible" style="display: block;" viewBox="0 0 24 24" fill="none" xmlns="http://www.w3.org/2000/svg">
<g id="oui:arrow-down">
<path id="Vector" d="M19.6035 7.7355L12.576 14.652C12.4227 14.8037 12.2157 14.8888 12 14.8888C11.7843 14.8888 11.5773 14.8037 11.424 14.652L4.395 7.737C4.24072 7.58539 4.03306 7.50043 3.81675 7.50043C3.60044 7.50043 3.39278 7.58539 3.2385 7.737C3.16253 7.81107 3.10215 7.89959 3.06092 7.99735C3.0197 8.09512 2.99846 8.20015 2.99846 8.30625C2.99846 8.41235 3.0197 8.51738 3.06092 8.61515C3.10215 8.71291 3.16253 8.80143 3.2385 8.8755L10.2645 15.7905C10.7273 16.2449 11.3499 16.4995 11.9985 16.4995C12.6471 16.4995 13.2697 16.2449 13.7325 15.7905L20.7585 8.8755C20.8347 8.80141 20.8953 8.71279 20.9366 8.61489C20.978 8.51699 20.9993 8.41178 20.9993 8.3055C20.9993 8.19922 20.978 8.09401 20.9366 7.99611C20.8953 7.89821 20.8347 7.80959 20.7585 7.7355C20.6042 7.58389 20.3966 7.49893 20.1802 7.49893C19.9639 7.49893 19.7563 7.58389 19.602 7.7355" fill="var(--fill-0, #222222)"/>
</g>
</svg>
