<svg preserveAspectRatio="none" width="100%" height="100%" overflow="visible" style="display: block;" viewBox="0 0 94 94" fill="none" xmlns="http://www.w3.org/2000/svg">
<g id="mdi:work-outline">
<path id="Vector" d="M78.3333 23.5C80.605 23.5 82.4458 24.2833 83.895 25.8108C85.3833 27.4167 86.1667 29.1792 86.1667 31.3333V74.4167C86.1667 76.5708 85.3833 78.3333 83.895 79.9392C82.4458 81.4667 80.605 82.25 78.3333 82.25H15.6667C13.395 82.25 11.5542 81.4667 10.105 79.9392C8.61667 78.3333 7.83333 76.5708 7.83333 74.4167V31.3333C7.83333 29.1792 8.61667 27.4167 10.105 25.8108C11.5542 24.2833 13.395 23.5 15.6667 23.5H31.3333V15.6667C31.3333 13.395 32.1167 11.5542 33.605 10.105C35.0542 8.61667 36.895 7.83333 39.1667 7.83333H54.8333C57.105 7.83333 58.9458 8.61667 60.395 10.105C61.8833 11.5542 62.6667 13.395 62.6667 15.6667V23.5H78.3333ZM15.6667 31.3333V74.4167H78.3333V31.3333H15.6667ZM54.8333 23.5V15.6667H39.1667V23.5H54.8333Z" fill="var(--fill-0, #E87D1E)"/>
</g>
</svg>
