<svg width="23" height="17" viewBox="0 0 23 17" fill="none" xmlns="http://www.w3.org/2000/svg">
<path d="M3.44986 7.23885L1 4.78585M8.11071 4.22956L7.11286 1.00027M18.633 7.23885L21.0829 4.78742M13.9721 4.22956L14.97 1.00027M11.0414 3.80056C4.46186 3.80056 1.69929 9.71856 1.69929 9.84113C1.69929 9.9637 4.46186 15.8801 11.0414 15.8801C17.621 15.8801 20.3836 9.9637 20.3836 9.84113C20.3836 9.71856 17.621 3.80056 11.0414 3.80056Z" stroke="#1A3047" stroke-width="2" stroke-linecap="round" stroke-linejoin="round"/>
<path d="M8.37944 9.23142C8.29436 9.58277 8.27989 9.94752 8.33686 10.3045C8.39383 10.6615 8.5211 11.0036 8.7113 11.3111C8.9015 11.6185 9.15084 11.8851 9.44486 12.0954C9.73888 12.3058 10.0717 12.4556 10.4241 12.5363C10.7765 12.617 11.1414 12.627 11.4977 12.5656C11.8539 12.5042 12.1944 12.3727 12.4995 12.1787C12.8045 11.9847 13.068 11.7321 13.2747 11.4355C13.4814 11.1389 13.6271 10.8042 13.7034 10.4508C13.7885 10.0995 13.803 9.73474 13.746 9.37775C13.689 9.02076 13.5618 8.67863 13.3716 8.37121C13.1814 8.06378 12.932 7.79717 12.638 7.58684C12.344 7.37651 12.0111 7.22664 11.6588 7.14593C11.3064 7.06522 10.9415 7.05527 10.5852 7.11666C10.229 7.17805 9.88843 7.30955 9.58339 7.50355C9.27834 7.69754 9.01484 7.95017 8.80817 8.24677C8.6015 8.54338 8.45577 8.87806 8.37944 9.23142Z" stroke="#1A3047" stroke-width="2" stroke-linecap="round" stroke-linejoin="round"/>
</svg>
