<svg width="42" height="42" viewBox="0 0 42 42" fill="none" xmlns="http://www.w3.org/2000/svg">
<g clip-path="url(#clip0_177_647)">
<path d="M17.0625 0C16.7144 0 16.3806 0.138281 16.1344 0.384422C15.8883 0.630564 15.75 0.964403 15.75 1.3125V7.875H11.8125C10.7682 7.875 9.76669 8.28984 9.02827 9.02827C8.28984 9.76669 7.875 10.7682 7.875 11.8125V35.4375C7.8746 36.2535 8.12774 37.0495 8.5994 37.7154C9.07107 38.3812 9.73796 38.8841 10.5079 39.1545C10.4807 39.5059 10.5246 39.8592 10.6369 40.1933C10.7492 40.5275 10.9277 40.8355 11.1616 41.0992C11.3956 41.3628 11.6802 41.5766 11.9986 41.7279C12.317 41.8792 12.6626 41.9647 13.0147 41.9796C13.3669 41.9944 13.7185 41.9381 14.0484 41.8141C14.3784 41.6901 14.68 41.501 14.9352 41.2579C15.1905 41.0148 15.3942 40.7228 15.5342 40.3993C15.6742 40.0758 15.7476 39.7275 15.75 39.375H26.25C26.2482 39.7302 26.3184 40.082 26.4565 40.4092C26.5946 40.7364 26.7976 41.0322 27.0533 41.2787C27.3091 41.5252 27.6121 41.7172 27.9442 41.8431C28.2763 41.969 28.6305 42.0263 28.9853 42.0113C29.3402 41.9964 29.6883 41.9096 30.0086 41.7562C30.329 41.6028 30.6148 41.386 30.849 41.119C31.0831 40.8519 31.2605 40.5401 31.3706 40.2024C31.4807 39.8647 31.5212 39.5082 31.4895 39.1545C32.2599 38.8846 32.9274 38.3819 33.3995 37.7159C33.8717 37.05 34.1252 36.2538 34.125 35.4375V11.8125C34.125 10.7682 33.7102 9.76669 32.9717 9.02827C32.2333 8.28984 31.2318 7.875 30.1875 7.875H26.25V1.3125C26.25 0.964403 26.1117 0.630564 25.8656 0.384422C25.6194 0.138281 25.2856 0 24.9375 0L17.0625 0ZM23.625 7.875H18.375V2.625H23.625V7.875ZM10.5 18.375V15.75H31.5V18.375H10.5Z" fill="#FE4E62"/>
</g>
<defs>
<clipPath id="clip0_177_647">
<rect width="42" height="42" fill="white"/>
</clipPath>
</defs>
</svg>
