<svg width="48" height="48" viewBox="0 0 48 48" fill="none" xmlns="http://www.w3.org/2000/svg">
<g clip-path="url(#clip0_177_655)">
<mask id="mask0_177_655" style="mask-type:luminance" maskUnits="userSpaceOnUse" x="0" y="0" width="48" height="48">
<path d="M0 0H48V48H0V0Z" fill="white"/>
</mask>
<g mask="url(#mask0_177_655)">
<path d="M28.5139 11.952C26.8139 8.55197 22.8499 6.67597 18.9099 7.65797C14.3699 8.78997 11.5839 13.288 12.6859 17.704C12.9999 18.97 13.6019 20.092 14.4059 21.022L8.98792 29.762C8.77689 30.1028 8.63631 30.4825 8.57448 30.8785C8.51264 31.2746 8.53082 31.679 8.62792 32.068L9.34792 34.948C9.37963 35.0765 9.46102 35.1872 9.57425 35.2558C9.68748 35.3245 9.8233 35.3454 9.95192 35.314L13.0079 34.552C13.7662 34.3625 14.4207 33.8846 14.8319 33.22L20.5999 23.91" stroke="#1A8AFF" stroke-linecap="round"/>
<path d="M22.1382 16.5309C23.2732 16.2479 23.9702 15.1236 23.695 14.0197C23.4197 12.9158 22.2765 12.2503 21.1415 12.5333C20.0065 12.8162 19.3095 13.9406 19.5848 15.0445C19.86 16.1484 21.0032 16.8139 22.1382 16.5309Z" stroke="#1A8AFF" stroke-width="0.5"/>
<path d="M35.62 31.2199C40.16 30.0879 42.948 25.5899 41.846 21.1739C40.746 16.7559 36.172 14.0939 31.634 15.2259C27.094 16.3579 24.308 20.8559 25.408 25.2719C25.724 26.5379 26.324 27.6599 27.128 28.5899L21.712 37.3299C21.501 37.6707 21.3604 38.0503 21.2986 38.4464C21.2368 38.8425 21.2549 39.2469 21.352 39.6359L22.07 42.5159C22.0857 42.5797 22.1139 42.6399 22.1528 42.6928C22.1918 42.7458 22.2408 42.7906 22.2971 42.8246C22.3534 42.8586 22.4158 42.8811 22.4809 42.891C22.5459 42.9008 22.6122 42.8977 22.676 42.8819L25.73 42.1199C26.4883 41.9304 27.1428 41.4525 27.554 40.7879L33.324 31.4779C34.0827 31.4965 34.8487 31.4105 35.622 31.2199H35.62Z" stroke="#1A8AFF" stroke-width="1.5"/>
<path d="M34.9043 23.9667C36.0393 23.6837 36.7363 22.5594 36.4611 21.4555C36.1858 20.3516 35.0426 19.6861 33.9076 19.9691C32.7726 20.252 32.0757 21.3763 32.3509 22.4803C32.6261 23.5842 33.7694 24.2497 34.9043 23.9667Z" stroke="#1A8AFF" stroke-width="0.5"/>
</g>
</g>
<defs>
<clipPath id="clip0_177_655">
<rect width="48" height="48" fill="white"/>
</clipPath>
</defs>
</svg>
