<svg width="44" height="44" viewBox="0 0 44 44" fill="none" xmlns="http://www.w3.org/2000/svg">
<path d="M1.375 21.9999C1.375 31.0062 7.15 38.6374 15.125 41.4562V2.5437C7.15 5.36245 1.375 12.9937 1.375 21.9999Z" fill="#E87D1E"/>
<path d="M42.625 21.9999C42.625 12.9937 36.9187 5.36245 28.875 2.5437V41.4562C36.9187 38.6374 42.625 31.0062 42.625 21.9999Z" fill="#417F0C"/>
<path d="M15.125 41.4562C17.2562 42.2125 19.5938 42.625 22 42.625C24.4062 42.625 26.7437 42.2125 28.875 41.4562V2.54375C26.7437 1.7875 24.4062 1.375 22 1.375C19.5938 1.375 17.2562 1.7875 15.125 2.54375V41.4562Z" fill="#F9F9F9"/>
</svg>
