<svg width="25" height="25" viewBox="0 0 25 25" fill="none" xmlns="http://www.w3.org/2000/svg">
<g clip-path="url(#clip0_177_614)">
<path d="M20.4987 25.0477H4.06918C2.67189 25.0477 1.53564 23.9114 1.53564 22.5141V10.691C1.53564 9.29372 2.67189 8.15747 4.06918 8.15747H20.4987C21.896 8.15747 23.0323 9.29372 23.0323 10.691V22.4988C23.0323 23.8961 21.896 25.0323 20.4987 25.0323V25.0477ZM4.06918 9.69294C3.5164 9.69294 3.07112 10.1382 3.07112 10.691V22.4988C3.07112 23.0516 3.5164 23.4968 4.06918 23.4968H20.4987C21.0515 23.4968 21.4968 23.0516 21.4968 22.4988V10.691C21.4968 10.1382 21.0515 9.69294 20.4987 9.69294H4.06918Z" fill="#5A5A5A"/>
<path d="M19.2551 9.69282H5.31299V7.45103C5.31299 3.61235 8.44535 0.47998 12.284 0.47998C16.1227 0.47998 19.2551 3.61235 19.2551 7.45103V9.69282ZM6.84846 8.15735H17.7196V7.45103C17.7196 4.45686 15.2782 2.01545 12.284 2.01545C9.28986 2.01545 6.84846 4.45686 6.84846 7.45103V8.15735Z" fill="#5A5A5A"/>
<path d="M18.4256 18.1381C19.2736 18.1381 19.9611 17.4506 19.9611 16.6026C19.9611 15.7546 19.2736 15.0671 18.4256 15.0671C17.5776 15.0671 16.8901 15.7546 16.8901 16.6026C16.8901 17.4506 17.5776 18.1381 18.4256 18.1381Z" fill="#5A5A5A"/>
<path d="M12.284 18.1381C13.132 18.1381 13.8195 17.4506 13.8195 16.6026C13.8195 15.7546 13.132 15.0671 12.284 15.0671C11.436 15.0671 10.7485 15.7546 10.7485 16.6026C10.7485 17.4506 11.436 18.1381 12.284 18.1381Z" fill="#5A5A5A"/>
<path d="M6.14192 18.1381C6.98994 18.1381 7.67739 17.4506 7.67739 16.6026C7.67739 15.7546 6.98994 15.0671 6.14192 15.0671C5.2939 15.0671 4.60645 15.7546 4.60645 16.6026C4.60645 17.4506 5.2939 18.1381 6.14192 18.1381Z" fill="#5A5A5A"/>
</g>
<defs>
<clipPath id="clip0_177_614">
<rect width="24.5676" height="24.5215" fill="white"/>
</clipPath>
</defs>
</svg>
