<svg width="111" height="137" viewBox="0 0 111 137" fill="none" xmlns="http://www.w3.org/2000/svg">
<path d="M75.3752 52.0768V90.5807C75.3752 91.4385 75.2737 92.2985 75.0181 93.1173C70.6914 106.98 58.328 107.676 51.8854 106.121C66.0015 119.37 82.8782 122.516 91.1461 122.491C92.3724 122.488 93.5754 122.177 94.642 121.571C106.777 114.687 109.876 99.0925 109.876 91.8727V52.4946C109.876 50.2929 109.18 48.1084 107.684 46.4933C96.389 34.302 84.388 39.8019 77.8384 45.8857C76.1386 47.4645 75.3752 49.7569 75.3752 52.0768Z" fill="white"/>
<path d="M51.1514 105.927C51.3863 105.994 51.6312 106.059 51.8854 106.121M51.8854 106.121C58.328 107.676 70.6914 106.98 75.0181 93.1173C75.2737 92.2985 75.3752 91.4385 75.3752 90.5807V52.0768C75.3752 49.7569 76.1386 47.4645 77.8384 45.8857C84.388 39.8019 96.389 34.302 107.684 46.4933C109.18 48.1084 109.876 50.2929 109.876 52.4946V91.8727C109.876 99.0925 106.777 114.687 94.642 121.571C93.5754 122.177 92.3724 122.488 91.1461 122.491C82.8782 122.516 66.0015 119.37 51.8854 106.121Z" stroke="white"/>
<path d="M0.5 55.5106V97.3106C0.5 99.3764 0.797925 101.46 1.54216 103.387C17.8666 145.656 79.1884 137.818 109.14 128.164C65.3231 134.269 42.7911 110.667 35.5887 95.5997C34.6208 93.5748 34.2472 91.3392 34.2093 89.095L33.6495 56.0109C33.5737 51.5336 32.1665 46.9943 28.6705 44.1959C19.9353 37.204 11.404 39.5982 5.60821 43.7061C1.9001 46.3344 0.5 50.9655 0.5 55.5106Z" fill="white"/>
<path d="M109.874 127.925C109.632 128.005 109.387 128.085 109.14 128.164M109.14 128.164C79.1884 137.818 17.8666 145.656 1.54216 103.387C0.797925 101.46 0.5 99.3764 0.5 97.3106V55.5106C0.5 50.9655 1.9001 46.3344 5.60821 43.7061C11.404 39.5982 19.9353 37.204 28.6705 44.1959C32.1665 46.9943 33.5737 51.5336 33.6495 56.0109L34.2093 89.095C34.2472 91.3392 34.6208 93.5748 35.5887 95.5997C42.7911 110.667 65.3231 134.269 109.14 128.164Z" stroke="white"/>
<ellipse cx="14.6853" cy="14.385" rx="14.6091" ry="14.385" fill="#E87D1E"/>
<ellipse cx="91.823" cy="14.385" rx="14.6091" ry="14.385" fill="#E87D1E"/>
</svg>
