<svg width="113" height="140" viewBox="0 0 113 140" fill="none" xmlns="http://www.w3.org/2000/svg">
<path d="M77.0125 53.1375V92.5903C77.0125 93.4481 76.9106 94.3085 76.6558 95.1276C72.242 109.319 59.5965 110.032 53.0089 108.442C67.4567 122.003 84.7345 125.206 93.1686 125.17C94.3949 125.165 95.5977 124.854 96.6653 124.251C109.095 117.226 112.268 101.267 112.268 93.8823V53.5686C112.268 51.3669 111.571 49.1826 110.078 47.5643C98.4878 35.0001 86.1611 40.6963 79.4716 46.9434C77.7761 48.5267 77.0125 50.8176 77.0125 53.1375Z" fill="#1A3047"/>
<path d="M52.2588 108.244C52.4988 108.313 52.7492 108.379 53.0089 108.442M53.0089 108.442C59.5965 110.032 72.242 109.319 76.6558 95.1276C76.9106 94.3085 77.0125 93.4481 77.0125 92.5903V53.1375C77.0125 50.8176 77.7761 48.5267 79.4716 46.9434C86.1611 40.6963 98.4878 35.0001 110.078 47.5643C111.571 49.1826 112.268 51.3669 112.268 53.5686V93.8823C112.268 101.267 109.095 117.226 96.6653 124.251C95.5977 124.854 94.3949 125.165 93.1686 125.17C84.7345 125.206 67.4567 122.003 53.0089 108.442Z" stroke="#1A3047"/>
<path d="M0.5 56.5709V99.507C0.5 101.573 0.798897 103.657 1.54065 105.585C18.1855 148.85 80.8946 140.837 111.517 130.967C66.6773 137.214 43.6508 113.019 36.3249 97.6249C35.3605 95.5983 34.9858 93.3618 34.9478 91.1177L34.372 57.0846C34.2962 52.6073 32.883 48.0735 29.4026 45.2558C20.373 37.9454 11.545 40.4808 5.59504 44.751C1.90249 47.401 0.5 52.0258 0.5 56.5709Z" fill="#1A3047"/>
<path d="M112.267 130.723C112.019 130.804 111.769 130.886 111.517 130.967M111.517 130.967C80.8946 140.837 18.1855 148.85 1.54065 105.585C0.798897 103.657 0.5 101.573 0.5 99.507V56.5709C0.5 52.0258 1.90249 47.401 5.59504 44.751C11.545 40.4808 20.373 37.9454 29.4026 45.2558C32.883 48.0735 34.2962 52.6073 34.372 57.0846L34.9478 91.1177C34.9858 93.3618 35.3605 95.5983 36.3249 97.6249C43.6508 113.019 66.6773 137.214 111.517 130.967Z" stroke="#1A3047"/>
<ellipse cx="14.9955" cy="14.6997" rx="14.9286" ry="14.6997" fill="#E87D1E"/>
<ellipse cx="93.8197" cy="14.6997" rx="14.9286" ry="14.6997" fill="#E87D1E"/>
</svg>
