<svg width="56" height="56" viewBox="0 0 56 56" fill="none" xmlns="http://www.w3.org/2000/svg">
<path d="M48.9998 25.1533V18.6666C48.9998 14.8166 45.8498 11.6666 41.9998 11.6666H32.6665C30.8698 11.6666 29.2365 12.3666 27.9998 13.4866C26.7632 12.3666 25.1298 11.6666 23.3332 11.6666H13.9998C10.1498 11.6666 6.99984 14.8166 6.99984 18.6666V25.1533C5.5765 26.4366 4.6665 28.28 4.6665 30.3333V44.3333H9.33317V39.6666H46.6665V44.3333H51.3332V30.3333C51.3332 28.28 50.4232 26.4366 48.9998 25.1533ZM32.6665 16.3333H41.9998C43.2832 16.3333 44.3332 17.3833 44.3332 18.6666V23.3333H30.3332V18.6666C30.3332 17.3833 31.3832 16.3333 32.6665 16.3333ZM11.6665 18.6666C11.6665 17.3833 12.7165 16.3333 13.9998 16.3333H23.3332C24.6165 16.3333 25.6665 17.3833 25.6665 18.6666V23.3333H11.6665V18.6666ZM9.33317 35V30.3333C9.33317 29.05 10.3832 28 11.6665 28H44.3332C45.6165 28 46.6665 29.05 46.6665 30.3333V35H9.33317Z" fill="#ABDA81"/>
</svg>
