<svg width="45" height="49" viewBox="0 0 45 49" fill="none" xmlns="http://www.w3.org/2000/svg">
<g clip-path="url(#clip0_515_374)">
<path d="M20.5945 23.2297L0.192383 44.605C0.421497 45.417 0.833221 46.1658 1.39608 46.7942C1.95895 47.4227 2.65804 47.9141 3.43994 48.2309C4.22183 48.5478 5.06582 48.6817 5.90738 48.6223C6.74894 48.563 7.5658 48.3121 8.29552 47.8887L31.2518 34.8143L20.5945 23.2297Z" fill="#EA4335"/>
<path d="M41.2247 19.5965L31.2977 13.9104L20.1235 23.7161L31.3431 34.7838L41.1946 29.1587C42.0673 28.7017 42.7983 28.0146 43.3083 27.1717C43.8184 26.3289 44.088 25.3626 44.088 24.3775C44.088 23.3924 43.8184 22.426 43.3083 21.5832C42.7983 20.7404 42.0673 20.0533 41.1946 19.5963L41.2247 19.5965Z" fill="#FBBC04"/>
<path d="M0.19233 4.04395C0.0690821 4.49986 0.00769522 4.97028 0.00981889 5.44256V43.2063C0.0110359 43.6784 0.072366 44.1484 0.19233 44.6051L21.2938 23.7772L0.19233 4.04395Z" fill="#4285F4"/>
<path d="M20.7465 24.3246L31.2974 13.9106L8.37162 0.775337C7.50905 0.270196 6.52801 0.00267321 5.52841 1.05599e-05C3.04782 -0.00481048 0.866984 1.64157 0.192383 4.02885L20.7465 24.3246Z" fill="#34A853"/>
</g>
<defs>
<clipPath id="clip0_515_374">
<rect width="44.0979" height="48.7269" fill="white"/>
</clipPath>
</defs>
</svg>
