<svg width="46" height="46" viewBox="0 0 46 46" fill="none" xmlns="http://www.w3.org/2000/svg">
<path d="M14.3752 31.6251C14.3752 30.8162 14.6524 30.1352 15.207 29.5819C15.7603 29.0274 16.4413 28.7501 17.2502 28.7501C18.059 28.7501 18.7401 29.0274 19.2933 29.5819C19.8466 30.1365 20.1239 30.8175 20.1252 31.6251C20.1264 32.4326 19.8492 33.1137 19.2933 33.6682C18.7401 34.2228 18.059 34.5001 17.2502 34.5001C16.4413 34.5001 15.7603 34.2228 15.207 33.6682C14.6524 33.115 14.3752 32.4339 14.3752 31.6251ZM23.0002 28.7501H33.3214C34.2031 28.7501 34.9391 29.0459 35.5294 29.6375C36.1197 30.2291 36.4156 30.9657 36.4168 31.8474V43.1251H34.5002V38.3334H11.5002V43.1251H9.5835V26.8334H11.5002V36.4167H23.0002V28.7501ZM30.1877 24.9167L24.5335 14.6626L19.4543 19.7417L19.9718 23.0384L18.5343 24.4759L16.2075 20.2592L11.9525 17.9592L13.39 16.5217L16.6867 16.9511L21.8022 11.8355L11.5002 6.22925L13.321 4.40841L25.971 7.66675L31.146 2.49175C31.5293 2.10841 31.9925 1.91675 32.5356 1.91675C33.0786 1.91675 33.5418 2.10841 33.9252 2.49175C34.3085 2.87508 34.5002 3.33828 34.5002 3.88133C34.5002 4.42439 34.3085 4.88758 33.9252 5.27091L28.7502 10.4459L32.0085 23.0959L30.1877 24.9167Z" fill="#FFC57D"/>
</svg>
