<svg width="44" height="44" viewBox="0 0 44 44" fill="none" xmlns="http://www.w3.org/2000/svg">
<path d="M14.2998 3.66675H29.6998C35.5665 3.66675 40.3332 8.43341 40.3332 14.3001V29.7001C40.3332 32.5202 39.2129 35.2248 37.2187 37.219C35.2246 39.2131 32.52 40.3334 29.6998 40.3334H14.2998C8.43317 40.3334 3.6665 35.5667 3.6665 29.7001V14.3001C3.6665 11.4799 4.7868 8.77532 6.78094 6.78118C8.77507 4.78704 11.4797 3.66675 14.2998 3.66675ZM13.9332 7.33341C12.1827 7.33341 10.504 8.02877 9.26627 9.26651C8.02853 10.5043 7.33317 12.183 7.33317 13.9334V30.0667C7.33317 33.7151 10.2848 36.6667 13.9332 36.6667H30.0665C31.8169 36.6667 33.4957 35.9714 34.7334 34.7337C35.9711 33.4959 36.6665 31.8172 36.6665 30.0667V13.9334C36.6665 10.2851 33.7148 7.33341 30.0665 7.33341H13.9332ZM31.6248 10.0834C32.2326 10.0834 32.8155 10.3249 33.2453 10.7546C33.6751 11.1844 33.9165 11.7673 33.9165 12.3751C33.9165 12.9829 33.6751 13.5658 33.2453 13.9955C32.8155 14.4253 32.2326 14.6667 31.6248 14.6667C31.017 14.6667 30.4342 14.4253 30.0044 13.9955C29.5746 13.5658 29.3332 12.9829 29.3332 12.3751C29.3332 11.7673 29.5746 11.1844 30.0044 10.7546C30.4342 10.3249 31.017 10.0834 31.6248 10.0834ZM21.9998 12.8334C24.431 12.8334 26.7626 13.7992 28.4816 15.5183C30.2007 17.2374 31.1665 19.5689 31.1665 22.0001C31.1665 24.4312 30.2007 26.7628 28.4816 28.4819C26.7626 30.201 24.431 31.1667 21.9998 31.1667C19.5687 31.1667 17.2371 30.201 15.518 28.4819C13.7989 26.7628 12.8332 24.4312 12.8332 22.0001C12.8332 19.5689 13.7989 17.2374 15.518 15.5183C17.2371 13.7992 19.5687 12.8334 21.9998 12.8334ZM21.9998 16.5001C20.5411 16.5001 19.1422 17.0795 18.1107 18.111C17.0793 19.1424 16.4998 20.5414 16.4998 22.0001C16.4998 23.4588 17.0793 24.8577 18.1107 25.8892C19.1422 26.9206 20.5411 27.5001 21.9998 27.5001C23.4585 27.5001 24.8575 26.9206 25.8889 25.8892C26.9204 24.8577 27.4998 23.4588 27.4998 22.0001C27.4998 20.5414 26.9204 19.1424 25.8889 18.111C24.8575 17.0795 23.4585 16.5001 21.9998 16.5001Z" fill="white"/>
</svg>
