<svg width="44" height="44" viewBox="0 0 44 44" fill="none" xmlns="http://www.w3.org/2000/svg">
<path d="M22.0002 34.8332H25.6668V10.9999L37.3892 16.0232C37.7192 16.1647 38.0004 16.4 38.1979 16.6998C38.3954 16.9996 38.5005 17.3509 38.5002 17.7099V34.8332H42.1668V38.4999H1.8335V34.8332H5.50016V10.3582C5.50012 10.0035 5.60298 9.65641 5.79627 9.35898C5.98957 9.06155 6.265 8.82659 6.58916 8.68257L20.7113 2.40708C20.8508 2.34513 21.0034 2.31897 21.1555 2.33096C21.3076 2.34295 21.4543 2.39272 21.5823 2.47574C21.7103 2.55877 21.8156 2.67243 21.8886 2.80643C21.9615 2.94042 21.9999 3.09051 22.0002 3.24308V34.8332Z" fill="#ABDA81"/>
</svg>
