<svg width="43" height="43" viewBox="0 0 43 43" fill="none" xmlns="http://www.w3.org/2000/svg">
<path d="M30.4585 34.0417H34.0418V19.7083H23.2918V34.0417H26.8752V23.2917H30.4585V34.0417ZM5.37516 34.0417V7.16667C5.37516 6.69149 5.56393 6.23577 5.89993 5.89977C6.23593 5.56376 6.69165 5.375 7.16683 5.375H32.2502C32.7253 5.375 33.1811 5.56376 33.5171 5.89977C33.8531 6.23577 34.0418 6.69149 34.0418 7.16667V16.125H37.6252V34.0417H39.4168V37.625H3.5835V34.0417H5.37516ZM12.5418 19.7083V23.2917H16.1252V19.7083H12.5418ZM12.5418 26.875V30.4583H16.1252V26.875H12.5418ZM12.5418 12.5417V16.125H16.1252V12.5417H12.5418Z" fill="#82BFFF"/>
</svg>
