<svg preserveAspectRatio="none" width="100%" height="100%" overflow="visible" style="display: block;" viewBox="0 0 36 36" fill="none" xmlns="http://www.w3.org/2000/svg">
<g id="f7:bed-double" clip-path="url(#clip0_0_81)">
<path id="Vector" d="M1.22271 30.0362H2.05843C2.78871 30.0362 3.26571 29.5734 3.26571 28.8431V26.7255C3.42964 26.7705 3.90729 26.8001 4.24993 26.8001H31.7642C32.1075 26.8001 32.5704 26.7699 32.7343 26.7255V28.8431C32.7343 29.574 33.2113 30.0362 33.9422 30.0362H34.7921C35.523 30.0362 36 29.5734 36 28.8431V19.1199C36 16.5696 34.7027 15.138 32.3016 14.9586V10.0671C32.3016 7.42757 30.9002 6.08593 28.3352 6.08593H7.66543C5.11521 6.08593 3.699 7.42757 3.699 10.0671V14.9593C1.29664 15.1374 -1.78814e-07 16.569 -1.78814e-07 19.1192V28.8424C-1.78814e-07 29.5734 0.477 30.0362 1.22271 30.0362ZM7.44171 12.3036C7.44171 10.9916 8.172 10.2606 9.51429 10.2606H14.5106C15.8374 10.2606 16.5831 10.9916 16.5831 12.3036V14.9432H7.44171V12.3036ZM19.4316 12.3036C19.4316 10.9916 20.1626 10.2606 21.5049 10.2606H26.4857C27.8274 10.2606 28.5737 10.9916 28.5737 12.3036V14.9432H19.4323L19.4316 12.3036ZM2.98286 24.6227C2.68457 24.6227 2.49043 24.4138 2.49043 24.0705V18.8955C2.49043 17.8071 3.20657 17.1212 4.30971 17.1212H31.7057C32.7941 17.1212 33.5102 17.8071 33.5102 18.8955V24.0705C33.5102 24.4138 33.3161 24.6227 33.0332 24.6227H2.98286Z" fill="var(--fill-0, #1A3047)"/>
</g>
<defs>
<clipPath id="clip0_0_81">
<rect width="36" height="36" fill="white"/>
</clipPath>
</defs>
</svg>
