<svg preserveAspectRatio="none" width="100%" height="100%" overflow="visible" style="display: block;" viewBox="0 0 38 38" fill="none" xmlns="http://www.w3.org/2000/svg">
<g id="guidance:conference-room">
<path id="Vector" d="M9.5 22.9583H2.375V2.375H35.625V22.9583H28.5M27.7083 38C27.7083 34.8944 28.5699 31.8496 30.1973 29.2046L30.875 28.1042V27.7083H7.125V28.1042L7.80267 29.2046C9.43011 31.8496 10.2917 34.8944 10.2917 38M25.3333 23.75V18.2083C25.3333 18.2083 22.9583 16.625 19 16.625C15.0417 16.625 12.6667 18.2083 12.6667 18.2083V23.75M18.7625 13.4583C18.7625 13.4583 16.2292 11.875 16.2292 9.89583C16.2292 9.1618 16.5208 8.45784 17.0398 7.9388C17.5588 7.41976 18.2628 7.12817 18.9968 7.12817C19.7309 7.12817 20.4348 7.41976 20.9539 7.9388C21.4729 8.45784 21.7645 9.1618 21.7645 9.89583C21.7645 11.875 19.2375 13.4583 19.2375 13.4583H18.7625Z" stroke="var(--stroke-0, black)" stroke-width="0.5"/>
</g>
</svg>
