<svg preserveAspectRatio="none" width="100%" height="100%" overflow="visible" style="display: block;" viewBox="0 0 22 22" fill="none" xmlns="http://www.w3.org/2000/svg">
<g id="ic:baseline-edit">
<path id="Vector" d="M4 12.292V15H6.70797L14.6947 7.01331L11.9867 4.30534L4 12.292ZM16.7888 4.91915C16.8558 4.85234 16.9089 4.77299 16.9451 4.68563C16.9813 4.59827 17 4.50462 17 4.41005C17 4.31547 16.9813 4.22183 16.9451 4.13447C16.9089 4.04711 16.8558 3.96776 16.7888 3.90095L15.099 2.21118C15.0322 2.14424 14.9529 2.09113 14.8655 2.05489C14.7782 2.01865 14.6845 2 14.59 2C14.4954 2 14.4017 2.01865 14.3144 2.05489C14.227 2.09113 14.1477 2.14424 14.0809 2.21118L12.7594 3.53267L15.4673 6.24063L16.7888 4.91915Z" fill="var(--fill-0, #222222)"/>
</g>
</svg>
