<svg preserveAspectRatio="none" width="100%" height="100%" overflow="visible" style="display: block;" viewBox="0 0 19.6068 22.7496" fill="none" xmlns="http://www.w3.org/2000/svg">
<g id="Group">
<path id="Vector" d="M0.374812 3.51767V19.2245" stroke="var(--stroke-0, #E87D1E)" stroke-width="0.749625" stroke-linecap="round"/>
<path id="Vector_2" d="M19.232 8.23196V19.232" stroke="var(--stroke-0, #E87D1E)" stroke-width="0.749625" stroke-linecap="round" stroke-linejoin="round"/>
<path id="Vector_3" d="M3.51767 0.374812H11.3748" stroke="var(--stroke-0, #E87D1E)" stroke-width="0.749625" stroke-linecap="round" stroke-linejoin="round"/>
<path id="Vector_4" d="M3.51767 22.3748H16.0891" stroke="var(--stroke-0, #E87D1E)" stroke-width="0.749625" stroke-linecap="round"/>
<path id="Vector_5" d="M19.232 19.232C19.2405 20.8016 17.6605 22.3748 16.0891 22.3748" stroke="var(--stroke-0, #E87D1E)" stroke-width="0.749625" stroke-linecap="round" stroke-linejoin="round"/>
<path id="Vector_6" d="M0.374813 19.232C0.374813 20.8034 1.94624 22.3748 3.51767 22.3748" stroke="var(--stroke-0, #E87D1E)" stroke-width="0.749625" stroke-linecap="round" stroke-linejoin="round"/>
<path id="Vector_7" d="M0.374813 3.51562C0.374813 1.94647 1.94624 0.410042 3.51767 0.375046" stroke="var(--stroke-0, #E87D1E)" stroke-width="0.749625" stroke-linecap="round" stroke-linejoin="round"/>
<path id="Vector_8" d="M19.2234 8.239L11.3748 0.374812" stroke="var(--stroke-0, #E87D1E)" stroke-width="0.749625" stroke-linecap="round" stroke-linejoin="round"/>
<path id="Vector_9" d="M11.3748 5.0891C11.3796 6.65197 12.9526 8.23195 14.5177 8.23196" stroke="var(--stroke-0, #E87D1E)" stroke-width="0.749625" stroke-linecap="round" stroke-linejoin="round"/>
<path id="Vector_10" d="M11.3748 5.0891V0.374812" stroke="var(--stroke-0, #E87D1E)" stroke-width="0.749625" stroke-linecap="round" stroke-linejoin="round"/>
<path id="Vector_11" d="M14.5177 8.23196H19.232" stroke="var(--stroke-0, #E87D1E)" stroke-width="0.749625" stroke-linecap="round" stroke-linejoin="round"/>
<path id="Vector_12" d="M3.51767 19.232H8.23196" stroke="var(--stroke-0, #E87D1E)" stroke-width="0.75" stroke-linecap="round" stroke-linejoin="round"/>
<path id="Vector_13" d="M3.51767 16.0891H11.3748" stroke="var(--stroke-0, #E87D1E)" stroke-width="0.75" stroke-linecap="round" stroke-linejoin="round"/>
<path id="Vector_14" d="M3.51767 12.9462H8.23196" stroke="var(--stroke-0, #E87D1E)" stroke-width="0.75" stroke-linecap="round" stroke-linejoin="round"/>
</g>
</svg>
