<svg preserveAspectRatio="none" width="100%" height="100%" overflow="visible" style="display: block;" viewBox="0 0 18 18" fill="none" xmlns="http://www.w3.org/2000/svg">
<g id="material-symbols:mode-cool">
<path id="Vector" d="M8.25 13.3875L6.31875 15.2813C6.18125 15.4188 6.0095 15.4875 5.8035 15.4875C5.5975 15.4875 5.4255 15.4125 5.2875 15.2625C5.1375 15.125 5.0625 14.9533 5.0625 14.7473C5.0625 14.5413 5.1375 14.363 5.2875 14.2125L8.25 11.25V9.75H6.75L3.76875 12.7313C3.63125 12.8688 3.4595 12.9375 3.2535 12.9375C3.0475 12.9375 2.86925 12.8625 2.71875 12.7125C2.58125 12.575 2.5125 12.4033 2.5125 12.1973C2.5125 11.9913 2.58125 11.8193 2.71875 11.6813L4.6125 9.75H2.23125C2.01875 9.75 1.84375 9.678 1.70625 9.534C1.56875 9.39 1.5 9.212 1.5 9C1.5 8.788 1.572 8.61 1.716 8.466C1.86 8.322 2.038 8.25 2.25 8.25H4.6125L2.71875 6.3375C2.58125 6.2 2.5125 6.02825 2.5125 5.82225C2.5125 5.61625 2.5875 5.438 2.7375 5.2875C2.875 5.15 3.047 5.08125 3.2535 5.08125C3.46 5.08125 3.638 5.15 3.7875 5.2875L6.75 8.25H8.25V6.75L5.26875 3.7875C5.13125 3.65 5.0625 3.47825 5.0625 3.27225C5.0625 3.06625 5.1375 2.888 5.2875 2.7375C5.425 2.6 5.597 2.53125 5.8035 2.53125C6.01 2.53125 6.18175 2.6 6.31875 2.7375L8.25 4.6125V2.25C8.25 2.0375 8.322 1.8595 8.466 1.716C8.61 1.5725 8.788 1.5005 9 1.5C9.212 1.4995 9.39025 1.5715 9.53475 1.716C9.67925 1.8605 9.751 2.0385 9.75 2.25V4.6125L11.6625 2.7375C11.8 2.6 11.972 2.53125 12.1785 2.53125C12.385 2.53125 12.563 2.6 12.7125 2.7375C12.85 2.8875 12.9188 3.06575 12.9188 3.27225C12.9188 3.47875 12.85 3.6505 12.7125 3.7875L9.75 6.75V8.25H11.25L14.2125 5.2875C14.35 5.15 14.522 5.08125 14.7285 5.08125C14.935 5.08125 15.113 5.15625 15.2625 5.30625C15.4 5.44375 15.4688 5.6155 15.4688 5.8215C15.4688 6.0275 15.4 6.1995 15.2625 6.3375L13.3875 8.25H15.75C15.9625 8.25 16.1407 8.322 16.2847 8.466C16.4287 8.61 16.5005 8.788 16.5 9C16.4995 9.212 16.4275 9.39025 16.284 9.53475C16.1405 9.67925 15.9625 9.751 15.75 9.75H13.3875L15.2625 11.6813C15.4 11.8188 15.4688 11.9908 15.4688 12.1973C15.4688 12.4038 15.4 12.5755 15.2625 12.7125C15.1125 12.8625 14.9345 12.9375 14.7285 12.9375C14.5225 12.9375 14.3505 12.8625 14.2125 12.7125L11.25 9.75H9.75V11.25L12.7125 14.2313C12.85 14.3688 12.9188 14.5408 12.9188 14.7473C12.9188 14.9538 12.8437 15.1318 12.6937 15.2813C12.5562 15.4188 12.3845 15.4875 12.1785 15.4875C11.9725 15.4875 11.8005 15.4188 11.6625 15.2813L9.75 13.3875V15.7687C9.75 15.9812 9.678 16.1563 9.534 16.2938C9.39 16.4313 9.212 16.5 9 16.5C8.788 16.5 8.61 16.428 8.466 16.284C8.322 16.14 8.25 15.962 8.25 15.75V13.3875Z" fill="var(--fill-0, #048396)"/>
</g>
</svg>
