<svg width="15" height="16" viewBox="0 0 15 16" fill="none" xmlns="http://www.w3.org/2000/svg">
<path fill-rule="evenodd" clip-rule="evenodd" d="M2.1875 6.87867C2.1875 3.81209 4.58993 1.3335 7.4959 1.3335C10.4101 1.3335 12.8125 3.81209 12.8125 6.87867C12.8125 8.42396 12.2856 9.85858 11.4184 11.0745C10.4618 12.4158 9.2826 13.5845 7.95534 14.5018C7.65157 14.7138 7.37742 14.7298 7.04403 14.5018C5.70921 13.5845 4.53005 12.4158 3.58156 11.0745C2.71374 9.85858 2.1875 8.42396 2.1875 6.87867ZM5.74639 7.05133C5.74639 8.07863 6.53229 8.88661 7.4959 8.88661C8.46015 8.88661 9.25361 8.07863 9.25361 7.05133C9.25361 6.03203 8.46015 5.18472 7.4959 5.18472C6.53229 5.18472 5.74639 6.03203 5.74639 7.05133Z" fill="#66707A"/>
</svg>
