<svg preserveAspectRatio="none" width="100%" height="100%" overflow="visible" style="display: block;" viewBox="0 0 17.5 22.8333" fill="none" xmlns="http://www.w3.org/2000/svg">
<g id="Group">
<path id="Vector" d="M3.41667 11.4167H10.0833M3.41667 14.4643H12.75M3.41667 17.5119H7.41667M16.75 19.0357V8.36904L10.0833 0.75H3.41667C2.70942 0.75 2.03115 1.07109 1.53105 1.64263C1.03095 2.21416 0.75 2.98934 0.75 3.79762V19.0357C0.75 19.844 1.03095 20.6191 1.53105 21.1907C2.03115 21.7622 2.70942 22.0833 3.41667 22.0833H14.0833C14.7906 22.0833 15.4689 21.7622 15.969 21.1907C16.469 20.6191 16.75 19.844 16.75 19.0357Z" stroke="var(--stroke-0, #222222)" stroke-width="1.5" stroke-linecap="round" stroke-linejoin="round"/>
<path id="Vector_2" d="M10.083 0.75V5.32142C10.083 6.1297 10.364 6.90487 10.8641 7.47641C11.3642 8.04795 12.0424 8.36904 12.7497 8.36904H16.7497" stroke="var(--stroke-0, #222222)" stroke-width="1.5" stroke-linecap="round" stroke-linejoin="round"/>
</g>
</svg>
