<svg preserveAspectRatio="none" width="100%" height="100%" overflow="visible" style="display: block;" viewBox="0 0 17.3333 12.5833" fill="none" xmlns="http://www.w3.org/2000/svg">
<g id="Group">
<path id="Vector" d="M11.0417 6.29167C11.0417 6.92156 10.7914 7.52565 10.346 7.97105C9.90065 8.41644 9.29656 8.66667 8.66667 8.66667C8.03678 8.66667 7.43269 8.41644 6.98729 7.97105C6.54189 7.52565 6.29167 6.92156 6.29167 6.29167C6.29167 5.66178 6.54189 5.05769 6.98729 4.61229C7.43269 4.16689 8.03678 3.91667 8.66667 3.91667C9.29656 3.91667 9.90065 4.16689 10.346 4.61229C10.7914 5.05769 11.0417 5.66178 11.0417 6.29167Z" stroke="var(--stroke-0, #222222)" stroke-width="1.5" stroke-linecap="round" stroke-linejoin="round"/>
<path id="Vector_2" d="M0.75 6.29167C2.01667 3.04821 4.97433 0.75 8.66667 0.75C12.359 0.75 15.3167 3.04821 16.5833 6.29167C15.3167 9.53513 12.359 11.8333 8.66667 11.8333C4.97433 11.8333 2.01667 9.53513 0.75 6.29167Z" stroke="var(--stroke-0, #222222)" stroke-width="1.5" stroke-linecap="round" stroke-linejoin="round"/>
</g>
</svg>
