<svg preserveAspectRatio="none" width="100%" height="100%" overflow="visible" style="display: block;" viewBox="0 0 28.7917 20.7917" fill="none" xmlns="http://www.w3.org/2000/svg">
<g id="Group">
<path id="Vector" d="M7.72917 6.39583L14.3958 11.0625L21.0625 6.39583" stroke="var(--stroke-0, #222222)" stroke-width="2.125" stroke-linecap="round" stroke-linejoin="round"/>
<path id="Vector_2" d="M1.0625 17.0625V3.72917C1.0625 3.02192 1.34345 2.34365 1.84355 1.84355C2.34365 1.34345 3.02192 1.0625 3.72917 1.0625H25.0625C25.7697 1.0625 26.448 1.34345 26.9481 1.84355C27.4482 2.34365 27.7292 3.02192 27.7292 3.72917V17.0625C27.7292 17.7697 27.4482 18.448 26.9481 18.9481C26.448 19.4482 25.7697 19.7292 25.0625 19.7292H3.72917C3.02192 19.7292 2.34365 19.4482 1.84355 18.9481C1.34345 18.448 1.0625 17.7697 1.0625 17.0625Z" stroke="var(--stroke-0, #222222)" stroke-width="2.125"/>
</g>
</svg>
