<svg preserveAspectRatio="none" width="100%" height="100%" overflow="visible" style="display: block;" viewBox="0 0 24 24" fill="none" xmlns="http://www.w3.org/2000/svg">
<g id="ic:outline-phone">
<path id="Vector" d="M6.54 2.70588C6.6 3.59588 6.75 4.46588 6.99 5.29588L5.79 6.49588C5.38 5.29588 5.12 4.02588 5.03 2.70588H6.54ZM16.4 14.7259C17.25 14.9659 18.12 15.1159 19 15.1759V16.6659C17.68 16.5759 16.41 16.3159 15.2 15.9159L16.4 14.7259ZM7.5 0.705882H4C3.45 0.705882 3 1.15588 3 1.70588C3 11.0959 10.61 18.7059 20 18.7059C20.55 18.7059 21 18.2559 21 17.7059V14.2159C21 13.6659 20.55 13.2159 20 13.2159C18.76 13.2159 17.55 13.0159 16.43 12.6459C16.331 12.6089 16.2256 12.5919 16.12 12.5959C15.86 12.5959 15.61 12.6959 15.41 12.8859L13.21 15.0859C10.3755 13.6362 8.06967 11.3304 6.62 8.49588L8.82 6.29588C9.1 6.01588 9.18 5.62588 9.07 5.27588C8.69132 4.12378 8.4989 2.91863 8.5 1.70588C8.5 1.15588 8.05 0.705882 7.5 0.705882Z" fill="var(--fill-0, #222222)"/>
</g>
</svg>
