<svg width="306" height="309" viewBox="0 0 306 309" fill="none" xmlns="http://www.w3.org/2000/svg">
<path d="M93.6968 134.302C97.9064 132.899 107.1 132.281 110.199 141.037C113.297 149.793 118.562 150.748 120.807 150.13" stroke="#34A853" stroke-width="3" stroke-linecap="round"/>
<path d="M188.162 151.106C192.372 149.702 201.565 149.085 204.664 157.841C207.762 166.597 213.027 167.551 215.272 166.934" stroke="#34A853" stroke-width="3" stroke-linecap="round"/>
<g filter="url(#filter0_d_588_1243)">
<path d="M150.097 121.378C151.582 119.541 154.384 119.541 155.869 121.378L158.991 125.24C159.914 126.382 161.423 126.872 162.841 126.491L167.637 125.202C169.919 124.588 172.185 126.235 172.307 128.595L172.563 133.554C172.638 135.021 173.571 136.304 174.942 136.829L179.58 138.605C181.786 139.45 182.652 142.114 181.364 144.095L178.655 148.258C177.855 149.488 177.855 151.075 178.655 152.306L181.364 156.468C182.652 158.449 181.786 161.114 179.58 161.958L174.942 163.734C173.571 164.259 172.638 165.543 172.563 167.009L172.307 171.969C172.185 174.329 169.919 175.975 167.637 175.362L162.841 174.072C161.423 173.691 159.914 174.181 158.991 175.323L155.869 179.185C154.384 181.023 151.582 181.023 150.097 179.185L146.974 175.323C146.052 174.181 144.542 173.691 143.125 174.072L138.329 175.362C136.047 175.975 133.78 174.329 133.659 171.969L133.403 167.009C133.327 165.543 132.395 164.259 131.024 163.734L126.386 161.958C124.179 161.114 123.313 158.449 124.602 156.468L127.31 152.306C128.111 151.075 128.111 149.488 127.31 148.258L124.602 144.095C123.313 142.114 124.179 139.45 126.386 138.605L131.024 136.829C132.395 136.304 133.327 135.021 133.403 133.554L133.659 128.595C133.78 126.235 136.047 124.588 138.329 125.202L143.125 126.491C144.542 126.872 146.052 126.382 146.974 125.24L150.097 121.378Z" fill="#34A853"/>
</g>
<path d="M161.08 144.715L149.946 155.849L144.885 150.788" stroke="white" stroke-width="5" stroke-linecap="round" stroke-linejoin="round"/>
<path d="M189.959 118.253C190.105 117.367 191.378 117.367 191.524 118.253L191.976 120.994L194.716 121.445C195.602 121.591 195.602 122.865 194.716 123.011L191.976 123.462L191.524 126.203C191.378 127.089 190.105 127.089 189.959 126.203L189.507 123.462L186.767 123.011C185.881 122.865 185.881 121.591 186.767 121.445L189.507 120.994L189.959 118.253Z" fill="white"/>
<path d="M115.656 170.055C115.795 169.213 117.005 169.213 117.143 170.055L117.572 172.658L120.176 173.087C121.017 173.226 121.017 174.436 120.176 174.575L117.572 175.004L117.143 177.607C117.005 178.449 115.795 178.449 115.656 177.607L115.227 175.004L112.624 174.575C111.782 174.436 111.782 173.226 112.624 173.087L115.227 172.658L115.656 170.055Z" fill="white"/>
<path d="M113.284 120.465C113.386 119.845 114.278 119.845 114.38 120.465L114.696 122.383L116.615 122.699C117.235 122.802 117.235 123.693 116.615 123.795L114.696 124.111L114.38 126.03C114.278 126.65 113.386 126.65 113.284 126.03L112.968 124.111L111.05 123.795C110.43 123.693 110.43 122.802 111.05 122.699L112.968 122.383L113.284 120.465Z" fill="white"/>
<path d="M194.419 179.165C194.521 178.545 195.413 178.545 195.515 179.165L195.831 181.084L197.749 181.4C198.369 181.502 198.369 182.393 197.749 182.496L195.831 182.812L195.515 184.73C195.413 185.35 194.521 185.35 194.419 184.73L194.103 182.812L192.185 182.496C191.564 182.393 191.564 181.502 192.185 181.4L194.103 181.084L194.419 179.165Z" fill="white"/>
<circle cx="191.871" cy="140.622" r="1.85566" fill="#F8961E"/>
<circle cx="144.885" cy="103.485" r="1.85566" fill="#F8961E"/>
<circle cx="170.758" cy="199.735" r="1.85566" fill="#F8961E"/>
<circle cx="134.955" cy="188.429" r="1.15979" fill="#F8961E"/>
<defs>
<filter id="filter0_d_588_1243" x="0" y="0" width="305.966" height="308.563" filterUnits="userSpaceOnUse" color-interpolation-filters="sRGB">
<feFlood flood-opacity="0" result="BackgroundImageFix"/>
<feColorMatrix in="SourceAlpha" type="matrix" values="0 0 0 0 0 0 0 0 0 0 0 0 0 0 0 0 0 0 127 0" result="hardAlpha"/>
<feOffset dy="4"/>
<feGaussianBlur stdDeviation="62"/>
<feComposite in2="hardAlpha" operator="out"/>
<feColorMatrix type="matrix" values="0 0 0 0 0.219608 0 0 0 0 0.937255 0 0 0 0 0.490196 0 0 0 0.5 0"/>
<feBlend mode="normal" in2="BackgroundImageFix" result="effect1_dropShadow_588_1243"/>
<feBlend mode="normal" in="SourceGraphic" in2="effect1_dropShadow_588_1243" result="shape"/>
</filter>
</defs>
</svg>
