<svg width="54" height="67" viewBox="0 0 54 67" fill="none" xmlns="http://www.w3.org/2000/svg">
<path d="M36.4546 27.1925V43.5313C36.4546 44.3764 36.3672 45.2272 36.0789 46.0216C33.84 52.1917 28.1727 52.4872 25.175 51.7525C31.4308 57.7156 38.8157 59.482 43.0381 59.7096C44.2789 59.7764 45.5184 59.4688 46.5387 58.7596C51.677 55.1883 53.0216 48.151 53.0216 44.8041V27.2984C53.0216 25.1222 52.3966 22.9015 50.7478 21.4812C46.4264 17.7587 42.0312 19.0534 39.0296 21.2246C37.171 22.569 36.4546 24.8986 36.4546 27.1925Z" fill="#1A3047"/>
<path d="M24.8225 51.6579C24.9353 51.6909 25.0529 51.7225 25.175 51.7525M25.175 51.7525C28.1727 52.4872 33.84 52.1917 36.0789 46.0216C36.3672 45.2272 36.4546 44.3764 36.4546 43.5313V27.1925C36.4546 24.8986 37.171 22.569 39.0296 21.2246C42.0312 19.0534 46.4264 17.7587 50.7478 21.4812C52.3966 22.9015 53.0216 25.1222 53.0216 27.2984V44.8041C53.0216 48.151 51.677 55.1883 46.5387 58.7596C45.5184 59.4688 44.2789 59.7764 43.0381 59.7096C38.8157 59.482 31.4308 57.7156 25.175 51.7525Z" stroke="#1A3047"/>
<path d="M0.5 30.5844V45.9047C0.5 47.9406 0.755566 50.0014 1.59837 51.8547C10.2368 70.85 38.629 67.0982 52.6683 62.5026C33.0146 65.2835 22.2788 55.4243 18.1301 48.124C17.0369 46.2002 16.6957 43.9738 16.6588 41.7614L16.4758 30.7746C16.402 26.3472 15.2022 21.2824 11.0191 19.8303C9.27784 19.2258 7.60809 19.2915 6.10461 19.7357C1.79534 21.0091 0.5 26.0909 0.5 30.5844Z" fill="#1A3047"/>
<path d="M53.0208 62.3861C52.9044 62.425 52.7868 62.4638 52.6683 62.5026M52.6683 62.5026C38.629 67.0982 10.2368 70.85 1.59837 51.8547C0.755566 50.0014 0.5 47.9406 0.5 45.9047V30.5844C0.5 26.0909 1.79534 21.0091 6.10461 19.7357C7.60809 19.2915 9.27784 19.2258 11.0191 19.8303C15.2022 21.2824 16.402 26.3472 16.4758 30.7746L16.6588 41.7614C16.6957 43.9738 17.0369 46.2002 18.1301 48.124C22.2788 55.4243 33.0146 65.2835 52.6683 62.5026Z" stroke="#1A3047"/>
<circle cx="7.31157" cy="7.01518" r="7.01518" fill="#E87D1E"/>
<circle cx="44.3518" cy="7.01518" r="7.01518" fill="#E87D1E"/>
</svg>
