<svg width="139" height="172" viewBox="0 0 139 172" fill="none" xmlns="http://www.w3.org/2000/svg">
<path d="M94.7754 64.6176V114.343C94.7754 115.201 94.6704 116.066 94.4226 116.887C89.0666 134.64 73.3673 135.537 65.2098 133.569C83.2503 150.501 104.873 154.323 115.098 154.169C116.324 154.151 117.528 153.839 118.604 153.25C134.228 144.71 138.2 124.805 138.2 115.635V65.1935C138.2 62.9918 137.493 60.8126 136.03 59.1671C121.249 42.5391 105.389 50.3913 97.2052 58.3922C95.5464 60.014 94.7754 62.2978 94.7754 64.6176Z" fill="white"/>
<path d="M64.2859 133.324C64.5815 133.41 64.8899 133.491 65.2098 133.569M65.2098 133.569C73.3673 135.537 89.0666 134.64 94.4226 116.887C94.6704 116.066 94.7754 115.201 94.7754 114.343V64.6176C94.7754 62.2978 95.5464 60.014 97.2052 58.3922C105.389 50.3913 121.249 42.5391 136.03 59.1671C137.493 60.8126 138.2 62.9918 138.2 65.1935V115.635C138.2 124.805 134.228 144.71 118.604 153.25C117.528 153.839 116.324 154.151 115.098 154.169C104.873 154.323 83.2503 150.501 65.2098 133.569Z" stroke="white"/>
<path d="M0.533203 68.0522V123.287C0.533203 125.352 0.840411 127.443 1.56082 129.38C21.6702 183.423 99.3989 173.522 137.274 161.314C81.3428 169.107 52.9659 138.443 44.3246 119.528C43.3919 117.487 43.0144 115.261 42.9764 113.017L42.2268 68.7106C42.151 64.2333 40.7058 59.7618 37.3605 56.7849C25.1385 45.9088 13.0697 50.0836 5.51248 56.1009C1.95684 58.932 0.533203 63.5071 0.533203 68.0522Z" fill="white"/>
<path d="M138.198 161.013C137.893 161.114 137.585 161.214 137.274 161.314M137.274 161.314C99.3989 173.522 21.6702 183.423 1.56082 129.38C0.840411 127.443 0.533203 125.352 0.533203 123.287V68.0522C0.533203 63.5071 1.95684 58.932 5.51248 56.1009C13.0697 50.0836 25.1385 45.9088 37.3605 56.7849C40.7058 59.7618 42.151 64.2333 42.2268 68.7106L42.9764 113.017C43.0144 115.261 43.3919 117.487 44.3246 119.528C52.9659 138.443 81.3428 169.107 137.274 161.314Z" stroke="white"/>
<ellipse cx="18.3878" cy="18.1058" rx="18.3878" ry="18.1058" fill="#E87D1E"/>
<ellipse cx="115.477" cy="18.1058" rx="18.3878" ry="18.1058" fill="#E87D1E"/>
</svg>
