<svg width="58" height="58" viewBox="0 0 58 58" fill="none" xmlns="http://www.w3.org/2000/svg">
<g clip-path="url(#clip0_578_1415)">
<path d="M25.2969 31.9893C24.4348 32.8469 23.9481 34.0115 23.9436 35.2276C23.9436 36.4454 24.4274 37.6133 25.2885 38.4744C26.1496 39.3355 27.3175 39.8193 28.5353 39.8193C29.7513 39.8148 30.916 39.3281 31.7736 38.4659" stroke="white" stroke-width="1.5" stroke-linecap="round" stroke-linejoin="round"/>
<path d="M28.5353 21.4531C25.8108 21.4531 23.1476 22.261 20.8823 23.7746C18.617 25.2882 16.8514 27.4396 15.8088 29.9567C14.7662 32.4737 14.4934 35.2434 15.0249 37.9155C15.5565 40.5876 16.8684 43.0421 18.7949 44.9685C20.7213 46.895 23.1758 48.2069 25.8479 48.7384C28.52 49.27 31.2897 48.9972 33.8067 47.9546C36.3238 46.912 38.4751 45.1464 39.9888 42.8811C41.5024 40.6158 42.3103 37.9526 42.3103 35.2281" stroke="white" stroke-width="1.5" stroke-linecap="round" stroke-linejoin="round"/>
<path d="M28.5352 12.2695C23.9945 12.2695 19.5558 13.616 15.7803 16.1387C12.0048 18.6614 9.06218 22.247 7.32451 26.4421C5.58685 30.6372 5.1322 35.2533 6.01805 39.7068C6.9039 44.1603 9.09047 48.2511 12.3013 51.4619C15.512 54.6726 19.6028 56.8592 24.0563 57.7451C28.5098 58.6309 33.1259 58.1763 37.321 56.4386C41.5161 54.7009 45.1017 51.7583 47.6244 47.9828C50.1471 44.2074 51.4936 39.7686 51.4936 35.2279M37.054 26.7115L30.8311 32.932" stroke="white" stroke-width="1.5" stroke-linecap="round" stroke-linejoin="round"/>
<path d="M50.1402 20.3509L42.3102 21.4529L43.4122 13.6229C43.4203 13.5319 43.4011 13.4406 43.357 13.3607C43.313 13.2807 43.2461 13.2157 43.1649 13.1739C43.0837 13.1321 42.9919 13.1155 42.9012 13.1262C42.8105 13.1369 42.7251 13.1743 42.6558 13.2338L37.4648 18.3982C36.9316 18.9352 36.5394 19.5957 36.3231 20.3209C36.1068 21.0461 36.0731 21.8135 36.225 22.5549L37.0515 26.7115L41.2082 27.5356C41.9496 27.6875 42.717 27.6538 43.4421 27.4375C44.1673 27.2212 44.8278 26.829 45.3649 26.2959L50.5269 21.1073C50.5865 21.0379 50.6241 20.9522 50.6347 20.8612C50.6453 20.7703 50.6285 20.6782 50.5864 20.5969C50.5443 20.5156 50.4789 20.4487 50.3985 20.4049C50.3182 20.3611 50.2265 20.3422 50.1354 20.3509" stroke="white" stroke-width="1.5" stroke-linecap="round" stroke-linejoin="round"/>
</g>
<defs>
<clipPath id="clip0_578_1415">
<rect width="58" height="58" fill="white"/>
</clipPath>
</defs>
</svg>
