<svg width="40" height="40" viewBox="0 0 40 40" fill="none" xmlns="http://www.w3.org/2000/svg">
<path fill-rule="evenodd" clip-rule="evenodd" d="M7.5 2.5C6.17392 2.5 4.90215 3.02678 3.96447 3.96447C3.02678 4.90215 2.5 6.17392 2.5 7.5V32.5C2.5 33.8261 3.02678 35.0979 3.96447 36.0355C4.90215 36.9732 6.17392 37.5 7.5 37.5H32.5C33.8261 37.5 35.0979 36.9732 36.0355 36.0355C36.9732 35.0979 37.5 33.8261 37.5 32.5V7.5C37.5 6.17392 36.9732 4.90215 36.0355 3.96447C35.0979 3.02678 33.8261 2.5 32.5 2.5H7.5ZM10.255 13.2425C11.0473 13.2425 11.8072 12.9277 12.3675 12.3675C12.9277 11.8072 13.2425 11.0473 13.2425 10.255C13.2425 9.46267 12.9277 8.70278 12.3675 8.14252C11.8072 7.58225 11.0473 7.2675 10.255 7.2675C9.46267 7.2675 8.70278 7.58225 8.14252 8.14252C7.58225 8.70278 7.2675 9.46267 7.2675 10.255C7.2675 11.0473 7.58225 11.8072 8.14252 12.3675C8.70278 12.9277 9.46267 13.2425 10.255 13.2425ZM12.755 32.0325V15.585H7.755V32.0325H12.755ZM16.075 15.585H21.075V17.7875C21.8125 16.6325 23.4325 15.0775 26.445 15.0775C30.04 15.0775 31.9925 17.46 31.9925 21.9925C31.9925 22.21 32.0125 23.2025 32.0125 23.2025V32.03H27.0125V23.205C27.0125 21.9925 26.7575 19.61 24.0625 19.61C21.365 19.61 21.1375 22.605 21.075 24.565V32.03H16.075V15.585Z" fill="white"/>
</svg>
