<svg width="17" height="20" viewBox="0 0 17 20" fill="none" xmlns="http://www.w3.org/2000/svg">
<path d="M8.47614 20C6.02159 19.4167 3.99526 18.0875 2.39716 16.0125C0.799052 13.9375 0 11.6333 0 9.1V3L8.47614 0L16.9523 3V9.1C16.9523 10.15 16.8066 11.1708 16.5152 12.1625C16.2239 13.1542 15.8045 14.1 15.257 15L12.1315 12.05C12.3257 11.7333 12.4714 11.4042 12.5685 11.0625C12.6656 10.7208 12.7142 10.3667 12.7142 10C12.7142 8.9 12.2992 7.95833 11.4693 7.175C10.6393 6.39167 9.6416 6 8.47614 6C7.31067 6 6.31295 6.39167 5.483 7.175C4.65305 7.95833 4.23807 8.9 4.23807 10C4.23807 11.1 4.65305 12.0417 5.483 12.825C6.31295 13.6083 7.31067 14 8.47614 14C8.84697 14 9.21338 13.9542 9.57538 13.8625C9.93739 13.7708 10.2773 13.6333 10.5952 13.45L14.0121 16.65C13.2704 17.4667 12.4361 18.1667 11.509 18.75C10.5819 19.3333 9.57097 19.75 8.47614 20ZM8.47614 12C7.8934 12 7.39455 11.8042 6.97957 11.4125C6.56459 11.0208 6.3571 10.55 6.3571 10C6.3571 9.45 6.56459 8.97917 6.97957 8.5875C7.39455 8.19583 7.8934 8 8.47614 8C9.05887 8 9.55772 8.19583 9.9727 8.5875C10.3877 8.97917 10.5952 9.45 10.5952 10C10.5952 10.55 10.3877 11.0208 9.9727 11.4125C9.55772 11.8042 9.05887 12 8.47614 12Z" fill="#E87D1E"/>
</svg>
