<svg width="15" height="20" viewBox="0 0 15 20" fill="none" xmlns="http://www.w3.org/2000/svg">
<path d="M7.10335 10C7.5917 10 8.00976 9.80417 8.35753 9.4125C8.7053 9.02083 8.87918 8.55 8.87918 8C8.87918 7.45 8.7053 6.97917 8.35753 6.5875C8.00976 6.19583 7.5917 6 7.10335 6C6.61499 6 6.19693 6.19583 5.84916 6.5875C5.50139 6.97917 5.32751 7.45 5.32751 8C5.32751 8.55 5.50139 9.02083 5.84916 9.4125C6.19693 9.80417 6.61499 10 7.10335 10ZM7.10335 20C4.72077 17.7167 2.94123 15.5958 1.76474 13.6375C0.588246 11.6792 0 9.86667 0 8.2C0 5.7 0.714034 3.70833 2.1421 2.225C3.57017 0.741667 5.22392 0 7.10335 0C8.98277 0 10.6365 0.741667 12.0646 2.225C13.4927 3.70833 14.2067 5.7 14.2067 8.2C14.2067 9.86667 13.6184 11.6792 12.442 13.6375C11.2655 15.5958 9.48593 17.7167 7.10335 20Z" fill="#E87D1E"/>
</svg>
